<?xml version="1.0" standalone="no"?>
<!DOCTYPE svg PUBLIC "-//W3C//DTD SVG 1.1//EN" "http://www.w3.org/Graphics/SVG/1.1/DTD/svg11.dtd" >
<svg xmlns="http://www.w3.org/2000/svg" xmlns:xlink="http://www.w3.org/1999/xlink" version="1.1">
<metadata>
Created by FontForge 20160407 at Tue Aug  9 07:17:29 2016
 By Jimmy Warting
Copyright (c) 1981, 1982, 1983, 1989 and 1993, Linotype Library GmbH or its affiliated Linotype-Hell companies. All rights reserved.

The digitally encoded machine readable software for producing the Typefaces licensed to you is now the property of Heidelberger Druckmaschinen AG and its licensors, and may not be reproduced, used, displayed, modified, disclosed or transferred without the express written approval of Heidelberger Druckmaschinen AG.

Copyright (c) 1988, 1990, 1993 Adobe Systems Incorporated. All Rights Reserved.
</metadata>
<defs>
<font id="HelveticaNeue-CondensedBold" horiz-adv-x="556" >
  <font-face 
    font-family="Helvetica Neue"
    font-weight="700"
    font-stretch="condensed"
    units-per-em="1000"
    panose-1="2 0 8 6 0 0 0 2 0 4"
    ascent="800"
    descent="-200"
    x-height="538"
    cap-height="714"
    bbox="-330 -336.001 1236 1186"
    underline-thickness="50"
    underline-position="-75"
    unicode-range="U+0008-FB02"
  />
<missing-glyph horiz-adv-x="500" 
d="M442 8h-384v496h384v-496zM50 512v-512h400v512h-400z" />
    <glyph glyph-name="fi" unicode="fi" horiz-adv-x="537" 
d="M76 444v-444h138v444h80v94h-80v47c0 15.333 4 26.333 12 33c8 6.67188 21.667 10.0049 41 10h13c6.00195 0 10.6689 -0.333008 14.001 -1v98c-24.667 2 -49.334 3 -74.001 3c-22 -0.0107422 -42 -2.17773 -60 -6.5c-18 -4.33594 -33.167 -11.5029 -45.5 -21.5
c-12.333 -10 -21.833 -23.333 -28.5 -40s-10 -37 -10 -61v-61h-70v-94h70zM348 722v-118h138v118h-138zM348 538v-538h138v538h-138z" />
    <glyph glyph-name="fl" unicode="fl" horiz-adv-x="537" 
d="M76 444v-444h138v444h80v94h-80v47c0 15.333 4 26.333 12 33c8 6.67188 21.667 10.0049 41 10h13c6.00195 0 10.6689 -0.333008 14.001 -1v98c-24.667 2 -49.334 3 -74.001 3c-22 -0.0107422 -42 -2.17773 -60 -6.5c-18 -4.33594 -33.167 -11.5029 -45.5 -21.5
c-12.333 -10 -21.833 -23.333 -28.5 -40s-10 -37 -10 -61v-61h-70v-94h70zM348 722v-722h138v722h-138z" />
    <glyph glyph-name=".notdef" horiz-adv-x="500" 
d="M442 8h-384v496h384v-496zM50 512v-512h400v512h-400z" />
    <glyph glyph-name="controlBS" horiz-adv-x="0" 
 />
    <glyph glyph-name="controlHT" unicode="&#x9;" horiz-adv-x="240" 
 />
    <glyph glyph-name="controlCR" unicode="&#xd;" horiz-adv-x="240" 
 />
    <glyph glyph-name="controlGS" horiz-adv-x="0" 
 />
    <glyph glyph-name="space" unicode=" " horiz-adv-x="240" 
 />
    <glyph glyph-name="exclam" unicode="!" horiz-adv-x="296" 
d="M217 132h-138v-132h138v132zM98 199h100l19 283v232h-138v-232z" />
    <glyph glyph-name="quotedbl" unicode="&#x22;" horiz-adv-x="463" 
d="M72 714v-321h124v321h-124zM267 714v-321h124v321h-124z" />
    <glyph glyph-name="numbersign" unicode="#" horiz-adv-x="480" 
d="M184 286l15 122h98l-16 -122h-97zM0 286v-112h74l-22 -174h97l21 174h98l-22 -174h97l22 174h86v112h-73l16 122h86v112h-73l22 174h-97l-22 -174h-97l21 174h-96l-22 -174h-86v-112h73l-16 -122h-87z" />
    <glyph glyph-name="dollar" unicode="$" horiz-adv-x="480" 
d="M205 -11l-0.00488281 -87h64v87c66 4.66699 116.167 23 150.5 55c34.334 32 51.501 84 51.501 156c0 28 -3 51.667 -9 71c-6.00098 19.333 -14.334 35.833 -24.999 49.5c-10.667 13.667 -23.5 25.167 -38.5 34.5c-15 9.33398 -31.833 18.001 -50.499 26l-79 32v189
c17.333 -5.33398 29.333 -16.501 36 -33.5c6.66699 -17.002 10.334 -38.1689 11.001 -63.501h138v14c0 22 -2.66699 43.667 -8 65s-15 40.666 -29 57.999s-32.833 31.833 -56.499 43.5c-23.667 11.667 -54.167 19.167 -91.5 22.5v69h-64v-69
c-60 -6.66699 -106.167 -26.834 -138.5 -60.501s-48.5 -81.5 -48.5 -143.5c0 -46 10.667 -85.167 32 -117.5s56.333 -57.166 105 -74.499l50 -18v-202c-13.333 3.33301 -23.833 8.83301 -31.5 16.5s-13.5 16.834 -17.5 27.501s-6.5 22.5 -7.5 35.5s-1.5 26.5 -1.5 40.5h-138
v-21c0 -26 2.5 -50.667 7.5 -74s14.5 -44.166 28.5 -62.499s33.833 -33 59.5 -44s59.167 -18.167 100.5 -21.5zM204.995 602v-159.999c-32.667 18.667 -49 46.667 -49 84c0 41.333 16.333 66.666 49 75.999zM268.995 92.001l-0.000976562 177
c19.333 -10 33.833 -22.333 43.5 -37s14.5 -34.667 14.5 -60c0 -18.667 -4.5 -35.5 -13.5 -50.5s-23.833 -24.833 -44.499 -29.5z" />
    <glyph glyph-name="percent" unicode="%" horiz-adv-x="778" 
d="M546 725l-406 -753h89l406 753h-89zM133 521c0.000976562 36 2.33398 63.498 7 82.498c4.66699 19 17 28.5 37 28.5s32.333 -9.5 37 -28.5c4.66797 -19 7.00098 -46.5 7 -82.5c0 -40 -2.33301 -69.833 -7 -89.499c-4.66699 -19.667 -17 -29.5 -37 -29.499
c-20 0 -32.333 9.83301 -37 29.5s-7 49.5 -7 89.5zM27 516.998c0 -32 1.99902 -60 5.99902 -84s11.5 -44 22.5 -60s26.333 -27.833 46 -35.499c19.667 -7.66895 44.834 -11.502 75.501 -11.5c31.333 0 56.666 3.83301 75.999 11.5c19.334 7.66699 34.501 19.5 45.501 35.5
s18.5 36 22.5 60s6 52 6 84s-2 60 -6 84s-11.5 44 -22.5 60c-11 16.001 -26.167 27.834 -45.5 35.499c-19.333 7.6748 -44.666 11.5078 -75.999 11.5c-30.667 0 -55.834 -3.83301 -75.501 -11.5s-35 -19.5 -46 -35.5s-18.5 -36 -22.5 -60s-6 -52 -6 -84zM450.999 176.998
c0 -32.667 2.00195 -60.835 6.00195 -84.502s11.5 -43.334 22.5 -59.001s26.333 -27 46 -34s44.834 -10.5 75.5 -10.5c31.333 0 56.666 3.5 75.999 10.5s34.5 18.333 45.5 34s18.5 35.334 22.5 59.001s6 51.834 6 84.501c0 32 -2 60 -6 84s-11.5 44 -22.5 60
c-11.002 16 -26.1689 27.833 -45.5 35.5c-19.334 7.66699 -44.667 11.5 -76 11.5c-30.667 -0.00195312 -55.834 -3.83496 -75.501 -11.499c-19.667 -7.66699 -35 -19.5 -46 -35.5s-18.5 -36 -22.5 -60s-6 -52 -6 -84zM557.001 180.997
c0.00878906 36 2.34277 63.5 7.00098 82.5c4.66797 19 17.001 28.5 37 28.5c20.001 0 32.334 -9.5 36.999 -28.5c4.68164 -19 7.01465 -46.5 7 -82.5c0 -40 -2.33301 -69.833 -7 -89.5s-17 -29.5 -37 -29.5s-32.333 9.83301 -37 29.5s-7 49.5 -7 89.5z" />
    <glyph glyph-name="ampersand" unicode="&#x26;" horiz-adv-x="593" 
d="M426 235l-107 144.999c42 30 73.167 59.333 93.5 88c20.334 28.667 30.501 61 30.5 97c0 20.668 -3.5 40.001 -10.5 58c-7 18.001 -17.833 33.834 -32.499 47.499c-14.667 13.6689 -33.167 24.3359 -55.5 32c-22.333 7.6748 -48.833 11.5078 -79.5 11.5
c-26.667 0 -51.167 -3.5 -73.5 -10.5s-41.5 -17 -57.5 -30c-16 -13.001 -28.5 -28.668 -37.5 -47c-9 -18.335 -13.5 -39.168 -13.5 -62.5c0 -10.002 0.666992 -19.6689 2 -29c1.33301 -9.33496 3.66602 -19.002 6.99902 -29c3.33301 -10 8.16602 -20.667 14.499 -32
s14.5 -24.333 24.5 -39l25 -37c-44.667 -28 -79.834 -58.833 -105.501 -92.499c-25.667 -33.667 -38.5 -71.5 -38.5 -113.5c0 -20 3 -42 9 -66s17 -46.333 33 -67s38.333 -37.5 67 -50.5s65.334 -19.5 110.001 -19.5c36 0 69.167 5.66699 99.5 17
c30.334 11.333 54.501 27.666 72.501 48.999l40 -55h153l-94 132c21.333 30.667 38.833 63.834 52.5 99.501c13.6689 35.667 20.502 72.834 20.5 111.501h-124c-0.00390625 -15.333 -2.33691 -33.333 -7 -54c-4.66699 -20.667 -10.667 -38.667 -18 -54zM223 312.999
l120 -170c-24 -30 -55 -45 -93 -45c-16 0 -30.333 2.83301 -43 8.5s-23.167 13 -31.5 22c-8.33398 9 -14.667 19.167 -19 30.5c-4.33398 11.333 -6.50098 22.333 -6.5 33c0 22 5.16699 42.333 15.5 61s29.5 38.667 57.5 60zM201 567.999c0 18.668 5.83301 33.001 17.499 43
c11.667 10 26.167 15 43.5 15c18.667 -0.00683594 33.834 -5.17383 45.501 -15.5c11.667 -10.335 17.5 -25.168 17.5 -44.5c0 -12.667 -3.5 -25.5 -10.5 -38.5s-18.5 -26.167 -34.5 -39.5l-26 -22l-17 24c-24 32 -36 58 -36 78z" />
    <glyph glyph-name="quotesingle" unicode="'" horiz-adv-x="260" 
d="M68 714v-321h124v321h-124z" />
    <glyph glyph-name="parenleft" unicode="(" horiz-adv-x="296" 
d="M296 714l-106.001 -0.000976562c-50 -78.667 -85.833 -155.5 -107.5 -230.5s-32.5 -147.833 -32.5 -218.499c0 -70.667 10.833 -143 32.5 -217s57.5 -150.333 107.5 -229h106c-20.667 38 -38.334 74.833 -53 110.5c-14.667 35.667 -26.5 71 -35.5 106
s-15.5 71.333 -19.5 109s-6 77.834 -6 120.501s2 82.834 6 120.501s10.5 74.5 19.5 110.5s20.833 71.833 35.5 107.499c14.667 35.667 32.334 72.5 53.001 110.499z" />
    <glyph glyph-name="parenright" unicode=")" horiz-adv-x="296" 
d="M106 714l-106 0.00195312c20.667 -38 38.334 -74.833 53.001 -110.5s26.5 -71.5 35.5 -107.5s15.5 -72.833 19.5 -110.499c4 -37.667 6 -77.834 6 -120.501s-2 -82.834 -6 -120.501s-10.5 -74 -19.5 -109s-20.833 -70.333 -35.5 -106s-32.334 -72.5 -53.001 -110.5h106
c50 78.667 85.833 155 107.5 229s32.5 146.333 32.5 217s-10.833 143.5 -32.5 218.5s-57.5 151.833 -107.5 230.499z" />
    <glyph glyph-name="asterisk" unicode="*" horiz-adv-x="390" 
d="M236 714h-82v-128l-122 40l-25 -78l122 -40l-76 -104l67 -48l75 104l75 -104l67 48l-76 104l122 40l-25 78l-122 -40v128z" />
    <glyph glyph-name="plus" unicode="+" horiz-adv-x="600" 
d="M238 191v-191h124v191h191v124h-191v191h-124v-191h-191v-124h191z" />
    <glyph glyph-name="comma" unicode="," horiz-adv-x="240" 
d="M186 156l-131.999 0.000976562v-156h52v-13c0 -18.667 -4.33301 -35.667 -13 -51s-21.667 -24.666 -39 -27.999v-70c26.667 2.66699 48.5 9.16699 65.5 19.5s30.5 23.666 40.5 39.999s16.833 35.666 20.499 57.999c3.66797 22.333 5.50098 45.833 5.5 70.5v130z" />
    <glyph glyph-name="hyphen" unicode="-" horiz-adv-x="370" 
d="M326 348h-282v-118h282v118z" />
    <glyph glyph-name="period" unicode="." horiz-adv-x="240" 
d="M186 156h-132v-156h132v156z" />
    <glyph glyph-name="slash" unicode="/" horiz-adv-x="332" 
d="M223 728l-223 -739h109l226 739h-112z" />
    <glyph glyph-name="zero" unicode="0" horiz-adv-x="480" 
d="M18 330c0 -62.667 3.49805 -115.833 10.498 -159.5s19 -79.167 36 -106.5s39.833 -46.666 68.5 -57.999s64.334 -17 107.001 -17c52.667 0 93.834 10 123.501 30s51.834 47.5 66.501 82.5s23.667 75.167 27 120.5c3.33691 45.333 5.00391 92.666 5 141.999
c0 62.667 -3.5 115.834 -10.5 159.501s-19 79.167 -36 106.5s-39.667 47.166 -68 59.499s-64.166 18.5 -107.499 18.5c-52.667 0 -93.834 -10.5 -123.501 -31.5s-51.834 -49 -66.501 -84c-14.667 -35.001 -23.667 -75.168 -27 -120.501s-5 -92.666 -5 -141.999z
M161.998 299.001v77.001c0 45.333 1.16699 83.333 3.5 114s6.33301 55.167 12 73.5s13.5 31.333 23.5 39c10 7.6709 23 11.5039 39 11.499c15.333 0 28 -3 38 -9c10 -6.00098 18 -17.168 24 -33.5c6.00098 -16.334 10.168 -38.667 12.5 -66.999
c2.33789 -28.333 3.50488 -64.833 3.5 -109.5v-77c0 -45.333 -1.16699 -83.333 -3.5 -114s-6.33301 -55.167 -12 -73.5s-13.5 -31.333 -23.499 -39c-10 -7.66699 -23 -11.5 -39 -11.5c-15.333 0 -28 3 -38 9s-18 17.167 -24 33.5s-10.167 38.666 -12.5 66.999
c-2.33496 28.333 -3.50195 64.833 -3.50098 109.5z" />
    <glyph glyph-name="one" unicode="1" horiz-adv-x="480" 
d="M182 0h144v708h-106c-7.33301 -40 -24.833 -69 -52.5 -87s-65.5 -27 -113.5 -27h-13v-94h141v-500z" />
    <glyph glyph-name="two" unicode="2" horiz-adv-x="480" 
d="M454 0l0.000976562 112.001h-267c3.33301 13.333 11 29.166 23 47.499s28.667 37.166 50 56.499l80 74c20 18 37 35.5 51 52.5s25.333 34.5 34 52.5s15 36.833 19 56.5s6 40.834 6 63.501c-0.000976562 62 -17.334 109.667 -52 143c-34.667 33.333 -88 50 -160 50
c-76 -0.00195312 -131.667 -17.6689 -167 -53c-35.333 -35.334 -53 -86.001 -53 -152.001v-27h138c0.000976562 18.667 0.833984 36.334 2.49902 53c1.66699 16.668 5.33398 31.335 11 44.001c5.66699 12.667 13.667 22.667 24 30s24.5 11 42.5 11
c46.667 0 70 -29.333 70 -88c-0.00488281 -18 -0.837891 -34 -2.5 -48c-1.66699 -14 -5.16699 -27 -10.5 -39s-12.833 -24 -22.5 -36s-22.5 -25 -38.5 -39l-58 -54c-26 -24 -48.833 -47.833 -68.5 -71.5s-36 -47.834 -49 -72.501s-22.667 -50.667 -29 -78
s-9.5 -56.666 -9.5 -87.999h436z" />
    <glyph glyph-name="three" unicode="3" horiz-adv-x="480" 
d="M158 207l-138.004 -0.00488281v-3c0 -68.667 17 -121.667 51 -159s85.333 -56 154 -56c49.334 0 89.167 6.33301 119.5 19c30.334 12.667 54.167 29.334 71.5 50.001c17.334 20.667 29.001 43.667 35.001 69s9 50 9 74c0 44.667 -9.5 81.834 -28.5 111.501
s-51.5 48.167 -97.5 55.5v2c34 7.33398 60.5 24.501 79.5 51.5c19 27 28.5 61.833 28.5 104.5c0 62.667 -17.833 108.667 -53.499 138c-35.667 29.333 -85.834 44 -150.501 44c-68 -0.00195312 -119.667 -17.1689 -155 -51.5c-35.333 -34.333 -53 -86.833 -53 -157.5h132
c0.000976562 16.668 0.833984 32.001 2.49902 46c1.66699 14 5.16699 26.167 10.5 36.5s12.833 18.333 22.5 24c9.66699 5.6709 22.167 8.50391 37.5 8.49902c23.334 0 40.667 -7 52 -21c11.334 -14 17.001 -38 17 -72c0 -14.667 -1.5 -28.667 -4.5 -42
s-7.66699 -25.166 -14 -35.499s-14.666 -18.666 -24.999 -24.999s-23.166 -9.5 -38.499 -9.5h-47v-94h48c20 -0.000976562 36 -3.33398 48 -9.99902c12 -6.66699 21.333 -15.667 28 -27s11.167 -24.166 13.5 -38.499c2.33789 -14.333 3.50488 -29.5 3.5 -45.5
c-0.00488281 -15.333 -0.837891 -30 -2.5 -44c-1.66699 -14 -5.33398 -26.167 -11 -36.5c-5.66699 -10.333 -13.667 -18.5 -24 -24.5s-24.166 -9 -41.499 -9c-31.333 0 -52.166 10.833 -62.499 32.5s-15.833 53.167 -16.5 94.5z" />
    <glyph glyph-name="four" unicode="4" horiz-adv-x="480" 
d="M14 265v-118h252v-147h132v147h68v112h-68v449h-149zM266 528v-269h-140l138 269h2z" />
    <glyph glyph-name="five" unicode="5" horiz-adv-x="480" 
d="M425 582l-0.00292969 111.996h-369l-26 -385h129c2.66699 20 9.5 35.833 20.5 47.5s26.833 17.5 47.5 17.5c16 -0.00292969 29.333 -2.33594 40 -7c10.667 -4.66699 19.167 -12.667 25.5 -24s10.833 -26.666 13.5 -45.999s4 -43.666 4 -72.999
c0 -46 -6.5 -80.5 -19.5 -103.5s-34.5 -34.5 -64.5 -34.5c-15.333 0 -27.666 3.83301 -36.999 11.5c-9.33398 7.66699 -16.501 17.334 -21.501 29.001s-8.16699 24.167 -9.5 37.5c-1.33496 13.333 -2.00195 26 -2.00098 38h-138v-19c0 -20 2.5 -41.5 7.5 -64.5
s14.833 -44.333 29.5 -64s35.834 -35.5 63.501 -47.5s63.834 -18 108.501 -18c45.334 0 82.667 5.83301 112 17.5c29.334 11.667 52.501 29 69.501 52s28.833 50.5 35.5 82.5s10 67.667 10 107c0 28 -2.66699 55.5 -8 82.5s-14.5 51.167 -27.5 72.5
c-13 21.334 -30.667 38.501 -53 51.501s-50.5 19.5 -84.5 19.5c-30.667 0 -56.667 -4.16699 -78 -12.5s-38.666 -21.833 -51.999 -40.5h-2l15 161h261z" />
    <glyph glyph-name="six" unicode="6" horiz-adv-x="480" 
d="M165 220c0 48 5.99805 82.334 17.998 103.001s32.333 31 61 31c28 -0.000976562 48 -10.334 60 -31c12 -20.667 18 -55 18 -103c-0.00488281 -20 -0.837891 -38.5 -2.5 -55.5c-1.66699 -17 -5.16699 -31.833 -10.5 -44.5s-13.166 -22.5 -23.499 -29.5
s-24.166 -10.5 -41.499 -10.5c-16.667 0 -30.167 3.5 -40.5 10.5s-18.333 16.667 -24 29s-9.5 27.166 -11.5 44.499s-3 36 -3 56zM310.998 528.001l137.997 -0.00195312c-0.667969 34 -6.50098 62.5 -17.5 85.5c-11 23 -25.5 41.5 -43.5 55.5s-38.833 24 -62.499 30
c-23.667 6 -48.167 9 -73.5 9c-58.667 0 -104 -11 -136 -33c-32 -22.001 -55.5 -51.168 -70.5 -87.5c-15 -36.334 -24 -78.001 -27 -125c-3 -47 -4.5 -95.5 -4.5 -145.5c0 -43.333 2.33301 -85 7 -125s14.834 -75.167 30.501 -105.5s38.167 -54.166 67.5 -71.499
s68.666 -26 117.999 -26c80 0 138.167 21.167 174.5 63.5c36.334 42.333 54.501 104.5 54.501 186.5c0 32 -3.16699 61.5 -9.5 88.5s-16.333 50.333 -30 70s-31.5 35 -53.5 46s-48.667 16.5 -80 16.5c-32 0 -59.167 -5.5 -81.5 -16.5s-39.5 -25.833 -51.5 -44.499h-2v35
c0 26 1 50 3 72s6.16699 41 12.5 57s15.333 28.5 27 37.5s26.834 13.5 45.501 13.5c24 0 40.833 -7.33301 50.5 -22s14.5 -36 14.5 -64z" />
    <glyph glyph-name="seven" unicode="7" horiz-adv-x="480" 
d="M458 694h-435.999v-124h298c-34.667 -47.333 -64.667 -95.666 -90 -144.999s-46.833 -98.333 -64.5 -147s-31.834 -96.5 -42.501 -143.5s-18.667 -91.833 -24 -134.5h151c6 50 14.667 100.833 26 152.5c11.334 51.667 25.667 102.5 43 152.5
c17.334 50 37.501 98.667 60.5 146c23 47.333 49.167 91.666 78.5 132.999v110z" />
    <glyph glyph-name="eight" unicode="8" horiz-adv-x="480" 
d="M158 202c0 17.333 1.16797 33.3311 3.50098 47.998s6.66602 27.5 12.999 38.5c6.33301 11.001 14.833 19.668 25.5 26c10.667 6.33496 24 9.50195 40 9.50098c16 0 29.333 -3.16699 40 -9.5s19.167 -15 25.5 -26c6.33496 -11 10.668 -23.833 13 -38.499
c2.33789 -14.667 3.50488 -30.667 3.5 -48c0 -16.667 -1.16699 -32.5 -3.5 -47.5s-6.66602 -28 -12.999 -39s-14.833 -19.667 -25.5 -26s-24 -9.5 -40 -9.5s-29.333 3.16699 -40 9.5s-19.167 15 -25.5 26c-6.33398 11 -10.667 24 -13 39
c-2.33496 15 -3.50195 30.833 -3.50098 47.5zM170.001 516.998c0 64.667 23.333 97.001 70 97c46.667 0 70 -32.333 70 -97c-0.000976562 -34 -6.33398 -59 -19 -75c-12.667 -16 -29.667 -24 -51 -24s-38.333 8 -51 24s-19 41 -19 75zM14.001 199.999
c0 -20.667 2.5 -43.334 7.5 -68.001s15.5 -47.667 31.5 -69s38.833 -39 68.5 -53s69.167 -21 118.5 -21s88.833 7 118.5 21s52.5 31.667 68.5 53s26.5 44.333 31.5 69s7.5 47.334 7.5 68.001c0 44.667 -10 83 -30 115s-50 52 -90 60v2c18.667 4.66699 34.5 12 47.5 22
s23.5 21.333 31.5 34s13.833 26 17.5 40s5.5 27.333 5.5 40c0 69.333 -18.5 119.166 -55.5 149.499s-87.833 45.5 -152.5 45.5c-64.667 -0.00195312 -115.5 -15.1689 -152.5 -45.5c-37 -30.334 -55.5 -80.167 -55.5 -149.5c0 -12.667 1.66699 -26 5 -40
s9 -27.333 17 -39.999c8 -12.667 18.5 -24 31.5 -34c13 -10.001 29.167 -17.334 48.5 -22v-2c-40 -8 -70 -28 -90 -60s-30 -70.333 -30 -115z" />
    <glyph glyph-name="nine" unicode="9" horiz-adv-x="480" 
d="M158 474c0.000976562 20 0.835938 38.499 2.50098 55.499c1.66699 17.001 5.16699 31.834 10.5 44.5c5.33301 12.6699 13.166 22.5029 23.499 29.499c10.333 7 24.166 10.5 41.499 10.5c16.667 0 30.167 -3.5 40.5 -10.5c10.333 -7.00293 18.333 -16.6699 24 -29
c5.66699 -12.334 9.5 -27.167 11.5 -44.499c2 -17.334 3 -36.001 3 -56.001c0 -48 -6 -82.333 -18 -102.999c-12 -20.667 -32.333 -31 -60.999 -30.999c-28 0 -48 10.333 -60 31s-18 55 -18 103zM169.002 164.999l-138.006 0.00195312c0.666992 -34 6.5 -62.5 17.5 -85.5
s25.5 -41.333 43.5 -55s38.833 -23 62.5 -28s48.167 -7.5 73.5 -7.5c58 0 103.167 10.5 135.5 31.5c32.334 21 56.001 49.5 71.001 85.5s24 77.5 27 124.5s4.5 95.833 4.5 146.5c-0.00488281 43.334 -2.33789 85.001 -6.99902 125.001
c-4.66699 40 -14.834 75.167 -30.5 105.5c-15.667 30.333 -38.167 54.666 -67.5 72.999s-68.666 27.5 -117.999 27.5c-80 -0.000976562 -138.167 -21.668 -174.5 -65.001c-36.333 -43.334 -54.5 -106.001 -54.5 -188.001c0 -32 3.16699 -61.5 9.5 -88.5
s16.333 -50.333 30 -70s31.5 -35 53.5 -46s48.667 -16.5 80 -16.5c32 0 59.167 5.5 81.5 16.5c22.334 11 39.501 25.5 51.501 43.5h2v-34c0 -26 -1 -50 -3 -72s-6.16699 -41 -12.5 -57s-15.166 -28.5 -26.499 -37.5s-26.666 -13.5 -45.999 -13.5
c-24 0 -40.833 7.5 -50.5 22.5s-14.5 35.833 -14.5 62.5z" />
    <glyph glyph-name="colon" unicode=":" horiz-adv-x="240" 
d="M54 521v-156h132v156h-132zM54 156v-156h132v156h-132z" />
    <glyph glyph-name="semicolon" unicode=";" horiz-adv-x="240" 
d="M186 521h-132v-156h132v156zM186 156l-131.999 0.000976562v-156h52v-13c0 -18.667 -4.33301 -35.667 -13 -51s-21.667 -24.666 -39 -27.999v-70c26.667 2.66699 48.5 9.16699 65.5 19.5s30.5 23.666 40.5 39.999s16.833 35.666 20.499 57.999
c3.66797 22.333 5.50098 45.833 5.5 70.5v130z" />
    <glyph glyph-name="less" unicode="&#x3c;" horiz-adv-x="600" 
d="M47 306v-106l506 -205v121l-338 137l338 137v124z" />
    <glyph glyph-name="equal" unicode="=" horiz-adv-x="600" 
d="M47 206v-124h506v124h-506zM47 424v-124h506v124h-506z" />
    <glyph glyph-name="greater" unicode="&#x3e;" horiz-adv-x="600" 
d="M47 116v-121l506 205v106l-506 208v-124l338 -137z" />
    <glyph glyph-name="question" unicode="?" horiz-adv-x="481" 
d="M300 132h-138v-132h138v132zM36 493l131.999 0.00195312v25c0 32.667 5.5 59.167 16.5 79.5s29.167 30.5 54.5 30.5c22.667 0 39.667 -7.83301 51 -23.5c11.334 -15.667 17.001 -36.167 17 -61.5c-0.000976562 -20.001 -2.83398 -38.834 -8.49902 -56.5
c-5.66797 -17.667 -15.501 -34.167 -29.5 -49.5l-38 -43c-22.667 -25.333 -38.667 -49.5 -48 -72.5c-9.33398 -23 -14.001 -51.167 -14.001 -84.5v-39h124v15c0 25.333 3.83301 46 11.5 62s20.167 33.667 37.5 53l40 45c24 28 40.5 54 49.5 78s13.5 50 13.5 78
c0 58.667 -17.5 105.5 -52.5 140.5s-87.833 52.5 -158.5 52.5c-32.667 -0.0078125 -61.5 -5.1748 -86.5 -15.5c-25 -10.335 -45.667 -24.502 -62 -42.501c-16.333 -18.001 -28.666 -39.668 -36.999 -65.001c-8.33301 -25.334 -12.5 -53.001 -12.5 -83v-23z" />
    <glyph glyph-name="at" unicode="@" horiz-adv-x="800" 
d="M535 541l-13.001 -53c-14.667 23.334 -32.167 40.334 -52.5 51c-20.333 10.6689 -43.166 16.002 -68.499 16c-32.667 -0.00195312 -62.167 -7.16895 -88.5 -21.5c-26.333 -14.334 -48.833 -33.001 -67.5 -56.001s-33 -49.167 -43 -78.5s-15 -59.333 -15 -90
c0 -26.667 4.33301 -50.5 12.999 -71.5c8.66699 -21 19.834 -38.833 33.501 -53.5s29.167 -25.834 46.5 -33.501c17.334 -7.66699 35.001 -11.5 53.001 -11.5c26.667 0 50 5.33301 70 16s36.667 23 50 37h2c3.33398 -35.333 25.001 -53 65.001 -53
c10.668 0 24.335 2.16699 41.001 6.5c16.668 4.33301 34.335 11.166 53 20.499c18.667 9.33301 37.334 21.5 56 36.5c18.6689 15 35.502 33.167 50.5 54.5c15 21.333 27.167 45.833 36.5 73.5s14 59.167 14 94.5c0 46 -10 87.5 -30 124.5
c-20 37.001 -46.833 68.834 -80.5 95.5c-33.667 26.667 -73 47.167 -118 61.5s-92.5 21.5 -142.5 21.5c-51.333 -0.00292969 -99.5 -9.66992 -144.5 -29c-45 -19.333 -84.333 -45.833 -118 -79.5s-60.167 -73 -79.5 -118s-29 -93.167 -29 -144.5s9.66699 -99.5 29 -144.5
s45.833 -84.167 79.5 -117.5s73 -59.333 118 -78s93.167 -28 144.5 -28c76 0 141 13.333 195 40s99 65 135 115h-89c-28.001 -16.667 -59.668 -31.5 -95.001 -44.5s-76 -19.5 -122 -19.5c-38 0 -74.167 7.16699 -108.5 21.5s-64.333 34 -90 59s-46.167 54.333 -61.5 88
c-15.334 33.667 -23.001 69.5 -23.001 107.5c0 36 7 70.667 21 104c14 33.334 33.333 63.001 58 89.001s53.834 46.667 87.501 62s70.167 23 109.5 23c34.667 -0.00195312 68 -5.66895 100 -17c32.001 -11.333 60.334 -27.333 85 -48c24.667 -20.667 44.334 -45 59 -73
c14.6689 -28 22.002 -58.667 21.999 -92c-0.0078125 -26 -3.6748 -49.833 -11 -71.499c-7.33594 -21.667 -16.1689 -40 -26.5 -55c-10.335 -15 -21.502 -26.667 -33.501 -35c-12 -8.33398 -23 -12.501 -33 -12.5c-13.335 0 -20.002 6.66699 -20 20
c0 8.66699 2 22.334 6 41.001l58 250h-88zM298.999 326c0 14 2.83203 28.1641 8.49902 42.4971c5.66699 14.334 13.5 27.501 23.5 39.501s21.833 21.833 35.5 29.5s28.5 11.5 44.5 11.5c20.667 -0.000976562 38.334 -7.33398 53.001 -21.999
c14.667 -14.667 22 -32.667 22 -54c-0.00195312 -14.667 -2.83496 -29.667 -8.5 -45c-5.66699 -15.333 -13.667 -29.166 -24 -41.499s-22.5 -22.333 -36.5 -30s-29.667 -11.5 -47 -11.5c-21.333 0 -38.5 8 -51.5 24s-19.5 35 -19.5 57z" />
    <glyph glyph-name="A" unicode="A" 
d="M348 269l-69 321h-2l-69 -321h140zM367 714l189 -714h-150l-33 151h-190l-33 -151h-150l189 714h178z" />
    <glyph glyph-name="B" unicode="B" 
d="M194 106l-0.000976562 214.999h62c16 0 30.667 -1.66699 44 -5s24.833 -9.16602 34.5 -17.499s17.334 -19.333 23.001 -33s8.5 -30.834 8.5 -51.501c0 -41.333 -10.667 -69.666 -32 -84.999s-49.333 -23 -84 -23h-56zM193.999 420.999v187h52c36 0 62.333 -7 79 -21
s25 -38 25 -72s-9.16699 -58.167 -27.5 -72.5s-47.5 -21.5 -87.5 -21.5h-41zM49.999 713.999v-714.001h243c42 0 77.167 5.66699 105.5 17s51.333 26.5 69 45.5s30.167 41.167 37.5 66.5s11 52 11 80c0 48 -11.667 86.333 -35 115s-55 45.667 -95 51v2
c36 10 63 28.833 81 56.5s27 60.834 27 99.501c0 34 -5 62.667 -15 86s-24 42 -42 56s-39.5 24 -64.5 30s-52.167 9 -81.5 9h-241z" />
    <glyph glyph-name="C" unicode="C" horiz-adv-x="537" 
d="M355 473l143.999 0.00390625c-0.00390625 26 -1.83691 53.833 -5.5 83.499c-3.66797 29.667 -12.835 57.334 -27.501 83c-14.667 25.667 -36.834 46.834 -66.5 63.5c-29.667 16.6699 -70.167 25.0029 -121.5 25c-54 -0.00292969 -97 -9.16992 -129 -27.5
c-32 -18.333 -56.5 -43.833 -73.5 -76.5s-28 -71.834 -33 -117.501s-7.5 -95.5 -7.5 -149.5c0 -54.667 2.5 -104.667 7.5 -150s16 -84.333 33 -117s41.5 -57.667 73.5 -75s75 -26 129 -26c47.333 0 85.833 7.33301 115.5 22s52.667 35 69 61
c16.334 26 27.501 56.333 33.501 91s9 71.334 9 110.001h-144c-0.00390625 -38.667 -2.33691 -69.834 -6.99902 -93.501c-4.66699 -23.667 -11 -42 -18.999 -55c-8 -13 -17.5 -21.667 -28.5 -26s-22.833 -6.5 -35.499 -6.5c-15.333 0 -28.833 3.16699 -40.5 9.5
s-21.334 18.666 -29.001 36.999s-13.334 44.166 -17.001 77.499s-5.5 77 -5.5 131c0.000976562 50.667 1.33398 93.5 4 128.5c2.66699 35 7.33398 63.333 14 84.999c6.66699 21.668 15.834 37.335 27.5 47.001c11.667 9.67188 26.5 14.5049 44.5 14.5
c32.667 0 55.167 -11.833 67.5 -35.5c12.334 -23.667 18.501 -61.5 18.5 -113.5z" />
    <glyph glyph-name="D" unicode="D" horiz-adv-x="574" 
d="M201 106v502.001h61c27.333 -0.00488281 49.166 -5.17188 65.499 -15.501c16.334 -10.334 28.667 -25.667 37 -46c8.33301 -20.335 13.833 -45.835 16.5 -76.5c2.66699 -30.667 4 -66.334 4 -107c0 -48.667 -1.5 -89.334 -4.5 -122c-3 -32.667 -9 -59 -18 -79
s-21.167 -34.333 -36.5 -43s-35.666 -13 -60.999 -13h-64zM57 714.001l-0.00195312 -714h227c48 0 87.667 7.33301 119 22s56.333 37 75 67s31.834 68.167 39.501 114.5c7.67285 46.333 11.5059 100.833 11.5 163.5c0 52.667 -3 100.334 -9 143.001
s-17.5 79.167 -34.5 109.5s-40.833 53.666 -71.499 69.999c-30.667 16.333 -71 24.5 -121 24.5h-236z" />
    <glyph glyph-name="E" unicode="E" horiz-adv-x="481" 
d="M449 714h-399v-714h409v118h-265v192h240v118h-240v168h255v118z" />
    <glyph glyph-name="F" unicode="F" horiz-adv-x="463" 
d="M50 714v-714h144v310h240v118h-240v168h255v118h-399z" />
    <glyph glyph-name="G" unicode="G" 
d="M367 502h138.002c-0.000976562 72.667 -17.334 128.5 -52 167.5c-34.667 39 -91.334 58.5 -170.001 58.5c-46 -0.00292969 -84.333 -7.66992 -115 -23.001c-30.667 -15.334 -55.334 -38.167 -74.001 -68.5c-18.667 -30.334 -31.834 -68.167 -39.501 -113.5
s-11.5 -98 -11.5 -158c0 -62 2.66699 -116.5 8 -163.5s15.833 -86.5 31.5 -118.5s37.334 -55.667 65.001 -71s63.5 -23 107.5 -23c34 0 63.167 5.83301 87.5 17.5c24.334 11.667 45.167 31.5 62.5 59.5h2v-66h106v385h-233v-106h95v-73c0 -19.333 -3 -36.166 -9 -50.499
s-13.5 -26.166 -22.5 -35.499s-18.667 -16.333 -29 -21s-19.833 -7 -28.5 -7c-20.667 0 -37.5 6.5 -50.5 19.5s-23 31.667 -30 56s-11.833 53.833 -14.5 88.5s-4 73.334 -4 116.001c0 89.334 7.66699 153.334 23 192c15.333 38.668 40.333 58.001 75 57.999
c14.667 0 27.167 -3.83301 37.5 -11.5s18.833 -17.334 25.5 -29.001s11.5 -24.5 14.5 -38.5c3 -14.001 4.5 -27.668 4.5 -41z" />
    <glyph glyph-name="H" unicode="H" 
d="M50 714v-714h144v317h168v-317h144v714h-144v-273h-168v273h-144z" />
    <glyph glyph-name="I" unicode="I" horiz-adv-x="258" 
d="M57 0h144v714h-144v-714z" />
    <glyph glyph-name="J" unicode="J" horiz-adv-x="463" 
d="M419 714h-143.997v-510c0 -38 -4.16699 -66.167 -12.5 -84.5s-25.5 -27.5 -51.5 -27.5s-43.167 9.16699 -51.5 27.5c-8.33398 18.333 -12.501 46.5 -12.501 84.5v22h-132v-31c0 -28 2.66699 -54.667 8 -80s15.166 -47.5 29.499 -66.5s33.666 -33.667 57.999 -44
s55.5 -15.5 93.5 -15.5c72.667 0 126.667 16.167 162 48.5c35.334 32.333 53.001 86.5 53 162.5v514z" />
    <glyph glyph-name="K" unicode="K" horiz-adv-x="537" 
d="M194 714h-144v-714h144v212l53 81l147 -293h162l-216 408l194 306h-156l-182 -286h-2v286z" />
    <glyph glyph-name="L" unicode="L" horiz-adv-x="463" 
d="M50 0h399v118h-255v596h-144v-714z" />
    <glyph glyph-name="M" unicode="M" horiz-adv-x="740" 
d="M53 714v-714h132v570h2l127 -570h112l127 570h2v-570h132v714h-213l-103 -504h-2l-102 504h-214z" />
    <glyph glyph-name="N" unicode="N" horiz-adv-x="574" 
d="M216 714h-166v-714h132v500h2l176 -500h164v714h-132v-489h-2z" />
    <glyph glyph-name="O" unicode="O" 
d="M179 357c0 48 1.16602 88.668 3.49902 122.001s7 60.666 14 81.999s17 36.833 30 46.5c13 9.67188 30.167 14.5049 51.5 14.5c21.334 0 38.501 -4.83301 51.501 -14.5s23 -25.167 30 -46.5c7.00195 -21.334 11.6689 -48.667 14 -82c2.3418 -33.333 3.50879 -74 3.5 -122
c0 -48 -1.16699 -88.833 -3.5 -122.5s-7 -61 -14 -82s-17 -36.333 -30 -46s-30.167 -14.5 -51.5 -14.5s-38.5 4.83301 -51.5 14.5s-23 25 -30 46s-11.667 48.333 -14 82c-2.33496 33.667 -3.50195 74.5 -3.5 122.5zM34.999 357.001c0 -54.667 2.5 -104.666 7.5 -149.999
s16 -84.333 33 -117s41.5 -57.667 73.5 -75s75 -26 129 -26s97 8.66699 129 26s56.5 42.333 73.5 75s28 71.667 33 117s7.5 95.333 7.5 150c0 54 -2.5 103.833 -7.5 149.5s-16 84.834 -33 117.5c-17 32.667 -41.5 58.167 -73.5 76.5s-75 27.5 -129 27.5
c-54 -0.00292969 -97 -9.16992 -129 -27.5c-32 -18.333 -56.5 -43.833 -73.5 -76.5s-28 -71.834 -33 -117.501s-7.5 -95.5 -7.5 -149.5z" />
    <glyph glyph-name="P" unicode="P" horiz-adv-x="519" 
d="M194 391v217h60c36 0 61.667 -9.33301 77 -28c15.334 -18.667 23.001 -46 23 -82c-0.000976562 -36.667 -8.83398 -63.667 -26.5 -81c-17.667 -17.333 -40.834 -26 -69.5 -26h-64zM50 714l-0.000976562 -713.998h144v285h77c34 0 65 4.33301 93 13s51.833 21.667 71.5 39
s35 39.666 46 66.999s16.5 59.333 16.5 96c-0.00195312 26.667 -3.33496 52.834 -10 78.5c-6.66699 25.667 -17.667 48.5 -33 68.499c-15.333 20 -35.5 36.167 -60.5 48.5s-55.833 18.5 -92.499 18.5h-252z" />
    <glyph glyph-name="Q" unicode="Q" 
d="M179 357c0 48 1.16602 88.668 3.49902 122.001s7 60.666 14 81.999s17 36.833 30 46.5c13 9.67188 30.167 14.5049 51.5 14.5c21.334 0 38.501 -4.83301 51.501 -14.5s23 -25.167 30 -46.5c7.00195 -21.334 11.6689 -48.667 14 -82c2.3418 -33.333 3.50879 -74 3.5 -122
c0 -48 -1.16699 -88.833 -3.5 -122.5s-7 -61 -14 -82s-17 -36.333 -30 -46s-30.167 -14.5 -51.5 -14.5s-38.5 4.83301 -51.5 14.5s-23 25 -30 46s-11.667 48.333 -14 82c-2.33496 33.667 -3.50195 74.5 -3.5 122.5zM457.999 -84.999l84.999 77.001l-77 75
c23.333 34 38.333 75.667 45 125c6.6709 49.333 10.0039 104.333 10 165c0 54 -2.5 103.833 -7.5 149.5s-16 84.834 -33 117.5c-17 32.667 -41.5 58.167 -73.5 76.5s-75 27.5 -129 27.5c-54 -0.00292969 -97 -9.16992 -129 -27.5c-32 -18.333 -56.5 -43.833 -73.5 -76.5
s-28 -71.834 -33 -117.501s-7.5 -95.5 -7.5 -149.5c0 -54.667 2.5 -104.667 7.5 -150s16 -84.333 33 -117s41.5 -57.667 73.5 -75s75 -26 129 -26c36.667 0 68.334 3.66699 95.001 11z" />
    <glyph glyph-name="R" unicode="R" 
d="M50 714v-714.001h144v302h77c30 0 51.333 -8 64 -24s19.667 -38 21 -66l4 -137c0.666992 -14 2 -27.5 4 -40.5c2.00195 -13 6.66895 -24.5 14 -34.5h156v6c-13.335 7.33301 -22.002 21 -26 41c-2.66699 20 -4.66699 49 -6 87c-0.681641 19.333 -1.34863 36.833 -2 52.5
c-0.666992 15.667 -1.66699 30.167 -3 43.5c-4.00098 40 -14.334 69 -31 87c-16.667 18 -43 29.667 -79 35v2c40.667 8.66699 70.667 28.167 90 58.5c19.334 30.334 29.001 69.501 29 117.501c0 62 -16.667 108.167 -50 138.5s-80 45.5 -140 45.5h-266zM194 401.999
l0.000976562 206h68c66.667 0 100 -33 100 -99c-0.000976562 -38.667 -9.33398 -66.167 -28 -82.5c-18.667 -16.333 -45.334 -24.5 -80.001 -24.5h-60z" />
    <glyph glyph-name="S" unicode="S" horiz-adv-x="519" 
d="M166 223l-144.003 0.00292969v-29c0 -66 17.5 -116.667 52.5 -152s93.167 -53 174.5 -53c78 0 138.833 17.167 182.5 51.5s65.5 89.166 65.5 164.499c0 22 -2 42 -6 60s-11.167 34.5 -21.5 49.5s-24.166 29 -41.499 42s-39.666 25.5 -66.999 37.5l-111 48
c-30.667 12.667 -50.667 26.5 -60 41.5c-9.33398 15 -14.001 33.5 -14.001 55.5c0 10.6689 1.16699 21.002 3.5 31c2.33301 10.002 6.66602 18.835 12.999 26.499c6.33301 7.6709 14.833 13.8379 25.5 18.5c10.667 4.67578 24 7.00879 40 6.99902
c28 -0.00195312 48 -9.16895 60 -27.5c12 -18.334 18 -44.501 18 -78.5h138v20c0 34 -5.5 63.167 -16.5 87.5s-26.333 44.333 -45.999 60c-19.667 15.668 -43 27.001 -70 34c-27 7 -56.5 10.5 -88.5 10.5c-68.667 0 -122.667 -17.333 -162 -52s-59 -87.334 -59 -158.001
c0 -29.333 3.66699 -55.166 11 -77.499s18.833 -42 34.5 -59c15.667 -17.001 35.167 -31.834 58.5 -44.5c23.333 -12.667 51 -24.334 83 -35c24 -8.00098 44.167 -15.834 60.5 -23.5c16.334 -7.66699 29.501 -16.167 39.501 -25.5
c10.001 -9.33301 17.168 -19.833 21.501 -31.5c4.33594 -11.667 6.50293 -25.5 6.5 -41.5c-0.000976562 -30 -8.83398 -52.167 -26.5 -66.5c-17.667 -14.333 -37.5 -21.5 -59.5 -21.5c-18.667 0 -34.167 2.66699 -46.5 8c-12.334 5.33301 -22.167 12.666 -29.5 21.999
s-12.333 20.833 -15 34.5s-4 28.834 -4 45.501v21z" />
    <glyph glyph-name="T" unicode="T" horiz-adv-x="480" 
d="M468 714h-456v-118h156v-596h144v596h156v118z" />
    <glyph glyph-name="U" unicode="U" horiz-adv-x="538" 
d="M185 714l-143.997 -0.000976562v-498c0 -48 6.33301 -87 19 -117s29.667 -53.167 51 -69.5s45.666 -27.166 72.999 -32.499s55.666 -8 84.999 -8s57.666 3 84.999 9c27.334 6 51.667 17.667 73 35s38.333 40.833 51 70.5s19 67.167 19 112.5v498h-144v-498
c0 -18 -1.16699 -34.5 -3.5 -49.5s-6.66602 -28 -12.999 -39s-14.833 -19.667 -25.5 -26s-24.667 -9.5 -42 -9.5c-16.667 0 -30.5 3.16699 -41.5 9.5s-19.667 15 -26 26c-6.33398 11 -10.667 24 -13 39c-2.33496 15 -3.50195 31.5 -3.50098 49.5v498z" />
    <glyph glyph-name="V" unicode="V" horiz-adv-x="519" 
d="M157 714h-154l164 -714h185l164 714h-149l-106 -528h-3z" />
    <glyph glyph-name="W" unicode="W" horiz-adv-x="760" 
d="M8 714l130 -714h161l80 518h2l80 -518h161l130 714h-138l-79 -528h-2l-84 528h-138l-84 -528h-2l-79 528h-138z" />
    <glyph glyph-name="X" unicode="X" horiz-adv-x="537" 
d="M20 714l164 -353l-178 -361h158l102 242l103 -242h162l-178 361l166 353h-157l-91 -231l-92 231h-159z" />
    <glyph glyph-name="Y" unicode="Y" horiz-adv-x="520" 
d="M165 714h-162l185 -433v-281h144v281l185 433h-156l-100 -276h-2z" />
    <glyph glyph-name="Z" unicode="Z" horiz-adv-x="481" 
d="M24 105v-105h433v118h-271l267 487v109h-411v-118h245z" />
    <glyph glyph-name="bracketleft" unicode="[" horiz-adv-x="315" 
d="M80 714v-895h229v100h-105v695h105v100h-229z" />
    <glyph glyph-name="backslash" unicode="\" horiz-adv-x="332" 
d="M0 728l223 -739h112l-226 739h-109z" />
    <glyph glyph-name="bracketright" unicode="]" horiz-adv-x="315" 
d="M6 -81v-100h229v895h-229v-100h105v-695h-105z" />
    <glyph glyph-name="asciicircum" unicode="^" horiz-adv-x="600" 
d="M56 309h124l120 247l120 -247h124l-188 385h-112z" />
    <glyph glyph-name="underscore" unicode="_" horiz-adv-x="500" 
d="M0 -122h500v50h-500v-50z" />
    <glyph glyph-name="grave" unicode="`" horiz-adv-x="222" 
d="M82 601h94l-54 144h-135z" />
    <glyph glyph-name="a" unicode="a" horiz-adv-x="481" 
d="M297 269l-0.00195312 -105.999c0 -14.667 -2.66699 -27.334 -8 -38.001s-12.166 -19.334 -20.499 -26.001s-17.5 -11.5 -27.5 -14.5s-19.667 -4.5 -29 -4.5c-18.667 0 -32 7.33301 -40 22s-12 32.334 -12 53.001c0 24 6 43 18 57s32 24 60 30
c8.66699 2 18.334 5.16699 29.001 9.5c10.667 4.33398 20.667 10.167 30 17.5zM44.998 373.001l123.997 -0.000976562v15c0 21.333 5.33301 38.333 16 51s26.667 19 48 19c23.333 -0.000976562 39.833 -5.83398 49.5 -17.5c9.66699 -11.667 14.5 -27.834 14.5 -48.5
c0 -18 -4 -31.667 -12 -41s-22.333 -16.666 -42.999 -21.999l-78 -21c-24 -6.66699 -44.5 -14.334 -61.5 -23c-17 -8.66699 -31 -19.5 -42 -32.5s-19.167 -28.667 -24.5 -47s-8 -40.166 -8 -65.499c0 -18 2.33301 -36.167 7 -54.5s12 -34.833 22 -49.5
s23.333 -26.167 40 -34.5s37 -12.5 61 -12.5c33.333 0 60.5 4.16699 81.5 12.5s39.5 26.5 55.5 54.5h2c2.00391 -9.33301 4.1709 -18.833 6.50098 -28.5c2.33301 -9.66699 5.83301 -18.834 10.5 -27.501h132c-6.66699 16 -11.167 31 -13.5 45s-3.5 33.667 -3.5 59v283
c0 24 -2.5 46.167 -7.5 66.5s-14.5 37.833 -28.5 52.5c-14 14.668 -33.667 26.001 -59 34c-25.333 8 -58.666 12 -99.999 12c-26 0 -50.5 -2.83301 -73.5 -8.5s-43 -15 -60 -28s-30.5 -30 -40.5 -51s-15 -47.167 -15 -78.5v-13z" />
    <glyph glyph-name="b" unicode="b" horiz-adv-x="500" 
d="M46 714l-0.00195312 -714h132v57h2c15.333 -25.333 32.5 -43 51.5 -53s42.5 -15 70.5 -15c56.667 0 98.334 21.667 125.001 65s40 115 40 215s-13.333 172.167 -39.999 216.5c-26.667 44.333 -68.334 66.5 -125 66.5c-26 0 -48.167 -5.33301 -66.5 -16
s-34.833 -26.667 -49.5 -48h-2v226h-138zM183.998 269c0 58.667 4.5 102.833 13.5 132.5s28.833 44.5 59.5 44.5c30 0 49.5 -14.833 58.5 -44.499c9 -29.667 13.5 -73.834 13.5 -132.501s-4.5 -102.834 -13.5 -132.501s-28.5 -44.5 -58.5 -44.5
c-30.667 0 -50.5 14.833 -59.5 44.5s-13.5 73.834 -13.5 132.501z" />
    <glyph glyph-name="c" unicode="c" horiz-adv-x="463" 
d="M305 344l131.997 -0.00195312c0 64 -16.167 114.667 -48.5 152s-80.5 56 -144.5 56c-32 0 -61.333 -4.33301 -88 -13s-49.667 -23.834 -69 -45.501s-34.333 -50.667 -45 -87s-16 -82.166 -16 -137.499c0 -54 4.33301 -99.167 13 -135.5s21.5 -65.333 38.5 -87
s38.333 -36.667 64 -45s55.834 -12.5 90.501 -12.5c73.333 0 125.833 18.5 157.5 55.5s47.5 90.833 47.5 161.5h-132c-0.000976562 -44 -5.33398 -76 -16 -96c-10.667 -20 -27.667 -30 -51 -30c-15.333 0 -27.833 3.5 -37.5 10.5s-17.167 18.167 -22.5 33.5
c-5.33398 15.333 -9.00098 34.833 -11.001 58.5s-3 52.167 -3 85.5c0 31.334 1 58.501 3 81.501s5.66699 42 11 57s13.333 26.333 24 34s24.334 11.5 41.001 11.5c13.334 0 24.001 -3.16699 32.001 -9.5c8.00098 -6.33301 14.168 -14.666 18.501 -24.999
s7.33301 -21.833 9 -34.5s2.5 -25.667 2.5 -39z" />
    <glyph glyph-name="d" unicode="d" horiz-adv-x="500" 
d="M322 57v-56.999h132v714h-138v-226h-2c-14.667 21.334 -31.167 37.334 -49.5 48c-18.333 10.6689 -40.5 16.002 -66.5 16c-56.667 -0.000976562 -98.334 -22.168 -125.001 -66.501s-40 -116.5 -40 -216.5s13.333 -171.667 40 -215s68.334 -65 125.001 -65
c28 0 51.5 5 70.5 15s36.167 27.667 51.5 53h2zM171 269.001c0 58.667 4.49902 102.833 13.499 132.5s28.5 44.5 58.5 44.5c30.667 0 50.5 -14.833 59.5 -44.499c9 -29.667 13.5 -73.834 13.5 -132.501s-4.5 -102.834 -13.5 -132.501s-28.833 -44.5 -59.499 -44.5
c-30 0 -49.5 14.833 -58.5 44.5s-13.5 73.834 -13.5 132.501z" />
    <glyph glyph-name="e" unicode="e" horiz-adv-x="463" 
d="M305 330l-140.999 -0.00195312v21c0 12.667 1.16699 25.334 3.5 38.001s6.16602 24.167 11.499 34.5c5.33301 10.334 12.5 18.667 21.5 25c9 6.33496 20.5 9.50195 34.5 9.5s25.5 -2.83496 34.5 -8.5c9 -5.66797 16 -14.001 21 -25c5 -11 8.5 -24.333 10.5 -39.999
c2 -15.667 3.33301 -33.834 4 -54.5zM164.001 247.998l273.001 -0.000976562v31c0 41.333 -2.66699 78.833 -8 112.5s-15.333 62.334 -30 86.001s-34.834 42 -60.5 55c-25.667 13 -58.5 19.5 -98.5 19.5c-46.667 -0.00292969 -84 -7.66992 -112 -23
c-28 -15.334 -49.5 -36.001 -64.5 -62.001s-25 -55.667 -30 -89s-7.5 -68 -7.5 -104c0 -34 1.5 -68 4.5 -102s11.167 -64.667 24.5 -92s34 -49.333 62 -66s67 -25 117 -25c66 0 114.333 16.333 145 49s47.334 80.334 50.001 143.001h-124
c-4.00098 -34 -11.334 -59.333 -22 -76c-10.667 -16.667 -27.667 -25 -51 -25c-12.667 0 -23.334 3.5 -32.001 10.5s-15.667 16.333 -21 28c-5.33398 11.667 -9.16699 25 -11.5 40c-2.33496 15 -3.50195 30.5 -3.50098 46.5v43z" />
    <glyph glyph-name="f" unicode="f" horiz-adv-x="296" 
d="M76 444v-444h138v444h80v94h-80v47c0 15.333 4 26.333 12 33c8 6.67188 21.667 10.0049 41 10h13c6.00195 0 10.6689 -0.333008 14.001 -1v98c-24.667 2 -49.334 3 -74.001 3c-22 -0.0107422 -42 -2.17773 -60 -6.5c-18 -4.33594 -33.167 -11.5029 -45.5 -21.5
c-12.333 -10 -21.833 -23.333 -28.5 -40s-10 -37 -10 -61v-61h-70v-94h70z" />
    <glyph glyph-name="g" unicode="g" horiz-adv-x="500" 
d="M173 252c0.000976562 36 0.836914 66.499 2.50195 91.499c1.66699 25 5.16699 45 10.5 60s12.666 25.833 21.999 32.5s21.666 10 36.999 10c27.333 0 46.166 -13.667 56.499 -41c10.335 -27.333 15.502 -73.666 15.501 -138.999c0 -22.667 -1.16699 -43.5 -3.5 -62.5
s-6.33301 -35.167 -12 -48.5s-13.334 -23.833 -23 -31.5c-9.66699 -7.66699 -21.834 -11.5 -36.5 -11.5c-14.667 0 -26.5 3.83301 -35.5 11.5s-16 18 -21 31s-8.33301 27.833 -10 44.5s-2.5 34.334 -2.5 53zM449.003 537.999l-132.002 -0.000976562v-60h-2
c-13.333 28.002 -30.333 47.335 -51 58c-20.667 10.6689 -40.667 16.002 -60 16c-37.333 0 -67.166 -8.33301 -89.499 -25s-39.333 -38.167 -51 -64.5s-19.334 -55.833 -23.001 -88.5s-5.5 -64.667 -5.5 -96c0 -98 13.833 -167.833 41.5 -209.5s68.834 -62.5 123.501 -62.5
c22 0 43.167 6 63.5 18c20.334 12 37.501 28 51.501 48h2v-71c0 -26.667 -5.66699 -49 -17 -67s-31 -27 -59 -27c-8.66699 0 -16.834 1.33301 -24.501 4s-14.834 6.33398 -21.501 11.001c-14 10 -21 23.667 -21 41h-132c0 -46 15.833 -81.5 47.5 -106.5
s76.834 -37.5 135.501 -37.5c80.667 0 138.167 17.333 172.5 52c34.334 34.667 51.501 86.667 51.501 156v511z" />
    <glyph glyph-name="h" unicode="h" horiz-adv-x="500" 
d="M46 714l-0.000976562 -714.001h138v357c0 59.334 24.333 89.001 73 89.001c20.667 0 35.667 -5.5 45 -16.5c9.33496 -11 14.002 -30.5 14.001 -58.5v-371h138v399c0 54 -11.833 93 -35.499 117c-23.667 24 -57.5 36 -101.5 36c-60.667 0 -104.334 -23 -131.001 -69h-2
v231h-138z" />
    <glyph glyph-name="i" unicode="i" horiz-adv-x="240" 
d="M51 722v-118h138v118h-138zM51 538v-538h138v538h-138z" />
    <glyph glyph-name="j" unicode="j" horiz-adv-x="240" 
d="M51 722v-118h138v118h-138zM51 538l0.000976562 -528.001c0 -28 -2.83301 -48.833 -8.5 -62.5s-19.834 -20.5 -42.501 -20.5h-11c-3.33301 0 -7 0.666992 -11 2.00098v-100c10 -0.666992 19.333 -1.16699 28 -1.5c8.66699 -0.328125 17 -0.495117 25 -0.5
c30.667 0 56.167 3 76.5 9s36.5 14.833 48.5 26.5s20.5 26.167 25.5 43.5s7.5 37.333 7.5 60v572h-138z" />
    <glyph glyph-name="k" unicode="k" horiz-adv-x="500" 
d="M189 714h-138v-714h138v157l49 64l115 -221h152l-178 326l155 212h-152l-139 -201h-2v377z" />
    <glyph glyph-name="l" unicode="l" horiz-adv-x="240" 
d="M51 714v-714h138v714h-138z" />
    <glyph glyph-name="m" unicode="m" horiz-adv-x="758" 
d="M46 538l0.000976562 -538h138v354c0 32 6.5 55.333 19.5 70s30.5 22 52.5 22c19.334 0 33.167 -6 41.5 -18c8.33496 -12 12.502 -29.333 12.501 -51.999v-376h138v354c0 32 6.5 55.333 19.5 70s30.5 22 52.5 22c19.333 0 33.166 -6 41.499 -18s12.5 -29.333 12.5 -51.999
v-376h138v391c0 52 -10.833 91.833 -32.5 119.5c-21.667 27.668 -55.5 41.501 -101.5 41.5c-32.667 -0.00292969 -60.834 -7.16992 -84.501 -21.5c-23.667 -14.335 -40.834 -35.835 -51.5 -64.5h-2c-7.33301 28 -21.833 49.333 -43.5 63.999
c-21.667 14.6699 -48.5 22.0029 -80.5 22c-30 0 -55.833 -5.33301 -77.5 -16s-41.167 -28.334 -58.5 -53.001h-2v55h-132z" />
    <glyph glyph-name="n" unicode="n" horiz-adv-x="500" 
d="M46 538l-0.00195312 -538.001h138v357c0 59.334 24.333 89.001 73 89.001c20.667 0 35.667 -5.5 45 -16.5c9.33496 -11 14.002 -30.5 14.001 -58.5v-371h138v399c0 54 -11.833 93 -35.499 117c-23.667 24 -57.5 36 -101.5 36c-30 -0.00195312 -56.667 -6.16895 -80 -18.5
c-23.333 -12.335 -42.333 -31.835 -57 -58.5h-2v63h-132z" />
    <glyph glyph-name="o" unicode="o" horiz-adv-x="480" 
d="M166 269c0 27.333 0.667969 52.666 2.00098 75.999s4.5 43.333 9.5 60s12.5 29.667 22.5 39c10 9.33594 23.333 14.0029 40 14c28 0 47.333 -14.667 58 -44s16 -77.666 16 -144.999c-0.000976562 -67.333 -5.33398 -115.666 -16 -144.999
c-10.667 -29.333 -30 -44 -58 -44c-16.667 0 -30 4.66699 -40 14s-17.5 22.333 -22.5 39s-8.16699 36.667 -9.5 60c-1.33496 23.333 -2.00195 48.666 -2.00098 75.999zM28.001 269c0 -46.667 3.33301 -87.832 10 -123.499s18 -65.334 34 -89.001s37.667 -41 65 -52
s61.666 -16.167 102.999 -15.5c39.333 0 72.5 5.66699 99.5 17s48.833 28.833 65.5 52.5s28.667 53.167 36 88.5c7.33594 35.333 11.0029 76 11 122c-0.00195312 47.333 -3.33496 88.666 -10 123.999c-6.66699 35.334 -18 65.001 -34 89.001
c-16 24.002 -37.667 41.835 -65 53.5c-27.333 11.667 -61.666 17.167 -102.999 16.5c-39.333 -0.00195312 -72.5 -6.16895 -99.5 -18.5c-27 -12.334 -48.833 -30.334 -65.5 -54c-16.667 -23.667 -28.667 -53.167 -36 -88.5s-11 -76 -11 -122z" />
    <glyph glyph-name="p" unicode="p" horiz-adv-x="500" 
d="M46 538l-0.00195312 -711h138v223h2c14.667 -21.333 31.167 -36.833 49.5 -46.5s40.5 -14.5 66.5 -14.5c56.667 0 98.334 21.667 125.001 65s40 115 40 215s-13.333 172.167 -39.999 216.5c-26.667 44.333 -68.334 66.5 -125 66.5c-28 0 -51.5 -5.5 -70.5 -16.5
s-36.167 -29.167 -51.5 -54.5h-2v57h-132zM183.998 269c0 58.667 4.5 102.833 13.5 132.5s28.833 44.5 59.5 44.5c30 0 49.5 -14.833 58.5 -44.499c9 -29.667 13.5 -73.834 13.5 -132.501s-4.5 -102.834 -13.5 -132.501s-28.5 -44.5 -58.5 -44.5
c-30.667 0 -50.5 14.833 -59.5 44.5s-13.5 73.834 -13.5 132.501z" />
    <glyph glyph-name="q" unicode="q" horiz-adv-x="500" 
d="M316 50v-222.999h138v711h-132v-57h-2c-15.333 25.334 -32.5 43.501 -51.5 54.5c-19 11 -42.5 16.5 -70.5 16.5c-56.667 -0.000976562 -98.334 -22.168 -125.001 -66.501s-40 -116.5 -40 -216.5s13.333 -171.667 40 -215s68.334 -65 125.001 -65
c26 0 48.167 4.83301 66.5 14.5s34.833 25.167 49.5 46.5h2zM316 269.001c0 -58.667 -4.50098 -102.835 -13.501 -132.502s-28.833 -44.5 -59.499 -44.5c-30 0 -49.5 14.833 -58.5 44.5s-13.5 73.834 -13.5 132.501s4.5 102.834 13.5 132.501s28.5 44.5 58.5 44.5
c30.667 0 50.5 -14.833 59.5 -44.499c9 -29.667 13.5 -73.834 13.5 -132.501z" />
    <glyph glyph-name="r" unicode="r" horiz-adv-x="333" 
d="M46 538v-538.002h138v323c0 18.001 3 33.168 9 45.501s14 22.333 24 30s21 13.167 33 16.5c12 3.33691 24 5.00391 36 5.00098c7.33398 0 14.501 -0.166992 21.5 -0.5c7.00098 -0.333008 14.168 -0.833008 21.5 -1.5v132c-4 0.666992 -8.16699 1.16699 -12.5 1.5
s-8.5 0.5 -12.5 0.5c-28.667 0 -53 -7.83301 -73 -23.5s-37 -36.5 -51 -62.5h-2v72h-132z" />
    <glyph glyph-name="s" unicode="s" horiz-adv-x="444" 
d="M147 176l-124.001 -0.000976562v-19c0 -26 3 -49.5 9 -70.5s16.5 -38.833 31.5 -53.5s35.333 -25.667 61 -33s57.834 -11 96.501 -11c29.333 0 56.166 3 80.499 9s45.333 16 63 30s31.5 31.5 41.5 52.5s15 45.833 15 74.5c0 40.667 -9 72.834 -27 96.501
s-48.667 42.834 -92 57.501l-83 28c-23.333 7.33301 -39.166 16.333 -47.499 27c-8.33398 10.667 -12.501 22.667 -12.501 36c0 19.333 6.5 33.833 19.5 43.5s28.167 14.5 45.5 14.5c22.667 0 38.5 -6.5 47.5 -19.5s13.5 -33.5 13.5 -61.5h124v22
c0 48.667 -15 86.334 -45 113.001c-30 26.668 -76.333 40.001 -139 40c-35.333 0 -65.5 -4.33301 -90.5 -13s-45.5 -20.334 -61.5 -35.001s-27.667 -31.834 -35 -51.5c-7.33301 -19.667 -11 -40.5 -11 -62.5c0 -38 9.66699 -69.167 29 -93.5s48 -43.166 86 -56.499l97 -35
c13.333 -5.33398 25 -12.501 35 -21.501s15 -22.167 15 -39.5c-0.000976562 -21.333 -6.33398 -37.333 -19 -48c-12.667 -10.667 -29.667 -16 -51 -16c-23.333 0 -41.166 7.16699 -53.499 21.5s-18.5 33.166 -18.5 56.499v18z" />
    <glyph glyph-name="t" unicode="t" horiz-adv-x="296" 
d="M76 692v-154h-70v-94h70v-308c0 -27.333 1.66699 -50 5 -68s9.5 -32.5 18.5 -43.5s22 -18.333 39 -22s38.833 -5.5 65.5 -5.5c16 0 31.167 0.5 45.5 1.5c14.334 1 29.167 1.5 44.5 1.5v96c-4.66699 -0.666992 -9.66699 -1.16699 -15 -1.5s-10.666 -0.5 -15.999 -0.5
c-20 0 -33.167 4.5 -39.5 13.5c-6.33398 9 -9.50098 24.167 -9.50098 45.5v291h80v94h-80v154h-138z" />
    <glyph glyph-name="u" unicode="u" horiz-adv-x="500" 
d="M322 63l0.000976562 -63h132v538h-138v-357c0 -59.333 -24.333 -89 -73 -89c-20.667 0 -35.667 5.5 -45 16.5c-9.33398 11 -14.001 30.5 -14.001 58.5v371h-138v-399c0 -54 11.833 -92.5 35.5 -115.5s57.5 -34.5 101.5 -34.5c30 0 56.667 5.66699 80 17
s42.333 30.333 57 57h2z" />
    <glyph glyph-name="v" unicode="v" horiz-adv-x="444" 
d="M301 538l-73 -385h-2l-77 385h-144l139 -538h160l135 538h-138z" />
    <glyph glyph-name="w" unicode="w" horiz-adv-x="704" 
d="M7 538l117 -538h160l67 382h2l71 -382h157l116 538h-132l-65 -382h-2l-71 382h-150l-67 -382h-2l-63 382h-138z" />
    <glyph glyph-name="x" unicode="x" horiz-adv-x="462" 
d="M305 538l-74 -162l-74 162h-144l140 -261l-146 -277h144l80 176l80 -176h144l-146 277l140 261h-144z" />
    <glyph glyph-name="y" unicode="y" horiz-adv-x="444" 
d="M46 -70v-103.001h56c32 -0.000976562 58.5 2.33203 79.5 7c21 4.66699 39 14.5 54 29.5s28 36.333 39 64s22.5 63.834 34.5 108.501l130 502h-138l-70 -372h-2l-80 372h-144l151 -538c-2 -22 -8.5 -39.667 -19.5 -53s-29.167 -20 -54.5 -20c-12 0 -24 1 -36 3z" />
    <glyph glyph-name="z" unicode="z" horiz-adv-x="426" 
d="M24 106v-106h378v112h-215l215 320v106h-368v-112h205z" />
    <glyph glyph-name="braceleft" unicode="{" horiz-adv-x="315" 
d="M30 306v-81.999c16.667 0 31.834 -7.66699 45.501 -23c13.667 -15.334 20.5 -34.667 20.5 -58v-190c0 -42.667 8.83301 -75.667 26.5 -99s43.5 -35 77.5 -35h89v100h-30c-16 0 -26.5 7.16699 -31.5 21.5s-7.5 31.166 -7.5 50.499v163c0 30 -6.66699 54.833 -20 74.5
s-30.666 31.5 -51.999 35.5v2c21.333 4 38.666 15.833 51.999 35.5s20 44.5 20 74.5v166c0 19.333 2.5 36.166 7.5 50.499s15.5 21.5 31.5 21.5h30v100h-89c-34 -0.000976562 -59.833 -11.668 -77.5 -35c-17.667 -23.333 -26.5 -56.333 -26.5 -99v-193
c0 -23.333 -6.83301 -42.666 -20.5 -57.999s-28.834 -23 -45.501 -23z" />
    <glyph glyph-name="bar" unicode="|" horiz-adv-x="222" 
d="M49 728v-739h124v739h-124z" />
    <glyph glyph-name="braceright" unicode="}" horiz-adv-x="315" 
d="M26 -81v-100h89c34 0 59.833 11.667 77.5 35s26.5 56.333 26.5 99v190c0 23.333 6.83301 42.666 20.499 57.999c13.667 15.333 28.834 23 45.501 23v82c-16.667 0.000976562 -31.834 7.66797 -45.5 23.001c-13.667 15.334 -20.5 34.667 -20.5 58v193
c0 42.667 -8.83301 75.667 -26.5 99s-43.5 35 -77.5 35h-89v-100h30c16 -0.00390625 26.5 -7.1709 31.5 -21.501c5 -14.334 7.5 -31.167 7.5 -50.5v-166c0 -30 6.66699 -54.833 20 -74.5s30.666 -31.5 51.999 -35.5v-2c-21.333 -4 -38.666 -15.833 -51.999 -35.5
s-20 -44.5 -20 -74.5v-163c0 -19.333 -2.5 -36.166 -7.5 -50.499s-15.5 -21.5 -31.5 -21.5h-30z" />
    <glyph glyph-name="asciitilde" unicode="~" horiz-adv-x="600" 
d="M531 243l-35.999 106.002c-2.66895 -6 -7.00195 -13 -13 -21c-6 -8 -13.167 -15.5 -21.5 -22.5c-8.33301 -7.00098 -17.166 -12.834 -26.499 -17.5c-9.33301 -4.66895 -19 -7.00195 -29 -7c-14 0 -28 2.83301 -42 8.5s-34.667 15.834 -62 30.501
c-37.333 19.334 -73.666 29.001 -108.999 29c-30 0 -54.667 -8 -74 -24s-35.666 -36.667 -48.999 -62l36 -106c2.66699 6 7 13 13 21s13.167 15.5 21.5 22.5s17.166 12.833 26.499 17.499c9.33301 4.66797 19 7.00098 29 7c5.33301 0 10.666 -0.333008 15.999 -1
s11.5 -2.33398 18.5 -5.00098s15.333 -6.16699 24.999 -10.5c9.66699 -4.33398 21.5 -10.167 35.5 -17.5c19.334 -10 38.167 -18.167 56.5 -24.5c18.333 -6.33398 38.833 -9.50098 61.5 -9.50098c30 0 54.667 8 74 24s35.666 36.667 48.999 62z" />
    <glyph glyph-name="nonbreakingspace" unicode="&#xa0;" horiz-adv-x="240" 
 />
    <glyph glyph-name="exclamdown" unicode="&#xa1;" horiz-adv-x="296" 
d="M79 538v-132h138v132h-138zM79 56v-229h138v229l-19 283h-100z" />
    <glyph glyph-name="cent" unicode="&#xa2;" horiz-adv-x="480" 
d="M222 -11l0.00195312 -88.001h52v88c62 7.33301 106.333 29.166 133 65.499s40 87.833 40 154.5h-132c-0.00976562 -10 -0.342773 -21 -1 -33c-0.668945 -12 -2.33594 -23.667 -5 -35c-2.66699 -11.333 -6.66699 -21.833 -12 -31.5s-13 -17.5 -23 -23.5v366
c9.33398 -3.33301 16.667 -8.83301 22 -16.5s9.33301 -16.167 12 -25.5s4.5 -19.5 5.5 -30.5s1.5 -21.5 1.5 -31.5h132c0 40.667 -5 73.834 -15 99.501s-23.167 46 -39.5 61s-34.833 25.667 -55.5 32s-41.667 10.166 -63 11.499v76h-52v-76
c-40 -3.33594 -72.333 -13.0029 -97 -29c-24.667 -16 -43.834 -36.833 -57.501 -62.499c-13.667 -25.667 -22.834 -55.167 -27.501 -88.5s-7 -69 -7 -107c0 -56 4.83301 -101.667 14.5 -137s23 -63.166 40 -83.499s37 -34.333 60 -42s47.833 -12.167 74.5 -13.5z
M222.002 451.999v-366.001c-12.667 4 -22.5 12.167 -29.5 24.5s-12 27 -15 44s-4.83301 35.667 -5.5 56s-1 40.5 -1 60.5c0 52 3 93.167 9 123.5c6 30.334 20 49.501 42 57.501z" />
    <glyph glyph-name="sterling" unicode="&#xa3;" horiz-adv-x="480" 
d="M9 388l0.00585938 -81.9951h102c7.33301 -18.667 11 -35 11 -49c0 -34 -10.833 -66.5 -32.5 -97.5s-49.834 -57.5 -84.501 -79.5l41 -83c20 8 37.167 14.167 51.5 18.5s29.833 6.5 46.5 6.5c15.333 0 31.166 -1.83301 47.499 -5.5s32.5 -7.33398 48.5 -11.001
s31.333 -7.33398 46 -11.001s28 -5.5 40 -5.5c50 0 99.667 15 149 45l-44 94c-22 -14.667 -42.167 -25.334 -60.5 -32.001s-32.833 -10 -43.5 -10c-8.66699 0 -18.167 1.5 -28.5 4.5s-20.666 6.5 -30.999 10.5s-20.333 7.5 -30 10.5s-17.834 4.5 -24.501 4.5
c-7.33301 0 -15.833 -0.833008 -25.5 -2.49902c-9.66699 -1.66699 -16.167 -3.16699 -19.5 -4.5l-4 2c33.333 28 56.666 53.667 69.999 77s20 49.666 20 78.999c-0.000976562 16 -1.66797 29 -5 39h141v82h-167l-28 57c-9.33398 19.333 -16.001 37.333 -20.001 54
s-6 28.667 -6 36c0 20 6.16699 38.167 18.5 54.5s34.166 24.5 65.499 24.5c14.667 0 27 -3 37 -9c10 -6.00293 18 -14.1699 24 -24.5c6 -10.333 10.333 -22.333 13 -36s4 -28.167 4 -43.5h132c-1.33301 72.667 -20.833 125.334 -58.5 158
c-37.667 32.6689 -90.834 49.002 -159.501 49c-36 -0.0078125 -67.333 -4.6748 -94 -14c-26.667 -9.33496 -49 -22.002 -67 -38.001c-18 -16 -31.333 -34.833 -40 -56.5s-13 -44.834 -13 -69.501c0 -36.667 15 -84 45 -142h-67z" />
    <glyph glyph-name="currency" unicode="&#xa4;" horiz-adv-x="480" 
d="M117 347c0 40 11 71.5 33 94.5s52 34.5 90 34.5s68 -11.5 90 -34.5s33 -54.5 33 -94.5s-11 -71.5 -33 -94.5s-52 -34.5 -90 -34.5s-68 11.5 -90 34.5s-33 54.5 -33 94.5zM0 169l61 -62.001l51 51c37.333 -26.667 80 -40 128 -40c24 0 46.833 3.5 68.5 10.5
s41.5 16.833 59.5 29.5l51 -51l61 62l-50 50c12.667 18.667 22.334 38.834 29.001 60.501s10 44.167 10 67.5c-0.00195312 23.333 -3.33496 45.833 -10 67.5c-6.66797 21.667 -16.335 41.834 -29 60.501l50 50l-61 62l-51 -50c-18 12 -37.833 21.5 -59.499 28.5
c-21.667 7 -44.5 10.5 -68.5 10.5c-23.333 0 -45.833 -3.33301 -67.5 -10s-41.834 -16.334 -60.501 -29.001l-51 50l-61 -62l50 -50c-12.667 -18.668 -22.334 -38.835 -29.001 -60.501c-6.66699 -21.667 -10 -44.167 -10 -67.5c0 -24 3.5 -46.833 10.5 -68.499
c7 -21.667 16.5 -41.5 28.5 -59.5z" />
    <glyph glyph-name="yen" unicode="&#xa5;" horiz-adv-x="480" 
d="M178 159v-159h124v159h142v82h-142v43l11 23h131v82h-92l145 305h-144l-112 -269h-2l-107 269h-146l142 -305h-92v-82h131l11 -23v-43h-142v-82h142z" />
    <glyph glyph-name="brokenbar" unicode="&#xa6;" horiz-adv-x="222" 
d="M49 728v-271h124v271h-124zM49 257v-268h124v268h-124z" />
    <glyph glyph-name="section" unicode="&#xa7;" horiz-adv-x="481" 
d="M264 218l-99.001 54c-11.333 6.00098 -19.833 14.168 -25.5 24.501c-5.66699 10.335 -8.5 20.168 -8.5 29.5c0 12.667 4.33301 25.5 12.999 38.5c8.66699 13 22.667 25.167 42 36.5l96 -51c25.334 -13.333 43.001 -26 53.001 -38s15 -26.667 15 -44
c0 -10.667 -3.5 -22.167 -10.5 -34.5s-19.167 -25.833 -36.5 -40.5c-6 4.66699 -12.167 9 -18.5 12.999c-6.33301 4 -13.166 8 -20.499 12zM169.999 37h-132.002v-15c0 -51.333 16.5 -92.666 49.5 -123.999s83.833 -47 152.5 -47c64.667 0 114.834 14 150.501 42
s53.5 71.333 53.5 130c-0.00195312 30 -4.83496 54.833 -14.5 74.5c-9.66699 19.667 -22.834 36.167 -39.5 49.5c12 6.66699 22.667 15.5 32 26.5c9.33496 11 17.502 23 24.501 36c7 13 12.333 26.5 16 40.5s5.5 27 5.5 39c0 43.333 -10.667 77.666 -32 102.999
s-47.333 45.333 -78 60l-119 56c-23.333 11.333 -39.833 22.833 -49.5 34.5s-14.5 23.167 -14.5 34.5c0 16 5.5 29.5 16.5 40.5s26.167 16.5 45.5 16.5c26.667 0 45 -6.33301 55 -19c9.33496 -12.667 14.002 -29 14 -49h132c0 23.333 -3.5 45 -10.5 65
s-18.167 37.167 -33.5 51.5s-35 25.5 -59 33.5s-53 12 -87 12c-28.667 0 -55.5 -3 -80.5 -9c-25 -6.00293 -46.667 -15.6699 -65 -29.001c-18.333 -13.333 -32.833 -30.333 -43.5 -51s-16 -46 -16 -76c0 -46 20 -84 60 -114c-28 -14 -50 -33.333 -66 -57.999
c-16 -24.667 -24 -53 -24 -85s8.16699 -61.167 24.5 -87.5s43.5 -48.5 81.5 -66.5l123 -59c23.333 -11.333 39.833 -23.5 49.5 -36.5s14.5 -28.833 14.5 -47.5c0 -14.667 -5.16699 -29 -15.5 -43s-27.166 -21 -50.499 -21c-20 0 -36.667 7 -50 21
c-13.334 14 -20.001 32.667 -20.001 56v15z" />
    <glyph glyph-name="dieresis" unicode="&#xa8;" horiz-adv-x="222" 
d="M141 728v-118h112v118h-112zM-28 728v-118h109v118h-109z" />
    <glyph glyph-name="copyright" unicode="&#xa9;" horiz-adv-x="800" 
d="M29 357c0 -51.333 9.66699 -99.5 29 -144.5s45.833 -84.167 79.5 -117.5s73 -59.333 118 -78s93.167 -28 144.5 -28s99.5 9.33301 144.5 28c45.001 18.667 84.334 44.667 118 78c33.667 33.333 60.167 72.5 79.5 117.5s29 93.167 29 144.5
c-0.00390625 51.333 -9.6709 99.5 -29 144.5c-19.333 45.001 -45.833 84.334 -79.5 118c-33.667 33.667 -73 60.167 -118 79.5s-93.167 29 -144.5 29c-51.333 -0.00292969 -99.5 -9.66992 -144.5 -29c-45 -19.333 -84.333 -45.833 -118 -79.5s-60.167 -73 -79.5 -118
s-29 -93.167 -29 -144.5zM141 357c0 36 6.50098 70.166 19.501 102.499c13 32.334 31 60.501 54 84.501s50.333 43 82 57s66.167 21 103.5 21s71.833 -7 103.5 -21s59 -33 81.999 -57c23 -24 41 -52.167 54 -84.5s19.5 -66.5 19.5 -102.5s-6.5 -70.167 -19.5 -102.5
s-31 -60.5 -54 -84.5s-50.333 -43 -82 -57s-66.167 -21 -103.5 -21s-71.833 7 -103.5 21s-59 33 -82 57s-41 52.167 -54 84.5s-19.5 66.5 -19.5 102.5zM595.001 297.999h-100.003c-3.33301 -21.333 -12.833 -38.333 -28.5 -51s-35.834 -19 -60.5 -19
c-16 0 -30.5 3.5 -43.5 10.5s-24 16.5 -33 28.5c-9.00098 12 -15.834 26 -20.5 42c-4.66992 16 -7.00293 33 -6.99902 51c0 38 8.83301 69.5 26.5 94.5s43.834 37.5 78.501 37.5c25.334 -0.000976562 45.001 -6.33398 59 -19c14.001 -12.667 23.668 -28.667 29 -48h96
c-3.33301 25.334 -10.333 47.501 -21 66.501c-10.667 19.002 -24 34.835 -40 47.5c-16 12.6689 -34.167 22.3359 -54.5 29c-20.333 6.6709 -41.5 10.0039 -63.5 10c-32 -0.00195312 -60.667 -5.66895 -86 -17c-25.333 -11.334 -46.666 -26.667 -63.999 -46
s-30.666 -42.333 -39.999 -69c-9.33398 -26.667 -14.001 -55.334 -14.001 -86.001c0 -30 4.83301 -58.333 14.499 -85c9.66699 -26.667 23.5 -49.834 41.5 -69.501s39.667 -35.167 65 -46.5c25.334 -11.333 54.001 -17 86.001 -17c21.334 0 42.001 3.5 62 10.5
c20 7 38 17 54 30s29.667 29.333 41 49s19 41.834 23 66.501z" />
    <glyph glyph-name="ordfeminine" unicode="&#xaa;" horiz-adv-x="314" 
d="M193 537l0.00195312 -59c0 -17.333 -5.66699 -29.5 -17 -36.5s-22.666 -10.5 -33.999 -10.5c-11.333 0.00292969 -19.5 4.16992 -24.5 12.501c-5 8.33496 -7.5 18.168 -7.5 29.5c0 13.334 3.66699 24.001 11 32c7.33301 8 19.666 13.667 36.999 17
c5.33301 1.33301 11.166 3.16602 17.499 5.49902s12.166 5.5 17.499 9.5zM293.002 437l0.00292969 172.001c0 14.668 -1.66699 28.001 -5 40c-3.33301 12.0029 -9.83301 22.3359 -19.5 31c-9.66699 8.66895 -23.334 15.502 -41.001 20.499
c-17.667 5 -40.834 7.5 -69.501 7.5c-40.667 0 -73.667 -7.33301 -99 -22s-38 -40.334 -38 -77.001v-13h94v9c0 11.333 3.5 20.666 10.5 27.999s17.167 11 30.5 11c24.667 0 37 -12.333 37 -37c0 -8.66699 -2.66699 -15.667 -8 -21
c-5.33301 -5.33789 -14.666 -9.6709 -27.999 -13l-58 -12c-32 -6.66699 -54.833 -17.334 -68.5 -32.001s-20.5 -38 -20.5 -70c0 -10.667 1.5 -21.5 4.5 -32.5c3 -11.001 8 -20.834 15 -29.5c7 -8.66699 16.167 -15.834 27.5 -21.5c11.333 -5.66797 25.333 -8.50098 42 -8.5
c23.333 0.000976562 42 2.66797 56 8c14 5.33398 26.667 16.667 38 34c1.33301 -5.33301 2.66602 -11.166 3.99902 -17.499s3.66602 -12.166 6.99902 -17.499h100c-4.66699 10.001 -7.66699 19.168 -9 27.501c-1.33301 8.33398 -2 20.167 -2 35.5z" />
    <glyph glyph-name="guillemotleft" unicode="&#xab;" horiz-adv-x="426" 
d="M52 370v-162l149 -120v132l-79 69l79 69v132zM225 370v-162l149 -120v132l-79 69l79 69v132z" />
    <glyph glyph-name="logicalnot" unicode="&#xac;" horiz-adv-x="600" 
d="M429 300v-202h124v326h-506v-124h382z" />
    <glyph glyph-name="registered" unicode="&#xae;" horiz-adv-x="800" 
d="M141 357c0 36 6.50098 70.166 19.501 102.499c13 32.334 31 60.501 54 84.501s50.333 43 82 57s66.167 21 103.5 21s71.833 -7 103.5 -21s59 -33 81.999 -57c23 -24 41 -52.167 54 -84.5s19.5 -66.5 19.5 -102.5s-6.5 -70.167 -19.5 -102.5s-31 -60.5 -54 -84.5
s-50.333 -43 -82 -57s-66.167 -21 -103.5 -21s-71.833 7 -103.5 21s-59 33 -82 57s-41 52.167 -54 84.5s-19.5 66.5 -19.5 102.5zM29.001 356.999c0 -51.333 9.66797 -99.5 29.001 -144.5s45.833 -84.167 79.5 -117.5s73 -59.333 118 -78s93.167 -28 144.5 -28
s99.5 9.33301 144.5 28c45.001 18.667 84.334 44.667 118 78c33.667 33.333 60.167 72.5 79.5 117.5s29 93.167 29 144.5c-0.00488281 51.333 -9.67188 99.5 -29.001 144.5c-19.333 45.001 -45.833 84.334 -79.5 118c-33.667 33.667 -73 60.167 -118 79.5
s-93.167 29 -144.5 29c-51.333 -0.00292969 -99.5 -9.66992 -144.5 -29c-45 -19.333 -84.333 -45.833 -118 -79.5s-60.167 -73 -79.5 -118s-29 -93.167 -29 -144.5zM343.002 387.999l-0.000976562 98.998h58c8 0 16.5 -0.5 25.5 -1.5s17.333 -3.16699 25 -6.5
s13.834 -8.16602 18.501 -14.499s7 -15.166 7 -26.499c-0.000976562 -21.333 -6.33398 -35 -19 -41c-12.667 -6 -28.667 -9 -48 -9h-67zM255.001 556.997v-400.001h88v161h32l94 -161h96l-99 165c28 3.33398 51.5 14.167 70.5 32.5c19 18.334 28.5 44.501 28.5 78.501
c-0.000976562 40 -12.668 70.667 -38 92c-25.333 21.333 -64 32 -116 32h-156z" />
    <glyph glyph-name="macron" unicode="&#xaf;" horiz-adv-x="222" 
d="M258 714h-291v-76h291v76z" />
    <glyph glyph-name="degree" unicode="&#xb0;" horiz-adv-x="400" 
d="M128 560c0 20 7 37 21 51s31 21 51 21s37 -7 51 -21s21 -31 21 -51s-7 -37 -21 -51s-31 -21 -51 -21s-37 7 -51 21s-21 31 -21 51zM52 560c0 -20.667 3.83203 -40 11.499 -58s18.167 -33.667 31.5 -47s29 -23.833 47 -31.5c18 -7.66895 37.333 -11.502 58 -11.5
c20.667 0 40 3.83301 58 11.5s33.667 18.167 47 31.5c13.333 13.334 23.833 29.001 31.5 47c7.66699 18.001 11.5 37.334 11.5 58c-0.000976562 20.668 -3.83398 40.001 -11.499 58c-7.66699 18 -18.167 33.667 -31.5 47s-29 23.833 -47 31.5
c-18 7.6748 -37.333 11.5078 -58 11.5c-20.667 0 -40 -3.83301 -58 -11.5s-33.667 -18.167 -47 -31.5c-13.333 -13.335 -23.833 -29.002 -31.5 -47c-7.66699 -18 -11.5 -37.333 -11.5 -58z" />
    <glyph glyph-name="plusminus" unicode="&#xb1;" horiz-adv-x="600" 
d="M47 124v-124h506v124h-506zM238 506v-108h-191v-124h191v-108h124v108h191v124h-191v108h-124z" />
    <glyph glyph-name="twosuperior" unicode="&#xb2;" horiz-adv-x="312" 
d="M0 280l311.998 0.000976562v82h-176c2 8 7 17.333 15 28s20.667 22.667 38 36l57 44c26 20 43.5 39.833 52.5 59.5s13.5 43.167 13.5 70.5c0 32.667 -11.833 58.834 -35.499 78.5c-23.667 19.6709 -62.5 29.5039 -116.5 29.5c-57.333 0 -98.333 -10.833 -123 -32.5
s-37 -52.167 -37 -91.5v-25h106c0 8.00195 0.666992 16.335 2 25c1.33301 8.66895 3.83301 16.502 7.5 23.5c3.66699 7.00195 8.83398 12.835 15.501 17.499c6.66699 4.67578 15.334 7.00879 26.001 6.99902c13.333 0 23.833 -4.5 31.5 -13.5
c7.66699 -9.00098 11.5 -20.168 11.499 -33.5c0 -15.334 -3.33301 -29.167 -10 -41.499c-6.66699 -12.334 -19.667 -25.501 -39 -39.5l-50 -36c-38 -26.667 -64.333 -55.167 -79 -85.5s-22 -64.5 -22 -102.5z" />
    <glyph glyph-name="threesuperior" unicode="&#xb3;" horiz-adv-x="312" 
d="M106 416h-105.996v-10c0 -42 11.333 -74.667 34 -98s59 -35 109 -35c36 0 65 4 87 12s39.167 18.333 51.5 31c12.334 12.667 20.501 26.667 24.5 42c4 15.334 6 30.001 6 44c0 26.667 -6.16699 48.667 -18.5 66c-12.333 17.334 -33.5 28.667 -63.5 34v2
c22 4.66699 39.167 15.167 51.5 31.5c12.334 16.333 18.501 37.5 18.5 63.5c0 38 -12.167 65.667 -36.5 83s-61.5 26 -111.5 26c-24 -0.00585938 -45.167 -2.67285 -63.5 -8.00098c-18.333 -5.33496 -33.5 -13.668 -45.5 -25c-24 -22.667 -36 -57 -36 -103h100
c0 16 3 30 9 42s18.333 18 37 18c12 -0.00488281 21.833 -4.17188 29.5 -12.5c7.66699 -8.33301 11.5 -18.833 11.499 -31.5c-0.000976562 -13.334 -4.16797 -25.501 -12.501 -36.5c-8.33301 -11 -22.166 -16.5 -41.499 -16.5h-28v-70h28c13.333 0 23.833 -2 31.5 -6
s13.667 -9 18 -15s7.16602 -12.667 8.49902 -20s2 -14.666 2 -21.999c0 -14.667 -3.5 -27.167 -10.5 -37.5s-18.5 -15.5 -34.5 -15.5c-18.667 0 -31.334 6.5 -38.001 19.5s-10.334 28.833 -11.001 47.5z" />
    <glyph glyph-name="acute" unicode="&#xb4;" horiz-adv-x="222" 
d="M100 745l-54 -144h94l98 144h-138z" />
    <glyph glyph-name="mu" unicode="&#xb5;" horiz-adv-x="500" 
d="M316 538l-0.000976562 -357c0 -59.333 -24.333 -89 -72.999 -89c-20.667 0 -35.667 5.5 -45 16.5c-9.33398 11 -14.001 30.5 -14.001 58.5v371h-138v-711h138v170c3.33301 -2 7.33301 -3.83301 12 -5.5s10.667 -2.5 18 -2.5c16.667 0 34.834 5.66699 54.5 17
c19.667 11.333 36.834 30.333 51.501 57h2v-63h132v538h-138z" />
    <glyph glyph-name="paragraph" unicode="&#xb6;" horiz-adv-x="480" 
d="M182 335l-0.00195312 -469.999h106v755h73v-755h106v849h-268c-29.333 0 -56.166 -2.83301 -80.499 -8.5s-45.166 -15.834 -62.499 -30.501s-30.833 -34.5 -40.5 -59.5s-14.5 -56.5 -14.5 -94.5c0 -60.667 15.167 -106.834 45.5 -138.5
c30.333 -31.667 75.5 -47.5 135.5 -47.5z" />
    <glyph glyph-name="periodcentered" unicode="&#xb7;" horiz-adv-x="240" 
d="M23 282c0 -28 9.16699 -51.166 27.5 -69.499c18.333 -18.334 41.5 -27.501 69.5 -27.501s51.167 9.16699 69.5 27.5s27.5 41.5 27.5 69.5s-9.16699 51.167 -27.5 69.5c-18.333 18.334 -41.5 27.501 -69.5 27.5c-28 0 -51.167 -9.16699 -69.5 -27.5
s-27.5 -41.5 -27.5 -69.5z" />
    <glyph glyph-name="cedilla" unicode="&#xb8;" horiz-adv-x="222" 
d="M147 0l-54.001 0.00195312l-55 -89l22 -20c5.33301 2 10.5 3.5 15.5 4.5s11.167 1.5 18.5 1.5c13.333 0 24 -3.16699 32 -9.5s12 -14.5 12 -24.5c0 -9.33301 -4.83301 -17.333 -14.5 -24s-21.5 -10 -35.5 -10c-12.667 0 -25.5 1.5 -38.5 4.5s-23.167 6.5 -30.5 10.5
l-19 -46c8 -4.66699 21.167 -9 39.5 -13s38.5 -6 60.5 -6c40.667 0 71.834 8.16699 93.501 24.5s32.5 39.5 32.5 69.5c0 12 -2.5 22.5 -7.5 31.5s-11.5 16.667 -19.5 23s-17 11.166 -27 14.499s-20 5 -30 5c-6 0 -11.5 -0.5 -16.5 -1.5s-10.5 -2.16699 -16.5 -3.50098z" />
    <glyph glyph-name="onesuperior" unicode="&#xb9;" horiz-adv-x="312" 
d="M115 570l0.00195312 -290h112v428h-86c-4.66699 -23.335 -16.334 -40.502 -35.001 -51.5c-18.667 -11 -43.334 -16.5 -74.001 -16.5h-8v-70h91z" />
    <glyph glyph-name="ordmasculine" unicode="&#xba;" horiz-adv-x="314" 
d="M112 537c0 30.667 2.5 56.167 7.5 76.5s17.5 30.5 37.5 30.5c16.667 0 28.334 -8.33301 35.001 -25s10 -44 10 -82s-3.33301 -65.167 -10 -81.5s-18.334 -24.5 -35.001 -24.5c-20 0 -32.5 10 -37.5 30s-7.5 45.333 -7.5 76zM12 537c0 -28 2.16699 -52.8359 6.5 -74.502
c4.33301 -21.667 12 -39.667 23 -54s25.833 -25 44.5 -32s42.334 -10.167 71.001 -9.5c27.333 0.00195312 50.333 3.66895 69 11c18.667 7.33398 33.667 18.167 45 32.5c11.333 14.334 19.333 32.001 24 53.001s7 45.5 7 73.5c0 28.668 -2.16699 53.835 -6.5 75.501
c-4.33301 21.667 -12 39.667 -23 54s-25.833 25 -44.5 32s-42.334 10.167 -71.001 9.5c-54.667 0 -92.5 -14.5 -113.5 -43.5s-31.5 -71.5 -31.5 -127.5z" />
    <glyph glyph-name="guillemotright" unicode="&#xbb;" horiz-adv-x="426" 
d="M225 220v-132l149 120v162l-149 120v-132l79 -69zM52 220v-132l149 120v162l-149 120v-132l79 -69z" />
    <glyph glyph-name="onequarter" unicode="&#xbc;" horiz-adv-x="721" 
d="M91 570l0.00195312 -290h112v428h-86c-4.66699 -23.335 -16.334 -40.502 -35.001 -51.5c-18.667 -11 -43.334 -16.5 -74.001 -16.5h-8v-70h91zM502.002 725l-406 -753h89l406 753h-89zM401.002 168v-91h170v-77h106v77h44v82h-44v269h-124zM571.002 304v-145h-88l86 145
h2z" />
    <glyph glyph-name="onehalf" unicode="&#xbd;" horiz-adv-x="721" 
d="M409 0l311.998 -0.00292969v82h-176c2 8 7 17.333 15 28s20.667 22.667 38 36l57 44c26 20 43.5 39.833 52.5 59.5s13.5 43.167 13.5 70.5c0 32.667 -11.833 58.834 -35.5 78.501s-62.5 29.5 -116.5 29.5c-57.333 0 -98.333 -10.833 -123 -32.499
c-24.667 -21.667 -37 -52.167 -37 -91.5v-25h106c0 8 0.666992 16.333 2 25s3.83301 16.5 7.5 23.5c3.6709 7 8.83789 12.833 15.5 17.5c6.66895 4.66699 15.3359 7 26.001 7c13.333 0 23.833 -4.5 31.5 -13.5c7.67383 -9 11.5068 -20.167 11.5 -33.5
c0 -15.333 -3.33301 -29.166 -10 -41.499s-19.667 -25.5 -39 -39.5l-50 -36c-38 -26.667 -64.333 -55.167 -78.999 -85.5c-14.668 -30.333 -22.001 -64.5 -22 -102.5zM90.998 569.997l0.00195312 -290h112v428h-86c-4.66699 -23.335 -16.334 -40.502 -35.001 -51.5
c-18.667 -11 -43.334 -16.5 -74.001 -16.5h-8v-70h91zM478 724.997l-406 -753h89l406 753h-89z" />
    <glyph glyph-name="threequarters" unicode="&#xbe;" horiz-adv-x="721" 
d="M106 416h-105.996v-10c0 -42 11.333 -74.667 34 -98s59 -35 109 -35c36 0 65 4 87 12s39.167 18.333 51.5 31c12.334 12.667 20.501 26.667 24.5 42c4 15.334 6 30.001 6 44c0 26.667 -6.16699 48.667 -18.5 66c-12.333 17.334 -33.5 28.667 -63.5 34v2
c22 4.66699 39.167 15.167 51.5 31.5c12.334 16.333 18.501 37.5 18.5 63.5c0 38 -12.167 65.667 -36.5 83s-61.5 26 -111.5 26c-24 -0.00585938 -45.167 -2.67285 -63.5 -8.00098c-18.333 -5.33496 -33.5 -13.668 -45.5 -25c-24 -22.667 -36 -57 -36 -103h100
c0 16 3 30 9 42s18.333 18 37 18c12 -0.00488281 21.833 -4.17188 29.5 -12.5c7.66699 -8.33301 11.5 -18.833 11.499 -31.5c-0.000976562 -13.334 -4.16797 -25.501 -12.501 -36.5c-8.33301 -11 -22.166 -16.5 -41.499 -16.5h-28v-70h28c13.333 0 23.833 -2 31.5 -6
s13.667 -9 18 -15s7.16602 -12.667 8.49902 -20s2 -14.666 2 -21.999c0 -14.667 -3.5 -27.167 -10.5 -37.5s-18.5 -15.5 -34.5 -15.5c-18.667 0 -31.334 6.5 -38.001 19.5s-10.334 28.833 -11.001 47.5zM541.004 725l-406 -753h89l406 753h-89zM571.004 159h-88l86 145h2
v-145zM401.004 168v-91h170v-77h106v77h44v82h-44v269h-124z" />
    <glyph glyph-name="questiondown" unicode="&#xbf;" horiz-adv-x="481" 
d="M181 406h138v132h-138v-132zM445 45l-132 0.000976562v-25c0 -30.667 -5.5 -56.167 -16.5 -76.5s-29.167 -30.5 -54.5 -30.5c-22.667 0 -39.667 7.83301 -51 23.5s-17 36.167 -17 61.5c0 18 2.83301 35.833 8.49902 53.5c5.66699 17.667 15.5 34.167 29.5 49.5l38 43
c22.667 25.333 38.667 49.5 48 72.5c9.33496 23 14.002 51.167 14.001 84.5v39h-124v-15c0 -25.333 -3.83301 -46 -11.5 -62s-20.167 -33.667 -37.5 -53l-40 -45c-24 -28 -40.5 -54 -49.5 -78s-13.5 -50 -13.5 -78c0 -57.333 17.5 -103.333 52.5 -138s87.833 -52 158.5 -52
c33.333 0 62.333 5.16699 87 15.5s45.167 24.666 61.5 42.999c16.334 18.333 28.667 40 37 65c8.33496 25 12.502 51.5 12.5 79.5v23z" />
    <glyph glyph-name="Agrave" unicode="&#xc0;" 
d="M249 756h94l-54 144h-138zM208 269l69 321h2l69 -321h-140zM189 714l-189 -714h150l33 151h190l33 -151h150l-189 714h-178z" />
    <glyph glyph-name="Aacute" unicode="&#xc1;" 
d="M267 900l-54 -144h94l98 144h-138zM208 269l69 321h2l69 -321h-140zM189 714l-189 -714h150l33 151h190l33 -151h150l-189 714h-178z" />
    <glyph glyph-name="Acircumflex" unicode="&#xc2;" 
d="M206 900l-78 -144h100l48 85l46 -85h106l-78 144h-144zM208 269l69 321h2l69 -321h-140zM189 714l-189 -714h150l33 151h190l33 -151h150l-189 714h-178z" />
    <glyph glyph-name="Atilde" unicode="&#xc3;" 
d="M121 765l70 0.00292969c5.33301 24 16 36 32 36c8 0 16.667 -1.83301 26 -5.5c9.33398 -3.66699 19.167 -7.5 29.499 -11.5c10.333 -4 20.833 -7.83301 31.5 -11.5s21.334 -5.5 32.001 -5.5c25.333 0 46.333 11.667 63 35s26.667 53 30 89h-72
c-0.00292969 -6.66699 -2.33594 -14.334 -7 -23.001c-4.66699 -8.66699 -11.667 -13 -21 -13c-10 0 -20 2 -30 6l-48 21c-10 4.6875 -24.333 7.02051 -43 7c-25.333 -0.00195312 -45.833 -10.6689 -61.5 -32.001c-15.667 -21.335 -26.167 -52.002 -31.5 -92.001z
M208 269.003l69 321h2l69 -321h-140zM189 714.003l-189 -714h150l33 151h190l33 -151h150l-189 714h-178z" />
    <glyph glyph-name="Adieresis" unicode="&#xc4;" 
d="M308 883v-118h112v118h-112zM136 883v-118h112v118h-112zM208 269l69 321h2l69 -321h-140zM189 714l-189 -714h150l33 151h190l33 -151h150l-189 714h-178z" />
    <glyph glyph-name="Aring" unicode="&#xc5;" 
d="M220 847c0 16 5.66797 29.6689 17.001 41.002s25 17 41 17c16 -0.00390625 29.667 -5.6709 41 -17.001c11.334 -11.335 17.001 -25.002 17 -41c0 -16.002 -5.66699 -29.6689 -17 -41.001c-11.333 -11.3359 -25 -17.0029 -41 -17c-16 0 -29.667 5.66699 -41 17
c-11.334 11.333 -17.001 25 -17.001 41zM164.001 847.002c0 -16 3.00098 -30.8301 9.00098 -44.4971s14.167 -25.667 24.5 -36c10.333 -10.3379 22.333 -18.5049 36 -24.501c13.667 -6 28.5 -9 44.5 -9s30.833 3 44.5 9s25.667 14.167 36 24.5
c10.334 10.333 18.501 22.333 24.5 36c6 13.6689 9 28.502 9 44.5c0 16.002 -3 30.835 -9 44.499c-6 13.667 -14.167 25.667 -24.5 36s-22.333 18.5 -36 24.5s-28.5 9 -44.5 9s-30.833 -3 -44.5 -9c-13.667 -6.00586 -25.667 -14.1729 -36 -24.501
c-10.334 -10.333 -18.501 -22.333 -24.501 -36s-9 -28.5 -9 -44.5zM208.002 269.005l69 321h2l69 -321h-140zM189.002 714.005l-189 -714h150l33 151h190l33 -151h150l-189 714h-178z" />
    <glyph glyph-name="AE" unicode="&#xc6;" horiz-adv-x="759" 
d="M354 269h-120l111 333h9v-333zM264 714l-266 -714h147l50 151h159v-151h383v118h-245v192h220v118h-220v168h235v118h-463z" />
    <glyph glyph-name="Ccedilla" unicode="&#xc7;" horiz-adv-x="537" 
d="M261 -11l-47.0039 -77.9941l22 -20c5.33301 2 10.5 3.5 15.5 4.5c5.00098 1 11.168 1.5 18.501 1.5c13.334 0 24.001 -3.16699 32.001 -9.5s12 -14.5 12 -24.5c-0.00195312 -9.33301 -4.83496 -17.333 -14.5 -24c-9.66699 -6.66699 -21.5 -10 -35.5 -10
c-12.667 0 -25.5 1.5 -38.5 4.5s-23.167 6.5 -30.5 10.5l-19 -46c8 -4.66699 21.167 -9 39.5 -13s38.5 -6 60.5 -6c40.667 0 71.834 8.16699 93.501 24.5s32.5 39.5 32.5 69.5c0 12 -2.5 22.5 -7.5 31.5s-11.5 16.667 -19.5 23s-17 11.166 -27 14.499s-20 5 -30 5
c-6 0 -11.5 -0.5 -16.5 -1.5s-10.5 -2.16699 -16.5 -3.50098l30 48c39.333 4 71.333 14 96 30s44 36.833 58 62.5s23.5 54.834 28.5 87.501s7.5 67 7.5 103h-144c-0.00390625 -38.667 -2.33691 -69.834 -6.99902 -93.501c-4.66699 -23.667 -11 -42 -18.999 -55
c-8 -13 -17.5 -21.667 -28.5 -26s-22.833 -6.5 -35.499 -6.5c-15.333 0 -28.833 3.16699 -40.5 9.5s-21.334 18.666 -29.001 36.999s-13.334 44.166 -17.001 77.499s-5.5 77 -5.5 131c0.000976562 50.667 1.33398 93.5 4 128.5c2.66699 35 7.33398 63.333 14 84.999
c6.66699 21.668 15.834 37.335 27.5 47.001c11.667 9.67188 26.5 14.5049 44.5 14.5c32.667 0 55.167 -11.833 67.5 -35.5c12.334 -23.667 18.501 -61.5 18.5 -113.5h144c-0.00390625 26 -1.83691 53.833 -5.5 83.499c-3.66797 29.667 -12.835 57.334 -27.501 83
c-14.667 25.667 -36.834 46.834 -66.5 63.5c-29.667 16.6699 -70.167 25.0029 -121.5 25c-54 -0.00292969 -97 -9.16992 -129 -27.5c-32 -18.333 -56.5 -43.833 -73.5 -76.5s-28 -71.834 -33 -117.501s-7.5 -95.5 -7.5 -149.5c0 -52.667 2.33301 -101.167 7 -145.5
s14.834 -82.833 30.501 -115.5s38.5 -58.167 68.5 -76.5s70 -28.5 120 -30.5z" />
    <glyph glyph-name="Egrave" unicode="&#xc8;" horiz-adv-x="481" 
d="M224 756h94l-54 144h-138zM449 714h-399v-714h409v118h-265v192h240v118h-240v168h255v118z" />
    <glyph glyph-name="Eacute" unicode="&#xc9;" horiz-adv-x="481" 
d="M242 900l-54 -144h94l98 144h-138zM449 714h-399v-714h409v118h-265v192h240v118h-240v168h255v118z" />
    <glyph glyph-name="Ecircumflex" unicode="&#xca;" horiz-adv-x="481" 
d="M181 900l-78 -144h100l48 85l46 -85h106l-78 144h-144zM449 714h-399v-714h409v118h-265v192h240v118h-240v168h255v118z" />
    <glyph glyph-name="Edieresis" unicode="&#xcb;" horiz-adv-x="481" 
d="M283 883v-118h112v118h-112zM111 883v-118h112v118h-112zM449 714h-399v-714h409v118h-265v192h240v118h-240v168h255v118z" />
    <glyph glyph-name="Igrave" unicode="&#xcc;" horiz-adv-x="258" 
d="M100 756h94l-54 144h-138zM57 0h144v714h-144v-714z" />
    <glyph glyph-name="Iacute" unicode="&#xcd;" horiz-adv-x="258" 
d="M118 900l-54 -144h94l98 144h-138zM57 0h144v714h-144v-714z" />
    <glyph glyph-name="Icircumflex" unicode="&#xce;" horiz-adv-x="258" 
d="M57 900l-75 -144h97l48 85l46 -85h106l-78 144h-144zM57 0h144v714h-144v-714z" />
    <glyph glyph-name="Idieresis" unicode="&#xcf;" horiz-adv-x="258" 
d="M159 883v-118h112v118h-112zM-10 883v-118h109v118h-109zM57 0h144v714h-144v-714z" />
    <glyph glyph-name="Eth" unicode="&#xd0;" horiz-adv-x="574" 
d="M201 421v187.001h61c27.333 -0.00488281 49.166 -5.17188 65.499 -15.501c16.334 -10.334 28.667 -25.667 37 -46c8.33301 -20.335 13.833 -45.835 16.5 -76.5c2.66699 -30.667 4 -66.334 4 -107c0 -48.667 -1.5 -89.334 -4.5 -122c-3 -32.667 -9 -59 -18 -79
s-21.167 -34.333 -36.5 -43s-35.666 -13 -60.999 -13h-64v209h93v106h-93zM57 315.001l-0.00195312 -315h227c48 0 87.667 7.33301 119 22s56.333 37 75 67s31.834 68.167 39.501 114.5c7.67285 46.333 11.5059 100.833 11.5 163.5c0 52.667 -3 100.334 -9 143.001
s-17.5 79.167 -34.5 109.5s-40.833 53.666 -71.499 69.999c-30.667 16.333 -71 24.5 -121 24.5h-236v-293h-57v-106h57z" />
    <glyph glyph-name="Ntilde" unicode="&#xd1;" horiz-adv-x="574" 
d="M130 765l70 0.00292969c5.33301 24 16 36 32 36c8 0 16.667 -1.83301 26 -5.5c9.33398 -3.66699 19.167 -7.5 29.499 -11.5c10.333 -4 20.833 -7.83301 31.5 -11.5s21.334 -5.5 32.001 -5.5c25.333 0 46.333 11.667 63 35s26.667 53 30 89h-72
c-0.00292969 -6.66699 -2.33594 -14.334 -7 -23.001c-4.66699 -8.66699 -11.667 -13 -21 -13c-10 0 -20 2 -30 6l-48 21c-10 4.6875 -24.333 7.02051 -43 7c-25.333 -0.00195312 -45.833 -10.6689 -61.5 -32.001c-15.667 -21.335 -26.167 -52.002 -31.5 -92.001z
M216 714.003h-166v-714h132v500h2l176 -500h164v714h-132v-489h-2z" />
    <glyph glyph-name="Ograve" unicode="&#xd2;" 
d="M249 756h94l-54 144h-138zM179 357c0 48 1.16602 88.668 3.49902 122.001s7 60.666 14 81.999s17 36.833 30 46.5c13 9.67188 30.167 14.5049 51.5 14.5c21.334 0 38.501 -4.83301 51.501 -14.5s23 -25.167 30 -46.5c7.00195 -21.334 11.6689 -48.667 14 -82
c2.3418 -33.333 3.50879 -74 3.5 -122c0 -48 -1.16699 -88.833 -3.5 -122.5s-7 -61 -14 -82s-17 -36.333 -30 -46s-30.167 -14.5 -51.5 -14.5s-38.5 4.83301 -51.5 14.5s-23 25 -30 46s-11.667 48.333 -14 82c-2.33496 33.667 -3.50195 74.5 -3.5 122.5zM34.999 357.001
c0 -54.667 2.5 -104.666 7.5 -149.999s16 -84.333 33 -117s41.5 -57.667 73.5 -75s75 -26 129 -26s97 8.66699 129 26s56.5 42.333 73.5 75s28 71.667 33 117s7.5 95.333 7.5 150c0 54 -2.5 103.833 -7.5 149.5s-16 84.834 -33 117.5c-17 32.667 -41.5 58.167 -73.5 76.5
s-75 27.5 -129 27.5c-54 -0.00292969 -97 -9.16992 -129 -27.5c-32 -18.333 -56.5 -43.833 -73.5 -76.5s-28 -71.834 -33 -117.501s-7.5 -95.5 -7.5 -149.5z" />
    <glyph glyph-name="Oacute" unicode="&#xd3;" 
d="M267 900l-54 -144h94l98 144h-138zM179 357c0 48 1.16602 88.668 3.49902 122.001s7 60.666 14 81.999s17 36.833 30 46.5c13 9.67188 30.167 14.5049 51.5 14.5c21.334 0 38.501 -4.83301 51.501 -14.5s23 -25.167 30 -46.5c7.00195 -21.334 11.6689 -48.667 14 -82
c2.3418 -33.333 3.50879 -74 3.5 -122c0 -48 -1.16699 -88.833 -3.5 -122.5s-7 -61 -14 -82s-17 -36.333 -30 -46s-30.167 -14.5 -51.5 -14.5s-38.5 4.83301 -51.5 14.5s-23 25 -30 46s-11.667 48.333 -14 82c-2.33496 33.667 -3.50195 74.5 -3.5 122.5zM34.999 357.001
c0 -54.667 2.5 -104.666 7.5 -149.999s16 -84.333 33 -117s41.5 -57.667 73.5 -75s75 -26 129 -26s97 8.66699 129 26s56.5 42.333 73.5 75s28 71.667 33 117s7.5 95.333 7.5 150c0 54 -2.5 103.833 -7.5 149.5s-16 84.834 -33 117.5c-17 32.667 -41.5 58.167 -73.5 76.5
s-75 27.5 -129 27.5c-54 -0.00292969 -97 -9.16992 -129 -27.5c-32 -18.333 -56.5 -43.833 -73.5 -76.5s-28 -71.834 -33 -117.501s-7.5 -95.5 -7.5 -149.5z" />
    <glyph glyph-name="Ocircumflex" unicode="&#xd4;" 
d="M206 900l-78 -144h100l48 85l46 -85h106l-78 144h-144zM179 357c0 48 1.16602 88.668 3.49902 122.001s7 60.666 14 81.999s17 36.833 30 46.5c13 9.67188 30.167 14.5049 51.5 14.5c21.334 0 38.501 -4.83301 51.501 -14.5s23 -25.167 30 -46.5
c7.00195 -21.334 11.6689 -48.667 14 -82c2.3418 -33.333 3.50879 -74 3.5 -122c0 -48 -1.16699 -88.833 -3.5 -122.5s-7 -61 -14 -82s-17 -36.333 -30 -46s-30.167 -14.5 -51.5 -14.5s-38.5 4.83301 -51.5 14.5s-23 25 -30 46s-11.667 48.333 -14 82
c-2.33496 33.667 -3.50195 74.5 -3.5 122.5zM34.999 357.001c0 -54.667 2.5 -104.666 7.5 -149.999s16 -84.333 33 -117s41.5 -57.667 73.5 -75s75 -26 129 -26s97 8.66699 129 26s56.5 42.333 73.5 75s28 71.667 33 117s7.5 95.333 7.5 150c0 54 -2.5 103.833 -7.5 149.5
s-16 84.834 -33 117.5c-17 32.667 -41.5 58.167 -73.5 76.5s-75 27.5 -129 27.5c-54 -0.00292969 -97 -9.16992 -129 -27.5c-32 -18.333 -56.5 -43.833 -73.5 -76.5s-28 -71.834 -33 -117.501s-7.5 -95.5 -7.5 -149.5z" />
    <glyph glyph-name="Otilde" unicode="&#xd5;" 
d="M121 765l70 0.00292969c5.33301 24 16 36 32 36c8 0 16.667 -1.83301 26 -5.5c9.33398 -3.66699 19.167 -7.5 29.499 -11.5c10.333 -4 20.833 -7.83301 31.5 -11.5s21.334 -5.5 32.001 -5.5c25.333 0 46.333 11.667 63 35s26.667 53 30 89h-72
c-0.00292969 -6.66699 -2.33594 -14.334 -7 -23.001c-4.66699 -8.66699 -11.667 -13 -21 -13c-10 0 -20 2 -30 6l-48 21c-10 4.6875 -24.333 7.02051 -43 7c-25.333 -0.00195312 -45.833 -10.6689 -61.5 -32.001c-15.667 -21.335 -26.167 -52.002 -31.5 -92.001z
M179 357.003c0 48 1.16602 88.6689 3.49902 122.002s7 60.666 14 81.999s17 36.833 30 46.5c13 9.6709 30.167 14.5039 51.5 14.499c21.334 0 38.501 -4.83301 51.501 -14.5s23 -25.167 30 -46.5c7.00195 -21.334 11.6689 -48.667 14 -82
c2.3418 -33.333 3.50879 -74 3.5 -122c0 -48 -1.16699 -88.833 -3.5 -122.5s-7 -61 -14 -82s-17 -36.333 -30 -46s-30.167 -14.5 -51.5 -14.5s-38.5 4.83301 -51.5 14.5s-23 25 -30 46s-11.667 48.333 -14 82c-2.33496 33.667 -3.50195 74.5 -3.5 122.5zM34.999 357.005
c0 -54.667 2.5 -104.666 7.5 -149.999s16 -84.333 33 -117s41.5 -57.667 73.5 -75s75 -26 129 -26s97 8.66699 129 26s56.5 42.333 73.5 75s28 71.667 33 117s7.5 95.333 7.5 150c0 54 -2.5 103.833 -7.5 149.5s-16 84.834 -33 117.5c-17 32.667 -41.5 58.167 -73.5 76.5
s-75 27.5 -129 27.5c-54 -0.00292969 -97 -9.16992 -129 -27.5c-32 -18.333 -56.5 -43.833 -73.5 -76.5s-28 -71.834 -33 -117.501s-7.5 -95.5 -7.5 -149.5z" />
    <glyph glyph-name="Odieresis" unicode="&#xd6;" 
d="M308 883v-118h112v118h-112zM136 883v-118h112v118h-112zM179 357c0 48 1.16602 88.668 3.49902 122.001s7 60.666 14 81.999s17 36.833 30 46.5c13 9.67188 30.167 14.5049 51.5 14.5c21.334 0 38.501 -4.83301 51.501 -14.5s23 -25.167 30 -46.5
c7.00195 -21.334 11.6689 -48.667 14 -82c2.3418 -33.333 3.50879 -74 3.5 -122c0 -48 -1.16699 -88.833 -3.5 -122.5s-7 -61 -14 -82s-17 -36.333 -30 -46s-30.167 -14.5 -51.5 -14.5s-38.5 4.83301 -51.5 14.5s-23 25 -30 46s-11.667 48.333 -14 82
c-2.33496 33.667 -3.50195 74.5 -3.5 122.5zM34.999 357.001c0 -54.667 2.5 -104.666 7.5 -149.999s16 -84.333 33 -117s41.5 -57.667 73.5 -75s75 -26 129 -26s97 8.66699 129 26s56.5 42.333 73.5 75s28 71.667 33 117s7.5 95.333 7.5 150c0 54 -2.5 103.833 -7.5 149.5
s-16 84.834 -33 117.5c-17 32.667 -41.5 58.167 -73.5 76.5s-75 27.5 -129 27.5c-54 -0.00292969 -97 -9.16992 -129 -27.5c-32 -18.333 -56.5 -43.833 -73.5 -76.5s-28 -71.834 -33 -117.501s-7.5 -95.5 -7.5 -149.5z" />
    <glyph glyph-name="multiply" unicode="&#xd7;" horiz-adv-x="600" 
d="M215 253l-156 -155l86 -86l155 156l155 -156l86 86l-156 155l156 155l-86 86l-155 -156l-155 156l-86 -86z" />
    <glyph glyph-name="Oslash" unicode="&#xd8;" 
d="M113 40l-30.001 -66.999l48 -21l26 58c32 -14 72.333 -21 121 -21c54 0 97 8.66699 129 26s56.5 42.333 73.5 75s28 71.667 33 117s7.5 95.333 7.5 150c0 35.333 -1 68.833 -3 100.5c-2.00586 31.667 -5.67285 61 -11 88c-5.33301 27.001 -13.166 51.334 -23.499 73
c-10.333 21.667 -23.833 40.167 -40.5 55.5l30 70l-48 21l-26 -61c-32 16 -72.333 24 -120.999 24c-54 -0.00292969 -97 -9.16992 -129 -27.5c-32 -18.333 -56.5 -43.833 -73.5 -76.5s-28 -71.834 -33 -117.501s-7.5 -95.5 -7.5 -149.5c0 -35.333 1 -68.833 3 -100.5
s5.66699 -61 11 -88s13.166 -51.333 23.499 -73s23.833 -40.167 40.5 -55.5zM207.999 129.001l160.999 375.999h2c2.66699 -19.333 4.33398 -41.166 5.00098 -65.499s1 -51.833 1 -82.5c0 -48 -1.16699 -88.833 -3.5 -122.5s-7 -61 -14 -82s-17 -36.333 -30 -46
s-30.167 -14.5 -51.5 -14.5c-34 0 -57.333 12.333 -70 37zM347.998 586l-160.999 -376.999h-2c-2.66699 18.667 -4.33398 40 -5.00098 64s-1 52 -1 84c0 48 1.16699 88.667 3.5 122s7 60.666 14 81.999s17 36.833 30 46.5c13 9.67188 30.167 14.5049 51.5 14.5
c32 0 55.333 -12 70 -36z" />
    <glyph glyph-name="Ugrave" unicode="&#xd9;" horiz-adv-x="538" 
d="M240 756h94l-54 144h-138zM185 714l-143.997 -0.000976562v-498c0 -48 6.33301 -87 19 -117s29.667 -53.167 51 -69.5s45.666 -27.166 72.999 -32.499s55.666 -8 84.999 -8s57.666 3 84.999 9c27.334 6 51.667 17.667 73 35s38.333 40.833 51 70.5s19 67.167 19 112.5
v498h-144v-498c0 -18 -1.16699 -34.5 -3.5 -49.5s-6.66602 -28 -12.999 -39s-14.833 -19.667 -25.5 -26s-24.667 -9.5 -42 -9.5c-16.667 0 -30.5 3.16699 -41.5 9.5s-19.667 15 -26 26c-6.33398 11 -10.667 24 -13 39c-2.33496 15 -3.50195 31.5 -3.50098 49.5v498z" />
    <glyph glyph-name="Uacute" unicode="&#xda;" horiz-adv-x="538" 
d="M258 900l-54 -144h94l98 144h-138zM185 714l-143.997 -0.000976562v-498c0 -48 6.33301 -87 19 -117s29.667 -53.167 51 -69.5s45.666 -27.166 72.999 -32.499s55.666 -8 84.999 -8s57.666 3 84.999 9c27.334 6 51.667 17.667 73 35s38.333 40.833 51 70.5
s19 67.167 19 112.5v498h-144v-498c0 -18 -1.16699 -34.5 -3.5 -49.5s-6.66602 -28 -12.999 -39s-14.833 -19.667 -25.5 -26s-24.667 -9.5 -42 -9.5c-16.667 0 -30.5 3.16699 -41.5 9.5s-19.667 15 -26 26c-6.33398 11 -10.667 24 -13 39
c-2.33496 15 -3.50195 31.5 -3.50098 49.5v498z" />
    <glyph glyph-name="Ucircumflex" unicode="&#xdb;" horiz-adv-x="538" 
d="M197 900l-78 -144h100l48 85l46 -85h106l-78 144h-144zM185 714l-143.997 -0.000976562v-498c0 -48 6.33301 -87 19 -117s29.667 -53.167 51 -69.5s45.666 -27.166 72.999 -32.499s55.666 -8 84.999 -8s57.666 3 84.999 9c27.334 6 51.667 17.667 73 35
s38.333 40.833 51 70.5s19 67.167 19 112.5v498h-144v-498c0 -18 -1.16699 -34.5 -3.5 -49.5s-6.66602 -28 -12.999 -39s-14.833 -19.667 -25.5 -26s-24.667 -9.5 -42 -9.5c-16.667 0 -30.5 3.16699 -41.5 9.5s-19.667 15 -26 26c-6.33398 11 -10.667 24 -13 39
c-2.33496 15 -3.50195 31.5 -3.50098 49.5v498z" />
    <glyph glyph-name="Udieresis" unicode="&#xdc;" horiz-adv-x="538" 
d="M299 883v-118h112v118h-112zM127 883v-118h112v118h-112zM185 714l-143.997 -0.000976562v-498c0 -48 6.33301 -87 19 -117s29.667 -53.167 51 -69.5s45.666 -27.166 72.999 -32.499s55.666 -8 84.999 -8s57.666 3 84.999 9c27.334 6 51.667 17.667 73 35
s38.333 40.833 51 70.5s19 67.167 19 112.5v498h-144v-498c0 -18 -1.16699 -34.5 -3.5 -49.5s-6.66602 -28 -12.999 -39s-14.833 -19.667 -25.5 -26s-24.667 -9.5 -42 -9.5c-16.667 0 -30.5 3.16699 -41.5 9.5s-19.667 15 -26 26c-6.33398 11 -10.667 24 -13 39
c-2.33496 15 -3.50195 31.5 -3.50098 49.5v498z" />
    <glyph glyph-name="Yacute" unicode="&#xdd;" horiz-adv-x="520" 
d="M249 900l-54 -144h94l98 144h-138zM165 714h-162l185 -433v-281h144v281l185 433h-156l-100 -276h-2z" />
    <glyph glyph-name="Thorn" unicode="&#xde;" horiz-adv-x="519" 
d="M194 263v217h60c36 -0.000976562 61.667 -9.33398 77 -28c15.334 -18.667 23.001 -46 23 -82c-0.000976562 -36.667 -8.83398 -63.667 -26.5 -81c-17.667 -17.333 -40.834 -26 -69.5 -26h-64zM50 714l-0.000976562 -713.999h144v157h77c34 0 65 4.33301 93 12.999
c28 8.66699 51.833 21.667 71.5 39s35 39.666 46 66.999s16.5 59.333 16.5 96c-0.00195312 26.667 -3.33496 52.834 -10 78.501c-6.66699 25.667 -17.667 48.5 -33 68.5s-35.5 36.167 -60.5 48.5s-55.833 18.5 -92.499 18.5h-108v128h-144z" />
    <glyph glyph-name="germandbls" unicode="&#xdf;" horiz-adv-x="500" 
d="M41 0l137.998 -0.000976562v524c0 32.001 4.33301 58.334 12.999 79c8.66699 20.6689 26.667 31.002 54 31c13.334 0 24.167 -2.5 32.5 -7.5c8.33398 -5.00195 15.001 -11.6689 20 -20c5 -8.33301 8.5 -17.833 10.5 -28.5s3 -22 3 -34c0 -28 -5 -50.833 -15 -68.499
c-10 -17.668 -27 -26.501 -51 -26.5h-17v-94h25c30.667 0 51.667 -11 63 -33c11.334 -22 17.001 -51.333 17 -88c0 -22.667 -1 -43 -3 -61s-6.16699 -33.333 -12.5 -46s-15.166 -22.334 -26.499 -29.001s-26 -10 -44 -10c-8 0 -15 1.33301 -21 4v-92
c7.33301 -0.666992 17.333 -1.33398 30 -2.00098s24.667 -1 36 -1c38 0 68.667 6.5 92 19.5c23.334 13 41.501 30.333 54.5 52c13.001 21.667 21.668 45.5 26 71.5c4.33691 26 6.50391 51.333 6.5 76c0 54 -8.5 97.833 -25.5 131.5s-45.5 53.834 -85.5 60.501v2
c17.333 7.33398 31.833 15.667 43.5 25c11.667 9.33398 20.834 20.001 27.501 32.001s11.334 25.333 14.001 40c2.66699 14.668 4 31.335 4 50.001c-0.000976562 56.667 -16.834 99.334 -50.5 128c-33.667 28.668 -82.5 43.001 -146.5 43
c-72.667 0 -126.167 -15.833 -160.5 -47.5s-51.5 -82.834 -51.5 -153.501v-527z" />
    <glyph glyph-name="agrave" unicode="&#xe0;" horiz-adv-x="481" 
d="M212 601h94l-54 144h-138zM297 269l-0.00195312 -105.999c0 -14.667 -2.66699 -27.334 -8 -38.001s-12.166 -19.334 -20.499 -26.001s-17.5 -11.5 -27.5 -14.5s-19.667 -4.5 -29 -4.5c-18.667 0 -32 7.33301 -40 22s-12 32.334 -12 53.001c0 24 6 43 18 57s32 24 60 30
c8.66699 2 18.334 5.16699 29.001 9.5c10.667 4.33398 20.667 10.167 30 17.5zM44.998 373.001l123.997 -0.000976562v15c0 21.333 5.33301 38.333 16 51s26.667 19 48 19c23.333 -0.000976562 39.833 -5.83398 49.5 -17.5c9.66699 -11.667 14.5 -27.834 14.5 -48.5
c0 -18 -4 -31.667 -12 -41s-22.333 -16.666 -42.999 -21.999l-78 -21c-24 -6.66699 -44.5 -14.334 -61.5 -23c-17 -8.66699 -31 -19.5 -42 -32.5s-19.167 -28.667 -24.5 -47s-8 -40.166 -8 -65.499c0 -18 2.33301 -36.167 7 -54.5s12 -34.833 22 -49.5
s23.333 -26.167 40 -34.5s37 -12.5 61 -12.5c33.333 0 60.5 4.16699 81.5 12.5s39.5 26.5 55.5 54.5h2c2.00391 -9.33301 4.1709 -18.833 6.50098 -28.5c2.33301 -9.66699 5.83301 -18.834 10.5 -27.501h132c-6.66699 16 -11.167 31 -13.5 45s-3.5 33.667 -3.5 59v283
c0 24 -2.5 46.167 -7.5 66.5s-14.5 37.833 -28.5 52.5c-14 14.668 -33.667 26.001 -59 34c-25.333 8 -58.666 12 -99.999 12c-26 0 -50.5 -2.83301 -73.5 -8.5s-43 -15 -60 -28s-30.5 -30 -40.5 -51s-15 -47.167 -15 -78.5v-13z" />
    <glyph glyph-name="aacute" unicode="&#xe1;" horiz-adv-x="481" 
d="M230 745l-54 -144h94l98 144h-138zM297 269l-0.00195312 -105.999c0 -14.667 -2.66699 -27.334 -8 -38.001s-12.166 -19.334 -20.499 -26.001s-17.5 -11.5 -27.5 -14.5s-19.667 -4.5 -29 -4.5c-18.667 0 -32 7.33301 -40 22s-12 32.334 -12 53.001c0 24 6 43 18 57
s32 24 60 30c8.66699 2 18.334 5.16699 29.001 9.5c10.667 4.33398 20.667 10.167 30 17.5zM44.998 373.001l123.997 -0.000976562v15c0 21.333 5.33301 38.333 16 51s26.667 19 48 19c23.333 -0.000976562 39.833 -5.83398 49.5 -17.5
c9.66699 -11.667 14.5 -27.834 14.5 -48.5c0 -18 -4 -31.667 -12 -41s-22.333 -16.666 -42.999 -21.999l-78 -21c-24 -6.66699 -44.5 -14.334 -61.5 -23c-17 -8.66699 -31 -19.5 -42 -32.5s-19.167 -28.667 -24.5 -47s-8 -40.166 -8 -65.499c0 -18 2.33301 -36.167 7 -54.5
s12 -34.833 22 -49.5s23.333 -26.167 40 -34.5s37 -12.5 61 -12.5c33.333 0 60.5 4.16699 81.5 12.5s39.5 26.5 55.5 54.5h2c2.00391 -9.33301 4.1709 -18.833 6.50098 -28.5c2.33301 -9.66699 5.83301 -18.834 10.5 -27.501h132c-6.66699 16 -11.167 31 -13.5 45
s-3.5 33.667 -3.5 59v283c0 24 -2.5 46.167 -7.5 66.5s-14.5 37.833 -28.5 52.5c-14 14.668 -33.667 26.001 -59 34c-25.333 8 -58.666 12 -99.999 12c-26 0 -50.5 -2.83301 -73.5 -8.5s-43 -15 -60 -28s-30.5 -30 -40.5 -51s-15 -47.167 -15 -78.5v-13z" />
    <glyph glyph-name="acircumflex" unicode="&#xe2;" horiz-adv-x="481" 
d="M169 745l-78 -144h100l48 85l46 -85h106l-78 144h-144zM297 269l-0.00195312 -105.999c0 -14.667 -2.66699 -27.334 -8 -38.001s-12.166 -19.334 -20.499 -26.001s-17.5 -11.5 -27.5 -14.5s-19.667 -4.5 -29 -4.5c-18.667 0 -32 7.33301 -40 22s-12 32.334 -12 53.001
c0 24 6 43 18 57s32 24 60 30c8.66699 2 18.334 5.16699 29.001 9.5c10.667 4.33398 20.667 10.167 30 17.5zM44.998 373.001l123.997 -0.000976562v15c0 21.333 5.33301 38.333 16 51s26.667 19 48 19c23.333 -0.000976562 39.833 -5.83398 49.5 -17.5
c9.66699 -11.667 14.5 -27.834 14.5 -48.5c0 -18 -4 -31.667 -12 -41s-22.333 -16.666 -42.999 -21.999l-78 -21c-24 -6.66699 -44.5 -14.334 -61.5 -23c-17 -8.66699 -31 -19.5 -42 -32.5s-19.167 -28.667 -24.5 -47s-8 -40.166 -8 -65.499c0 -18 2.33301 -36.167 7 -54.5
s12 -34.833 22 -49.5s23.333 -26.167 40 -34.5s37 -12.5 61 -12.5c33.333 0 60.5 4.16699 81.5 12.5s39.5 26.5 55.5 54.5h2c2.00391 -9.33301 4.1709 -18.833 6.50098 -28.5c2.33301 -9.66699 5.83301 -18.834 10.5 -27.501h132c-6.66699 16 -11.167 31 -13.5 45
s-3.5 33.667 -3.5 59v283c0 24 -2.5 46.167 -7.5 66.5s-14.5 37.833 -28.5 52.5c-14 14.668 -33.667 26.001 -59 34c-25.333 8 -58.666 12 -99.999 12c-26 0 -50.5 -2.83301 -73.5 -8.5s-43 -15 -60 -28s-30.5 -30 -40.5 -51s-15 -47.167 -15 -78.5v-13z" />
    <glyph glyph-name="atilde" unicode="&#xe3;" horiz-adv-x="481" 
d="M84 610l70 0.00195312c5.33301 24 16 36 32 36c8 0 16.667 -1.83301 26 -5.5s19.166 -7.5 29.499 -11.5s20.833 -7.83301 31.5 -11.5s21.334 -5.5 32.001 -5.5c25.333 0 46.333 11.667 63 35s26.667 53 30 89h-72c-0.00292969 -6.66699 -2.33594 -14.334 -7 -23.001
c-4.66699 -8.66699 -11.667 -13 -21 -13c-10 0 -20 2 -30 6l-48 21c-10 4.67773 -24.333 7.01074 -43 6.99902c-25.333 -0.000976562 -45.833 -10.668 -61.5 -32c-15.667 -21.334 -26.167 -52.001 -31.5 -92zM297 269.002l-0.00195312 -105.999
c0 -14.667 -2.66699 -27.334 -8 -38.001s-12.166 -19.334 -20.499 -26.001s-17.5 -11.5 -27.5 -14.5s-19.667 -4.5 -29 -4.5c-18.667 0 -32 7.33301 -40 22s-12 32.334 -12 53.001c0 24 6 43 18 57s32 24 60 30c8.66699 2 18.334 5.16699 29.001 9.5
c10.667 4.33398 20.667 10.167 30 17.5zM44.998 373.003l123.997 -0.000976562v15c0 21.333 5.33301 38.333 16 51s26.667 19 48 19c23.333 -0.000976562 39.833 -5.83398 49.5 -17.5c9.66699 -11.667 14.5 -27.834 14.5 -48.5c0 -18 -4 -31.667 -12 -41
s-22.333 -16.666 -42.999 -21.999l-78 -21c-24 -6.66699 -44.5 -14.334 -61.5 -23c-17 -8.66699 -31 -19.5 -42 -32.5s-19.167 -28.667 -24.5 -47s-8 -40.166 -8 -65.499c0 -18 2.33301 -36.167 7 -54.5s12 -34.833 22 -49.5s23.333 -26.167 40 -34.5s37 -12.5 61 -12.5
c33.333 0 60.5 4.16699 81.5 12.5s39.5 26.5 55.5 54.5h2c2.00391 -9.33301 4.1709 -18.833 6.50098 -28.5c2.33301 -9.66699 5.83301 -18.834 10.5 -27.501h132c-6.66699 16 -11.167 31 -13.5 45s-3.5 33.667 -3.5 59v283c0 24 -2.5 46.167 -7.5 66.5
s-14.5 37.833 -28.5 52.5c-14 14.668 -33.667 26.001 -59 34c-25.333 8 -58.666 12 -99.999 12c-26 0 -50.5 -2.83301 -73.5 -8.5s-43 -15 -60 -28s-30.5 -30 -40.5 -51s-15 -47.167 -15 -78.5v-13z" />
    <glyph glyph-name="adieresis" unicode="&#xe4;" horiz-adv-x="481" 
d="M271 728v-118h112v118h-112zM99 728v-118h112v118h-112zM297 269l-0.00195312 -105.999c0 -14.667 -2.66699 -27.334 -8 -38.001s-12.166 -19.334 -20.499 -26.001s-17.5 -11.5 -27.5 -14.5s-19.667 -4.5 -29 -4.5c-18.667 0 -32 7.33301 -40 22s-12 32.334 -12 53.001
c0 24 6 43 18 57s32 24 60 30c8.66699 2 18.334 5.16699 29.001 9.5c10.667 4.33398 20.667 10.167 30 17.5zM44.998 373.001l123.997 -0.000976562v15c0 21.333 5.33301 38.333 16 51s26.667 19 48 19c23.333 -0.000976562 39.833 -5.83398 49.5 -17.5
c9.66699 -11.667 14.5 -27.834 14.5 -48.5c0 -18 -4 -31.667 -12 -41s-22.333 -16.666 -42.999 -21.999l-78 -21c-24 -6.66699 -44.5 -14.334 -61.5 -23c-17 -8.66699 -31 -19.5 -42 -32.5s-19.167 -28.667 -24.5 -47s-8 -40.166 -8 -65.499c0 -18 2.33301 -36.167 7 -54.5
s12 -34.833 22 -49.5s23.333 -26.167 40 -34.5s37 -12.5 61 -12.5c33.333 0 60.5 4.16699 81.5 12.5s39.5 26.5 55.5 54.5h2c2.00391 -9.33301 4.1709 -18.833 6.50098 -28.5c2.33301 -9.66699 5.83301 -18.834 10.5 -27.501h132c-6.66699 16 -11.167 31 -13.5 45
s-3.5 33.667 -3.5 59v283c0 24 -2.5 46.167 -7.5 66.5s-14.5 37.833 -28.5 52.5c-14 14.668 -33.667 26.001 -59 34c-25.333 8 -58.666 12 -99.999 12c-26 0 -50.5 -2.83301 -73.5 -8.5s-43 -15 -60 -28s-30.5 -30 -40.5 -51s-15 -47.167 -15 -78.5v-13z" />
    <glyph glyph-name="aring" unicode="&#xe5;" horiz-adv-x="481" 
d="M183 698c0 16 5.66797 29.6689 17.001 41.002s25 17 41 17c16 -0.00292969 29.667 -5.66992 41 -17c11.334 -11.335 17.001 -25.002 17 -41.001c0 -16.001 -5.66699 -29.668 -17 -41c-11.333 -11.3359 -25 -17.0029 -41 -17.001c-16 0 -29.667 5.66699 -41 17
c-11.334 11.333 -17.001 25 -17.001 41zM127.001 698.002c0 -16 3.00098 -30.8311 9.00098 -44.498s14.167 -25.667 24.5 -36c10.333 -10.3359 22.333 -18.5029 36 -24.501c13.667 -6 28.5 -9 44.5 -9s30.833 3 44.5 9s25.667 14.167 36 24.5
c10.334 10.333 18.501 22.333 24.5 36c6 13.6689 9 28.502 9 44.5c0 16.001 -3 30.834 -9 44.499c-6 13.667 -14.167 25.667 -24.5 36s-22.333 18.5 -36 24.5s-28.5 9 -44.5 9s-30.833 -3 -44.5 -9c-13.667 -6.00293 -25.667 -14.1699 -36 -24.5
c-10.334 -10.333 -18.501 -22.333 -24.501 -36s-9 -28.5 -9 -44.5zM297.002 269.004l-0.00195312 -105.999c0 -14.667 -2.66699 -27.334 -8 -38.001s-12.166 -19.334 -20.499 -26.001s-17.5 -11.5 -27.5 -14.5s-19.667 -4.5 -29 -4.5c-18.667 0 -32 7.33301 -40 22
s-12 32.334 -12 53.001c0 24 6 43 18 57s32 24 60 30c8.66699 2 18.334 5.16699 29.001 9.5c10.667 4.33398 20.667 10.167 30 17.5zM45 373.005l123.997 -0.000976562v15c0 21.333 5.33301 38.333 16 51s26.667 19 48 19c23.333 -0.000976562 39.833 -5.83398 49.5 -17.5
c9.66699 -11.667 14.5 -27.834 14.5 -48.5c0 -18 -4 -31.667 -12 -41s-22.333 -16.666 -42.999 -21.999l-78 -21c-24 -6.66699 -44.5 -14.334 -61.5 -23c-17 -8.66699 -31 -19.5 -42 -32.5s-19.167 -28.667 -24.5 -47s-8 -40.166 -8 -65.499c0 -18 2.33301 -36.167 7 -54.5
s12 -34.833 22 -49.5s23.333 -26.167 40 -34.5s37 -12.5 61 -12.5c33.333 0 60.5 4.16699 81.5 12.5s39.5 26.5 55.5 54.5h2c2.00391 -9.33301 4.1709 -18.833 6.50098 -28.5c2.33301 -9.66699 5.83301 -18.834 10.5 -27.501h132c-6.66699 16 -11.167 31 -13.5 45
s-3.5 33.667 -3.5 59v283c0 24 -2.5 46.167 -7.5 66.5s-14.5 37.833 -28.5 52.5c-14 14.668 -33.667 26.001 -59 34c-25.333 8 -58.666 12 -99.999 12c-26 0 -50.5 -2.83301 -73.5 -8.5s-43 -15 -60 -28s-30.5 -30 -40.5 -51s-15 -47.167 -15 -78.5v-13z" />
    <glyph glyph-name="ae" unicode="&#xe6;" horiz-adv-x="722" 
d="M44 373l123.995 -0.00390625v15c0 21.333 5.33301 38.333 15.999 51c10.667 12.667 26.667 19 48 19c23.333 -0.000976562 39.833 -5.83398 49.5 -17.5c9.66699 -11.667 14.5 -27.834 14.5 -48.5c0 -18 -4 -31.667 -12 -41s-22.333 -16.666 -42.999 -21.999l-78 -21
c-24 -6.66699 -44.5 -14.334 -61.5 -23c-17 -8.66699 -31 -19.5 -42 -32.5s-19.167 -28.667 -24.5 -47s-8 -40.166 -8 -65.499c0 -18 2.33301 -36.167 7 -54.5s12 -34.833 22 -49.5s23.333 -26.167 40 -34.5s37 -12.5 61 -12.5c21.333 0 40.333 1 57 3s31.834 6 45.501 12
s26.334 15 38.001 27s22.834 28 33.501 48c4.66699 -12 11.167 -23.5 19.5 -34.5s18.833 -20.833 31.5 -29.5s28.167 -15.167 46.5 -19.5s39.833 -6.5 64.5 -6.5c64.667 0 112.5 16.333 143.5 49c31.002 32.667 47.835 80.334 50.5 143.001h-124
c-4 -34 -11.333 -59.333 -22 -76s-27.334 -25 -50.001 -25c-12.667 0 -23.167 3.5 -31.5 10.5s-15.166 16.333 -20.499 28s-9.16602 25 -11.499 40s-3.5 30.5 -3.5 46.5v43h271v31c-0.00488281 41.333 -2.67188 78.833 -8 112.5c-5.33301 33.667 -15.333 62.334 -30 86.001
s-34.667 42 -60 55c-25.334 13 -58.001 19.5 -98 19.5c-30 0 -56.167 -5.5 -78.5 -16.5c-22.333 -11.001 -38.5 -26.834 -48.5 -47.5c-14.667 24.668 -32.5 41.501 -53.499 50.5c-21 9 -49.5 13.5 -85.5 13.5c-26 0 -50.5 -2.83301 -73.5 -8.5s-43 -15 -60 -28
s-30.5 -30 -40.5 -51s-15 -47.167 -15 -78.5v-13zM562.995 329.996l-139.001 -0.00195312v21c0.00683594 12.667 1.17383 25.334 3.50098 38.001c2.33398 12.667 6.16699 24.167 11.5 34.5c5.33496 10.334 12.502 18.667 21.501 25c9 6.33496 20.167 9.50195 33.5 9.5
c28 0 46.167 -10.833 54.5 -32.499c8.33301 -21.667 13.166 -53.5 14.499 -95.5zM295.994 268.994l-0.000976562 -105.999c0 -14.667 -2.66699 -27.334 -8 -38.001s-12.166 -19.334 -20.499 -26.001s-17.5 -11.5 -27.5 -14.5s-19.667 -4.5 -29 -4.5
c-18.667 0 -32 7.33301 -40 22s-12 32.334 -12 53.001c0 24 6 43 18 57s32 24 60 30c8.66699 2 18.334 5.16699 29 9.5c10.667 4.33398 20.667 10.167 30 17.5z" />
    <glyph glyph-name="ccedilla" unicode="&#xe7;" horiz-adv-x="463" 
d="M218 -11l-47.0039 -78l22 -20c5.33301 2 10.5 3.5 15.5 4.5s11.167 1.5 18.5 1.5c13.333 0 24 -3.16699 32 -9.5s12 -14.5 12 -24.5c-0.000976562 -9.33301 -4.83398 -17.333 -14.5 -24c-9.66699 -6.66699 -21.5 -10 -35.5 -10c-12.667 0 -25.5 1.5 -38.5 4.5
s-23.167 6.5 -30.5 10.5l-19 -46c8 -4.66699 21.167 -9 39.5 -13s38.5 -6 60.5 -6c40.667 0 71.834 8.16699 93.501 24.5s32.5 39.5 32.5 69.5c0 12 -2.5 22.5 -7.5 31.5s-11.5 16.667 -19.5 23s-17 11.166 -27 14.499s-20 5 -30 5c-6 0 -11.5 -0.5 -16.5 -1.5
s-10.5 -2.16699 -16.5 -3.50098l31 49c58.667 6 100.667 27.167 126 63.5c25.334 36.333 38.001 86.833 38.001 151.5h-132c-0.000976562 -44 -5.33398 -76 -16 -96c-10.667 -20 -27.667 -30 -51 -30c-15.333 0 -27.833 3.5 -37.5 10.5s-17.167 18.167 -22.5 33.5
c-5.33398 15.333 -9.00098 34.833 -11.001 58.5s-3 52.167 -3 85.5c0 31.334 1 58.501 3 81.501s5.66699 42 11 57s13.333 26.333 24 34s24.334 11.5 41.001 11.5c13.334 0 24.001 -3.16699 32.001 -9.5c8.00098 -6.33301 14.168 -14.666 18.501 -24.999
s7.33301 -21.833 9 -34.5s2.5 -25.667 2.5 -39h132c0 64 -16.167 114.667 -48.5 152s-80.5 56 -144.5 56c-32 0 -61.333 -4.33301 -88 -13s-49.667 -23.834 -69 -45.501s-34.333 -50.667 -45 -87s-16 -82.166 -16 -137.499c0 -52.667 4 -96.667 12 -132s20 -64 36 -86
s36 -37.5 60 -46.5s52 -14.167 84 -15.5z" />
    <glyph glyph-name="egrave" unicode="&#xe8;" horiz-adv-x="463" 
d="M203 601h94l-54 144h-138zM305 330l-140.999 -0.00195312v21c0 12.667 1.16699 25.334 3.5 38.001s6.16602 24.167 11.499 34.5c5.33301 10.334 12.5 18.667 21.5 25c9 6.33496 20.5 9.50195 34.5 9.5s25.5 -2.83496 34.5 -8.5c9 -5.66797 16 -14.001 21 -25
c5 -11 8.5 -24.333 10.5 -39.999c2 -15.667 3.33301 -33.834 4 -54.5zM164.001 247.998l273.001 -0.000976562v31c0 41.333 -2.66699 78.833 -8 112.5s-15.333 62.334 -30 86.001s-34.834 42 -60.5 55c-25.667 13 -58.5 19.5 -98.5 19.5
c-46.667 -0.00292969 -84 -7.66992 -112 -23c-28 -15.334 -49.5 -36.001 -64.5 -62.001s-25 -55.667 -30 -89s-7.5 -68 -7.5 -104c0 -34 1.5 -68 4.5 -102s11.167 -64.667 24.5 -92s34 -49.333 62 -66s67 -25 117 -25c66 0 114.333 16.333 145 49
s47.334 80.334 50.001 143.001h-124c-4.00098 -34 -11.334 -59.333 -22 -76c-10.667 -16.667 -27.667 -25 -51 -25c-12.667 0 -23.334 3.5 -32.001 10.5s-15.667 16.333 -21 28c-5.33398 11.667 -9.16699 25 -11.5 40c-2.33496 15 -3.50195 30.5 -3.50098 46.5v43z" />
    <glyph glyph-name="eacute" unicode="&#xe9;" horiz-adv-x="463" 
d="M221 745l-54 -144h94l98 144h-138zM305 330l-140.999 -0.00195312v21c0 12.667 1.16699 25.334 3.5 38.001s6.16602 24.167 11.499 34.5c5.33301 10.334 12.5 18.667 21.5 25c9 6.33496 20.5 9.50195 34.5 9.5s25.5 -2.83496 34.5 -8.5c9 -5.66797 16 -14.001 21 -25
c5 -11 8.5 -24.333 10.5 -39.999c2 -15.667 3.33301 -33.834 4 -54.5zM164.001 247.998l273.001 -0.000976562v31c0 41.333 -2.66699 78.833 -8 112.5s-15.333 62.334 -30 86.001s-34.834 42 -60.5 55c-25.667 13 -58.5 19.5 -98.5 19.5
c-46.667 -0.00292969 -84 -7.66992 -112 -23c-28 -15.334 -49.5 -36.001 -64.5 -62.001s-25 -55.667 -30 -89s-7.5 -68 -7.5 -104c0 -34 1.5 -68 4.5 -102s11.167 -64.667 24.5 -92s34 -49.333 62 -66s67 -25 117 -25c66 0 114.333 16.333 145 49
s47.334 80.334 50.001 143.001h-124c-4.00098 -34 -11.334 -59.333 -22 -76c-10.667 -16.667 -27.667 -25 -51 -25c-12.667 0 -23.334 3.5 -32.001 10.5s-15.667 16.333 -21 28c-5.33398 11.667 -9.16699 25 -11.5 40c-2.33496 15 -3.50195 30.5 -3.50098 46.5v43z" />
    <glyph glyph-name="ecircumflex" unicode="&#xea;" horiz-adv-x="463" 
d="M160 745l-78 -144h100l48 85l46 -85h106l-78 144h-144zM305 330l-140.999 -0.00195312v21c0 12.667 1.16699 25.334 3.5 38.001s6.16602 24.167 11.499 34.5c5.33301 10.334 12.5 18.667 21.5 25c9 6.33496 20.5 9.50195 34.5 9.5s25.5 -2.83496 34.5 -8.5
c9 -5.66797 16 -14.001 21 -25c5 -11 8.5 -24.333 10.5 -39.999c2 -15.667 3.33301 -33.834 4 -54.5zM164.001 247.998l273.001 -0.000976562v31c0 41.333 -2.66699 78.833 -8 112.5s-15.333 62.334 -30 86.001s-34.834 42 -60.5 55c-25.667 13 -58.5 19.5 -98.5 19.5
c-46.667 -0.00292969 -84 -7.66992 -112 -23c-28 -15.334 -49.5 -36.001 -64.5 -62.001s-25 -55.667 -30 -89s-7.5 -68 -7.5 -104c0 -34 1.5 -68 4.5 -102s11.167 -64.667 24.5 -92s34 -49.333 62 -66s67 -25 117 -25c66 0 114.333 16.333 145 49
s47.334 80.334 50.001 143.001h-124c-4.00098 -34 -11.334 -59.333 -22 -76c-10.667 -16.667 -27.667 -25 -51 -25c-12.667 0 -23.334 3.5 -32.001 10.5s-15.667 16.333 -21 28c-5.33398 11.667 -9.16699 25 -11.5 40c-2.33496 15 -3.50195 30.5 -3.50098 46.5v43z" />
    <glyph glyph-name="edieresis" unicode="&#xeb;" horiz-adv-x="463" 
d="M262 728v-118h112v118h-112zM90 728v-118h112v118h-112zM305 330l-140.999 -0.00195312v21c0 12.667 1.16699 25.334 3.5 38.001s6.16602 24.167 11.499 34.5c5.33301 10.334 12.5 18.667 21.5 25c9 6.33496 20.5 9.50195 34.5 9.5s25.5 -2.83496 34.5 -8.5
c9 -5.66797 16 -14.001 21 -25c5 -11 8.5 -24.333 10.5 -39.999c2 -15.667 3.33301 -33.834 4 -54.5zM164.001 247.998l273.001 -0.000976562v31c0 41.333 -2.66699 78.833 -8 112.5s-15.333 62.334 -30 86.001s-34.834 42 -60.5 55c-25.667 13 -58.5 19.5 -98.5 19.5
c-46.667 -0.00292969 -84 -7.66992 -112 -23c-28 -15.334 -49.5 -36.001 -64.5 -62.001s-25 -55.667 -30 -89s-7.5 -68 -7.5 -104c0 -34 1.5 -68 4.5 -102s11.167 -64.667 24.5 -92s34 -49.333 62 -66s67 -25 117 -25c66 0 114.333 16.333 145 49
s47.334 80.334 50.001 143.001h-124c-4.00098 -34 -11.334 -59.333 -22 -76c-10.667 -16.667 -27.667 -25 -51 -25c-12.667 0 -23.334 3.5 -32.001 10.5s-15.667 16.333 -21 28c-5.33398 11.667 -9.16699 25 -11.5 40c-2.33496 15 -3.50195 30.5 -3.50098 46.5v43z" />
    <glyph glyph-name="igrave" unicode="&#xec;" horiz-adv-x="240" 
d="M91 601h94l-54 144h-135zM51 538v-538h138v538h-138z" />
    <glyph glyph-name="iacute" unicode="&#xed;" horiz-adv-x="240" 
d="M109 745l-54 -144h94l98 144h-138zM51 538v-538h138v538h-138z" />
    <glyph glyph-name="icircumflex" unicode="&#xee;" horiz-adv-x="240" 
d="M48 745l-75 -144h97l48 85l46 -85h106l-78 144h-144zM51 538v-538h138v538h-138z" />
    <glyph glyph-name="idieresis" unicode="&#xef;" horiz-adv-x="240" 
d="M150 728v-118h112v118h-112zM-19 728v-118h109v118h-109zM51 538v-538h138v538h-138z" />
    <glyph glyph-name="eth" unicode="&#xf0;" horiz-adv-x="480" 
d="M66 625l39.001 -41.999l77 45c17.333 -20.001 34 -40.168 50 -60.5c16 -20.334 30 -40.167 42 -59.499l-2 -2c-11.333 9.33301 -23 16 -35 20s-23.667 6 -35 6c-30.667 -0.00195312 -57 -6.16895 -79 -18.5c-22 -12.333 -40 -30 -54 -53s-24.333 -50.667 -31 -83
s-10 -68.5 -10 -108.5c0 -46.667 3.33301 -87.834 10 -123.501s18 -65.334 34 -89.001s37.667 -41 65 -52s61.666 -16.167 102.999 -15.5c39.333 0 72.5 5.66699 99.5 17s48.833 28.833 65.5 52.5s28.667 53.167 36 88.5c7.33594 35.333 11.0029 76 11 122
c0 46 -3.5 88.333 -10.5 127s-17.5 74.834 -31.5 108.501s-31.167 65.667 -51.5 96s-43.833 60.166 -70.5 89.499l77 45l-43 42l-75 -45c-10.667 10.667 -21.5 21.167 -32.5 31.5s-22.5 20.833 -34.5 31.5l-104 -61c10.667 -10 21.5 -20.333 32.5 -31
s22.167 -21.667 33.5 -33zM166.001 262.001c0 25.334 0.667969 48.666 2.00098 69.999s4.5 39.833 9.5 55.5s12.5 28 22.5 37s23.333 13.5 40 13.5c28 0 47.333 -13.833 58 -41.499c10.667 -27.667 16 -72.5 16 -134.5c-0.000976562 -64.667 -5.33398 -111.167 -16 -139.5
c-10.667 -28.333 -30 -42.5 -58 -42.5c-16.667 0 -30 4.5 -40 13.5s-17.5 21.5 -22.5 37.5s-8.16699 35.167 -9.5 57.5c-1.33496 22.333 -2.00195 46.833 -2.00098 73.5z" />
    <glyph glyph-name="ntilde" unicode="&#xf1;" horiz-adv-x="500" 
d="M93 610l70 0.00195312c5.33301 24 16 36 32 36c8 0 16.667 -1.83301 26 -5.5s19.166 -7.5 29.499 -11.5s20.833 -7.83301 31.5 -11.5s21.334 -5.5 32.001 -5.5c25.333 0 46.333 11.667 63 35s26.667 53 30 89h-72c-0.00292969 -6.66699 -2.33594 -14.334 -7 -23.001
c-4.66699 -8.66699 -11.667 -13 -21 -13c-10 0 -20 2 -30 6l-48 21c-10 4.67773 -24.333 7.01074 -43 6.99902c-25.333 -0.000976562 -45.833 -10.668 -61.5 -32c-15.667 -21.334 -26.167 -52.001 -31.5 -92zM46 538.002l-0.00195312 -538.001h138v357
c0 59.334 24.333 89.001 73 89.001c20.667 0 35.667 -5.5 45 -16.5c9.33496 -11 14.002 -30.5 14.001 -58.5v-371h138v399c0 54 -11.833 93 -35.499 117c-23.667 24 -57.5 36 -101.5 36c-30 -0.00195312 -56.667 -6.16895 -80 -18.5
c-23.333 -12.335 -42.333 -31.835 -57 -58.5h-2v63h-132z" />
    <glyph glyph-name="ograve" unicode="&#xf2;" horiz-adv-x="480" 
d="M211 601h94l-54 144h-138zM166 269c0 27.333 0.667969 52.666 2.00098 75.999s4.5 43.333 9.5 60s12.5 29.667 22.5 39c10 9.33594 23.333 14.0029 40 14c28 0 47.333 -14.667 58 -44s16 -77.666 16 -144.999c-0.000976562 -67.333 -5.33398 -115.666 -16 -144.999
c-10.667 -29.333 -30 -44 -58 -44c-16.667 0 -30 4.66699 -40 14s-17.5 22.333 -22.5 39s-8.16699 36.667 -9.5 60c-1.33496 23.333 -2.00195 48.666 -2.00098 75.999zM28.001 269c0 -46.667 3.33301 -87.832 10 -123.499s18 -65.334 34 -89.001s37.667 -41 65 -52
s61.666 -16.167 102.999 -15.5c39.333 0 72.5 5.66699 99.5 17s48.833 28.833 65.5 52.5s28.667 53.167 36 88.5c7.33594 35.333 11.0029 76 11 122c-0.00195312 47.333 -3.33496 88.666 -10 123.999c-6.66699 35.334 -18 65.001 -34 89.001
c-16 24.002 -37.667 41.835 -65 53.5c-27.333 11.667 -61.666 17.167 -102.999 16.5c-39.333 -0.00195312 -72.5 -6.16895 -99.5 -18.5c-27 -12.334 -48.833 -30.334 -65.5 -54c-16.667 -23.667 -28.667 -53.167 -36 -88.5s-11 -76 -11 -122z" />
    <glyph glyph-name="oacute" unicode="&#xf3;" horiz-adv-x="480" 
d="M229 745l-54 -144h94l98 144h-138zM166 269c0 27.333 0.667969 52.666 2.00098 75.999s4.5 43.333 9.5 60s12.5 29.667 22.5 39c10 9.33594 23.333 14.0029 40 14c28 0 47.333 -14.667 58 -44s16 -77.666 16 -144.999
c-0.000976562 -67.333 -5.33398 -115.666 -16 -144.999c-10.667 -29.333 -30 -44 -58 -44c-16.667 0 -30 4.66699 -40 14s-17.5 22.333 -22.5 39s-8.16699 36.667 -9.5 60c-1.33496 23.333 -2.00195 48.666 -2.00098 75.999zM28.001 269
c0 -46.667 3.33301 -87.832 10 -123.499s18 -65.334 34 -89.001s37.667 -41 65 -52s61.666 -16.167 102.999 -15.5c39.333 0 72.5 5.66699 99.5 17s48.833 28.833 65.5 52.5s28.667 53.167 36 88.5c7.33594 35.333 11.0029 76 11 122
c-0.00195312 47.333 -3.33496 88.666 -10 123.999c-6.66699 35.334 -18 65.001 -34 89.001c-16 24.002 -37.667 41.835 -65 53.5c-27.333 11.667 -61.666 17.167 -102.999 16.5c-39.333 -0.00195312 -72.5 -6.16895 -99.5 -18.5c-27 -12.334 -48.833 -30.334 -65.5 -54
c-16.667 -23.667 -28.667 -53.167 -36 -88.5s-11 -76 -11 -122z" />
    <glyph glyph-name="ocircumflex" unicode="&#xf4;" horiz-adv-x="480" 
d="M168 745l-78 -144h100l48 85l46 -85h106l-78 144h-144zM166 269c0 27.333 0.667969 52.666 2.00098 75.999s4.5 43.333 9.5 60s12.5 29.667 22.5 39c10 9.33594 23.333 14.0029 40 14c28 0 47.333 -14.667 58 -44s16 -77.666 16 -144.999
c-0.000976562 -67.333 -5.33398 -115.666 -16 -144.999c-10.667 -29.333 -30 -44 -58 -44c-16.667 0 -30 4.66699 -40 14s-17.5 22.333 -22.5 39s-8.16699 36.667 -9.5 60c-1.33496 23.333 -2.00195 48.666 -2.00098 75.999zM28.001 269
c0 -46.667 3.33301 -87.832 10 -123.499s18 -65.334 34 -89.001s37.667 -41 65 -52s61.666 -16.167 102.999 -15.5c39.333 0 72.5 5.66699 99.5 17s48.833 28.833 65.5 52.5s28.667 53.167 36 88.5c7.33594 35.333 11.0029 76 11 122
c-0.00195312 47.333 -3.33496 88.666 -10 123.999c-6.66699 35.334 -18 65.001 -34 89.001c-16 24.002 -37.667 41.835 -65 53.5c-27.333 11.667 -61.666 17.167 -102.999 16.5c-39.333 -0.00195312 -72.5 -6.16895 -99.5 -18.5c-27 -12.334 -48.833 -30.334 -65.5 -54
c-16.667 -23.667 -28.667 -53.167 -36 -88.5s-11 -76 -11 -122z" />
    <glyph glyph-name="otilde" unicode="&#xf5;" horiz-adv-x="480" 
d="M83 610l70 0.00195312c5.33301 24 16 36 32 36c8 0 16.667 -1.83301 26 -5.5s19.166 -7.5 29.499 -11.5s20.833 -7.83301 31.5 -11.5s21.334 -5.5 32.001 -5.5c25.333 0 46.333 11.667 63 35s26.667 53 30 89h-72c-0.00390625 -6.66699 -2.33691 -14.334 -7 -23.001
c-4.66699 -8.66699 -11.667 -13 -21 -13c-10 0 -20 2 -30 6l-48 21c-10 4.67773 -24.333 7.01074 -43 6.99902c-25.333 -0.000976562 -45.833 -10.668 -61.5 -32c-15.667 -21.334 -26.167 -52.001 -31.5 -92zM166 269.002c0 27.333 0.667969 52.666 2.00098 75.999
s4.5 43.333 9.5 60s12.5 29.667 22.5 39c10 9.33594 23.333 14.0029 40 14c28 0 47.333 -14.667 58 -44s16 -77.666 16 -144.999c-0.000976562 -67.333 -5.33398 -115.666 -16 -144.999c-10.667 -29.333 -30 -44 -58 -44c-16.667 0 -30 4.66699 -40 14
s-17.5 22.333 -22.5 39s-8.16699 36.667 -9.5 60c-1.33496 23.333 -2.00195 48.666 -2.00098 75.999zM28.001 269.002c0 -46.667 3.33301 -87.832 10 -123.499s18 -65.334 34 -89.001s37.667 -41 65 -52s61.666 -16.167 102.999 -15.5c39.333 0 72.5 5.66699 99.5 17
s48.833 28.833 65.5 52.5s28.667 53.167 36 88.5c7.33594 35.333 11.0029 76 11 122c-0.00195312 47.333 -3.33496 88.666 -10 123.999c-6.66699 35.334 -18 65.001 -34 89.001c-16 24.002 -37.667 41.835 -65 53.5c-27.333 11.667 -61.666 17.167 -102.999 16.5
c-39.333 -0.00195312 -72.5 -6.16895 -99.5 -18.5c-27 -12.334 -48.833 -30.334 -65.5 -54c-16.667 -23.667 -28.667 -53.167 -36 -88.5s-11 -76 -11 -122z" />
    <glyph glyph-name="odieresis" unicode="&#xf6;" horiz-adv-x="480" 
d="M270 728v-118h112v118h-112zM98 728v-118h112v118h-112zM166 269c0 27.333 0.667969 52.666 2.00098 75.999s4.5 43.333 9.5 60s12.5 29.667 22.5 39c10 9.33594 23.333 14.0029 40 14c28 0 47.333 -14.667 58 -44s16 -77.666 16 -144.999
c-0.000976562 -67.333 -5.33398 -115.666 -16 -144.999c-10.667 -29.333 -30 -44 -58 -44c-16.667 0 -30 4.66699 -40 14s-17.5 22.333 -22.5 39s-8.16699 36.667 -9.5 60c-1.33496 23.333 -2.00195 48.666 -2.00098 75.999zM28.001 269
c0 -46.667 3.33301 -87.832 10 -123.499s18 -65.334 34 -89.001s37.667 -41 65 -52s61.666 -16.167 102.999 -15.5c39.333 0 72.5 5.66699 99.5 17s48.833 28.833 65.5 52.5s28.667 53.167 36 88.5c7.33594 35.333 11.0029 76 11 122
c-0.00195312 47.333 -3.33496 88.666 -10 123.999c-6.66699 35.334 -18 65.001 -34 89.001c-16 24.002 -37.667 41.835 -65 53.5c-27.333 11.667 -61.666 17.167 -102.999 16.5c-39.333 -0.00195312 -72.5 -6.16895 -99.5 -18.5c-27 -12.334 -48.833 -30.334 -65.5 -54
c-16.667 -23.667 -28.667 -53.167 -36 -88.5s-11 -76 -11 -122z" />
    <glyph glyph-name="divide" unicode="&#xf7;" horiz-adv-x="600" 
d="M203 41c0 -27.333 9.16797 -49.833 27.501 -67.5s41.5 -26.5 69.5 -26.5s51.167 8.83301 69.5 26.5c18.334 17.667 27.501 40.167 27.5 67.5c0 28 -9.16699 51.167 -27.5 69.5s-41.5 27.5 -69.5 27.5s-51.167 -9.16699 -69.5 -27.5
c-18.334 -18.333 -27.501 -41.5 -27.501 -69.5zM203.001 465c0 -28 9.16797 -51.168 27.501 -69.501s41.5 -27.5 69.5 -27.5c28 0.000976562 51.167 9.16797 69.5 27.501c18.334 18.334 27.501 41.501 27.5 69.501c0 28 -9.16699 51.167 -27.5 69.5s-41.5 27.5 -69.5 27.5
c-28 -0.00292969 -51.167 -9.16992 -69.5 -27.5c-18.334 -18.334 -27.501 -41.501 -27.501 -69.501zM47.002 314.999v-124h506v124h-506z" />
    <glyph glyph-name="oslash" unicode="&#xf8;" horiz-adv-x="480" 
d="M90 35l-37 -67l44 -23l34 62c26 -13.333 62.333 -19.333 109 -18c39.333 0 72.5 5.66699 99.5 17s48.833 28.833 65.5 52.5s28.667 53.167 36 88.5c7.33594 35.333 11.0029 76 11 122c0 56 -4.5 103.333 -13.5 142s-25.167 69.334 -48.5 92.001l37 70l-44 23l-34 -65
c-28 14.667 -64.333 21.667 -109 21c-39.333 -0.00195312 -72.5 -6.16895 -99.5 -18.5c-27 -12.334 -48.833 -30.334 -65.5 -54c-16.667 -23.667 -28.667 -53.167 -36 -88.5s-11 -76 -11 -122c0 -56 4.5 -103.333 13.5 -142s25.167 -69.334 48.5 -92.001zM186 113
l124 237.999h2c0.666992 -11.333 1.16699 -23.833 1.5 -37.5c0.342773 -13.667 0.509766 -28.5 0.5 -44.5c-0.000976562 -67.333 -5.33398 -115.666 -16 -144.999c-10.667 -29.333 -30 -44 -58 -44c-24.667 0 -42.667 11 -54 33zM293 423.999l-123 -237.999h-2
c-0.666992 6 -1.16699 12.167 -1.5 18.5c-0.338867 6.33301 -0.505859 13.166 -0.500977 20.499v44c0 27.333 0.666992 52.666 2 75.999s4.5 43.333 9.5 60s12.5 29.667 22.5 39c10 9.33594 23.333 14.0029 40 14c24.667 0 42.334 -11.333 53.001 -33.999z" />
    <glyph glyph-name="ugrave" unicode="&#xf9;" horiz-adv-x="500" 
d="M221 601h94l-54 144h-138zM322 63l0.000976562 -63h132v538h-138v-357c0 -59.333 -24.333 -89 -73 -89c-20.667 0 -35.667 5.5 -45 16.5c-9.33398 11 -14.001 30.5 -14.001 58.5v371h-138v-399c0 -54 11.833 -92.5 35.5 -115.5s57.5 -34.5 101.5 -34.5
c30 0 56.667 5.66699 80 17s42.333 30.333 57 57h2z" />
    <glyph glyph-name="uacute" unicode="&#xfa;" horiz-adv-x="500" 
d="M239 745l-54 -144h94l98 144h-138zM322 63l0.000976562 -63h132v538h-138v-357c0 -59.333 -24.333 -89 -73 -89c-20.667 0 -35.667 5.5 -45 16.5c-9.33398 11 -14.001 30.5 -14.001 58.5v371h-138v-399c0 -54 11.833 -92.5 35.5 -115.5s57.5 -34.5 101.5 -34.5
c30 0 56.667 5.66699 80 17s42.333 30.333 57 57h2z" />
    <glyph glyph-name="ucircumflex" unicode="&#xfb;" horiz-adv-x="500" 
d="M178 745l-78 -144h100l48 85l46 -85h106l-78 144h-144zM322 63l0.000976562 -63h132v538h-138v-357c0 -59.333 -24.333 -89 -73 -89c-20.667 0 -35.667 5.5 -45 16.5c-9.33398 11 -14.001 30.5 -14.001 58.5v371h-138v-399c0 -54 11.833 -92.5 35.5 -115.5
s57.5 -34.5 101.5 -34.5c30 0 56.667 5.66699 80 17s42.333 30.333 57 57h2z" />
    <glyph glyph-name="udieresis" unicode="&#xfc;" horiz-adv-x="500" 
d="M280 728v-118h112v118h-112zM108 728v-118h112v118h-112zM322 63l0.000976562 -63h132v538h-138v-357c0 -59.333 -24.333 -89 -73 -89c-20.667 0 -35.667 5.5 -45 16.5c-9.33398 11 -14.001 30.5 -14.001 58.5v371h-138v-399c0 -54 11.833 -92.5 35.5 -115.5
s57.5 -34.5 101.5 -34.5c30 0 56.667 5.66699 80 17s42.333 30.333 57 57h2z" />
    <glyph glyph-name="yacute" unicode="&#xfd;" horiz-adv-x="444" 
d="M211 745l-54 -144h94l98 144h-138zM46 -70v-103.001h56c32 -0.000976562 58.5 2.33203 79.5 7c21 4.66699 39 14.5 54 29.5s28 36.333 39 64s22.5 63.834 34.5 108.501l130 502h-138l-70 -372h-2l-80 372h-144l151 -538c-2 -22 -8.5 -39.667 -19.5 -53
s-29.167 -20 -54.5 -20c-12 0 -24 1 -36 3z" />
    <glyph glyph-name="thorn" unicode="&#xfe;" horiz-adv-x="500" 
d="M46 714l-0.00195312 -887h138v223h2c14.667 -21.333 31.167 -36.833 49.5 -46.5s40.5 -14.5 66.5 -14.5c56.667 0 98.334 21.667 125.001 65s40 115 40 215s-13.333 172.167 -39.999 216.5c-26.667 44.333 -68.334 66.5 -125 66.5c-28 0 -51.333 -5.5 -70 -16.5
s-34 -29.167 -46 -54.5h-2v233h-138zM183.998 269c0 58.667 4.5 102.833 13.5 132.5s28.833 44.5 59.5 44.5c30 0 49.5 -14.833 58.5 -44.499c9 -29.667 13.5 -73.834 13.5 -132.501s-4.5 -102.834 -13.5 -132.501s-28.5 -44.5 -58.5 -44.5
c-30.667 0 -50.5 14.833 -59.5 44.5s-13.5 73.834 -13.5 132.501z" />
    <glyph glyph-name="ydieresis" unicode="&#xff;" horiz-adv-x="444" 
d="M252 728v-118h112v118h-112zM80 728v-118h112v118h-112zM46 -70v-103.001h56c32 -0.000976562 58.5 2.33203 79.5 7c21 4.66699 39 14.5 54 29.5s28 36.333 39 64s22.5 63.834 34.5 108.501l130 502h-138l-70 -372h-2l-80 372h-144l151 -538
c-2 -22 -8.5 -39.667 -19.5 -53s-29.167 -20 -54.5 -20c-12 0 -24 1 -36 3z" />
    <glyph glyph-name="Amacron" unicode="&#x100;" 
d="M348 269l-69 321h-2l-69 -321h140zM367 714l189 -714h-150l-33 151h-190l-33 -151h-150l189 714h178zM423 840h-291v-76h291v76z" />
    <glyph glyph-name="amacron" unicode="&#x101;" horiz-adv-x="481" 
d="M297 269l-0.00195312 -105.999c0 -14.667 -2.66699 -27.334 -8 -38.001s-12.166 -19.334 -20.499 -26.001s-17.5 -11.5 -27.5 -14.5s-19.667 -4.5 -29 -4.5c-18.667 0 -32 7.33301 -40 22s-12 32.334 -12 53.001c0 24 6 43 18 57s32 24 60 30
c8.66699 2 18.334 5.16699 29.001 9.5c10.667 4.33398 20.667 10.167 30 17.5zM44.998 373.001l123.997 -0.000976562v15c0 21.333 5.33301 38.333 16 51s26.667 19 48 19c23.333 -0.000976562 39.833 -5.83398 49.5 -17.5c9.66699 -11.667 14.5 -27.834 14.5 -48.5
c0 -18 -4 -31.667 -12 -41s-22.333 -16.666 -42.999 -21.999l-78 -21c-24 -6.66699 -44.5 -14.334 -61.5 -23c-17 -8.66699 -31 -19.5 -42 -32.5s-19.167 -28.667 -24.5 -47s-8 -40.166 -8 -65.499c0 -18 2.33301 -36.167 7 -54.5s12 -34.833 22 -49.5
s23.333 -26.167 40 -34.5s37 -12.5 61 -12.5c33.333 0 60.5 4.16699 81.5 12.5s39.5 26.5 55.5 54.5h2c2.00391 -9.33301 4.1709 -18.833 6.50098 -28.5c2.33301 -9.66699 5.83301 -18.834 10.5 -27.501h132c-6.66699 16 -11.167 31 -13.5 45s-3.5 33.667 -3.5 59v283
c0 24 -2.5 46.167 -7.5 66.5s-14.5 37.833 -28.5 52.5c-14 14.668 -33.667 26.001 -59 34c-25.333 8 -58.666 12 -99.999 12c-26 0 -50.5 -2.83301 -73.5 -8.5s-43 -15 -60 -28s-30.5 -30 -40.5 -51s-15 -47.167 -15 -78.5v-13zM381.995 682h-291v-76h291v76z" />
    <glyph glyph-name="Abreve" unicode="&#x102;" 
d="M348 269l-69 321h-2l-69 -321h140zM367 714l189 -714h-150l-33 151h-190l-33 -151h-150l189 714h178zM203 905l-63.001 0.000976562c0 -13.335 2.16699 -28.168 6.5 -44.5c4.33301 -16.334 11.5 -31.667 21.5 -45.999c10 -14.333 24 -26.333 42 -36
s40.333 -14.5 67 -14.5c26.667 0.00878906 49 4.8418 67 14.5c18 9.66699 32.167 21.667 42.5 36c10.334 14.333 17.667 29.666 22 45.999c4.33691 16.333 6.50391 31.166 6.50098 44.499h-64c-2 -19.335 -10 -35.002 -24 -47c-14 -12 -30.667 -18 -50 -18s-36 6 -50 18
s-22 27.667 -24 47z" />
    <glyph glyph-name="abreve" unicode="&#x103;" horiz-adv-x="481" 
d="M297 269l-0.00195312 -105.999c0 -14.667 -2.66699 -27.334 -8 -38.001s-12.166 -19.334 -20.499 -26.001s-17.5 -11.5 -27.5 -14.5s-19.667 -4.5 -29 -4.5c-18.667 0 -32 7.33301 -40 22s-12 32.334 -12 53.001c0 24 6 43 18 57s32 24 60 30
c8.66699 2 18.334 5.16699 29.001 9.5c10.667 4.33398 20.667 10.167 30 17.5zM44.998 373.001l123.997 -0.000976562v15c0 21.333 5.33301 38.333 16 51s26.667 19 48 19c23.333 -0.000976562 39.833 -5.83398 49.5 -17.5c9.66699 -11.667 14.5 -27.834 14.5 -48.5
c0 -18 -4 -31.667 -12 -41s-22.333 -16.666 -42.999 -21.999l-78 -21c-24 -6.66699 -44.5 -14.334 -61.5 -23c-17 -8.66699 -31 -19.5 -42 -32.5s-19.167 -28.667 -24.5 -47s-8 -40.166 -8 -65.499c0 -18 2.33301 -36.167 7 -54.5s12 -34.833 22 -49.5
s23.333 -26.167 40 -34.5s37 -12.5 61 -12.5c33.333 0 60.5 4.16699 81.5 12.5s39.5 26.5 55.5 54.5h2c2.00391 -9.33301 4.1709 -18.833 6.50098 -28.5c2.33301 -9.66699 5.83301 -18.834 10.5 -27.501h132c-6.66699 16 -11.167 31 -13.5 45s-3.5 33.667 -3.5 59v283
c0 24 -2.5 46.167 -7.5 66.5s-14.5 37.833 -28.5 52.5c-14 14.668 -33.667 26.001 -59 34c-25.333 8 -58.666 12 -99.999 12c-26 0 -50.5 -2.83301 -73.5 -8.5s-43 -15 -60 -28s-30.5 -30 -40.5 -51s-15 -47.167 -15 -78.5v-13zM161.995 745l-63 0.00292969
c0 -13.335 2.16699 -28.168 6.5 -44.5c4.33301 -16.334 11.5 -31.667 21.5 -46s24 -26.333 42 -36s40.333 -14.5 67 -14.5c26.667 0.00683594 49 4.83984 67 14.5c18 9.66699 32.167 21.667 42.5 36c10.334 14.333 17.667 29.666 22 45.999
c4.33594 16.333 6.50293 31.166 6.5 44.499h-64c-2 -19.335 -10 -35.002 -24 -47.001c-14 -12 -30.667 -18 -50 -18s-36 6 -50 18s-22 27.667 -24 47z" />
    <glyph glyph-name="Aogonek" unicode="&#x104;" 
d="M462 -221c-18 0 -33.1719 2.5 -45.5049 7.5s-22.333 11.5 -30 19.5s-13 17.167 -15.999 27.5c-3 10.333 -4.5 20.833 -4.5 31.5c0 30 10.333 56.667 31 80s51.334 41.666 92.001 54.999h-83l-33 151h-190l-33 -151h-150l189 714h178l189 -714
c-21.334 -13.333 -38.667 -25.666 -51.999 -36.999c-13.333 -11.333 -23.666 -21.666 -30.999 -30.999s-12.333 -18 -15 -26c-2.66992 -8 -4.00293 -15.667 -3.99902 -23c0 -11.333 3.33301 -20.833 10 -28.5s16.334 -11.5 29.001 -11.5
c12 -0.000976562 22.333 1.33203 30.999 3.99902c8.66895 2.66699 18.002 6.66699 28 12l19 -57c-14 -7.33301 -31.5 -13 -52.5 -17c-21.001 -4 -39.834 -6 -56.5 -6zM347.995 269l-69 321h-2l-69 -321h140z" />
    <glyph glyph-name="aogonek" unicode="&#x105;" horiz-adv-x="481" 
d="M352 -221c-18 0 -33.1748 2.49609 -45.5078 7.49609s-22.333 11.5 -30 19.5s-13 17.167 -15.999 27.5c-3 10.333 -4.5 20.833 -4.5 31.5c0 30 10.333 56.667 31 80s51.334 41.666 92.001 54.999h-65c-4.66699 8.66699 -8.16699 17.834 -10.5 27.501
s-4.5 19.167 -6.5 28.5h-2c-16 -28 -34.5 -46.167 -55.5 -54.5s-48.167 -12.5 -81.5 -12.5c-24 0 -44.333 4.16699 -61 12.5s-30 19.833 -40 34.5s-17.333 31.167 -22 49.5s-7 36.5 -7 54.5c0 25.333 2.66699 47.166 8 65.499s13.5 34 24.5 47s25 23.833 42 32.5
s37.5 16.334 61.5 23.001l78 21c20.667 5.33398 35 12.667 43 22c8 9.33398 12 23.001 12 41.001c-0.00195312 20.667 -4.83496 36.834 -14.5 48.501c-9.66699 11.667 -26.167 17.5 -49.5 17.5c-21.333 -0.000976562 -37.333 -6.33398 -48 -19
c-10.667 -12.667 -16 -29.667 -16 -51v-15h-124v13c0 31.334 5 57.501 15 78.501s23.5 38 40.5 51c17 13.002 37 22.335 60 28c23 5.6709 47.5 8.50391 73.5 8.5c41.334 0 74.667 -4 100 -12c25.334 -8 45.001 -19.333 59.001 -34s23.5 -32.167 28.5 -52.5
s7.5 -42.5 7.5 -66.5v-283c0.00683594 -25.333 1.17383 -45 3.50098 -59c2.33301 -14 6.83301 -29 13.5 -45c-21.333 -13.333 -38.666 -25.666 -51.999 -36.999s-23.666 -21.666 -30.999 -30.999s-12.333 -17.833 -15 -25.5
c-2.66895 -7.66699 -4.00195 -15.5 -3.99902 -23.5c0 -11.333 3.33301 -20.833 10 -28.5s16.334 -11.5 29.001 -11.5c12 -0.000976562 22.333 1.33203 31 3.99902s18 6.66699 28 12l19 -57c-14 -7.33301 -31.5 -13 -52.5 -17c-21.001 -4 -39.834 -6 -56.5 -6z
M211.992 79.9961c9.33301 0 19.001 1.49902 29.001 4.49902s19.167 7.83301 27.5 14.5c8.33398 6.66699 15.167 15.334 20.499 26.001c5.33398 10.667 8.00098 23.334 8 38.001v106c-9.33301 -7.33301 -19.333 -13.166 -30 -17.499
c-10.667 -4.33398 -20.334 -7.50098 -29 -9.50098c-28 -6 -48 -16 -60 -30s-18 -33 -18 -57c0 -20.667 4 -38.334 12 -53.001s21.333 -22 40 -22z" />
    <glyph glyph-name="Cacute" unicode="&#x106;" horiz-adv-x="537" 
d="M355 473c0 52 -6.16699 89.835 -18.5 113.501c-12.333 23.668 -34.833 35.501 -67.5 35.5c-18 0 -32.833 -4.83301 -44.5 -14.5s-20.834 -25.334 -27.501 -47.001s-11.334 -50 -14.001 -85s-4 -77.833 -4 -128.5c0.000976562 -54 1.83398 -97.667 5.5 -131
c3.66699 -33.333 9.33398 -59.166 17 -77.499c7.66699 -18.333 17.334 -30.666 29 -36.999c11.667 -6.33301 25.167 -9.5 40.5 -9.5c12.667 0 24.5 2.16699 35.5 6.5s20.5 13 28.5 26s14.333 31.333 19 55s7 54.834 7 93.501h144c0 -38.667 -3 -75.334 -9 -110.001
s-17.167 -65 -33.5 -91s-39.333 -46.333 -69 -61s-68.167 -22 -115.5 -22c-54 0 -97 8.66699 -129 26s-56.5 42.333 -73.5 75s-28 71.667 -33 117s-7.5 95.333 -7.5 150c0 54 2.5 103.833 7.5 149.5s16 84.834 33 117.5c17 32.667 41.5 58.167 73.5 76.5s75 27.5 129 27.5
c51.333 0 91.833 -8.33301 121.5 -25s51.834 -37.834 66.501 -63.501s23.834 -53.334 27.501 -83.001s5.5 -57.5 5.5 -83.5h-144zM414 900.002l-98 -144h-94l54 144h138z" />
    <glyph glyph-name="cacute" unicode="&#x107;" horiz-adv-x="463" 
d="M305 344c-0.00488281 13.333 -0.836914 26.334 -2.49902 39.001c-1.66699 12.667 -4.66699 24.167 -9 34.5c-4.33301 10.335 -10.5 18.668 -18.5 25c-8 6.33496 -18.667 9.50195 -32 9.5c-16.667 -0.00292969 -30.334 -3.83594 -41.001 -11.5
c-10.667 -7.66699 -18.667 -19 -24 -34c-5.33398 -15 -9.00098 -34 -11.001 -57s-3 -50.167 -3 -81.5c0 -33.333 1 -61.833 3 -85.5s5.66699 -43.167 11 -58.5s12.833 -26.5 22.5 -33.5s22.167 -10.5 37.5 -10.5c23.333 0 40.333 10 51 30s16 52 16 96h132
c0 -70.667 -15.833 -124.5 -47.499 -161.5c-31.667 -37 -84.167 -55.5 -157.5 -55.5c-34.667 0 -64.834 4.16699 -90.501 12.5s-47 23.333 -64 45s-29.833 50.667 -38.5 87s-13 81.5 -13 135.5c0 55.333 5.33301 101.166 16 137.499s25.667 65.333 45 87
c19.333 21.668 42.333 36.835 69 45.501c26.667 8.6709 56 13.0039 88 13c64 -0.00195312 112.167 -18.6689 144.5 -56.001c32.334 -37.333 48.501 -88 48.501 -152h-132zM367.001 745.001l-98 -144h-94l54 144h138z" />
    <glyph glyph-name="Ccircumflex" unicode="&#x108;" horiz-adv-x="537" 
d="M355 473l143.999 0.00390625c-0.00390625 26 -1.83691 53.833 -5.5 83.499c-3.66797 29.667 -12.835 57.334 -27.501 83c-14.667 25.667 -36.834 46.834 -66.5 63.5c-29.667 16.6699 -70.167 25.0029 -121.5 25c-54 -0.00292969 -97 -9.16992 -129 -27.5
c-32 -18.333 -56.5 -43.833 -73.5 -76.5s-28 -71.834 -33 -117.501s-7.5 -95.5 -7.5 -149.5c0 -54.667 2.5 -104.667 7.5 -150s16 -84.333 33 -117s41.5 -57.667 73.5 -75s75 -26 129 -26c47.333 0 85.833 7.33301 115.5 22s52.667 35 69 61
c16.334 26 27.501 56.333 33.501 91s9 71.334 9 110.001h-144c-0.00390625 -38.667 -2.33691 -69.834 -6.99902 -93.501c-4.66699 -23.667 -11 -42 -18.999 -55c-8 -13 -17.5 -21.667 -28.5 -26s-22.833 -6.5 -35.499 -6.5c-15.333 0 -28.833 3.16699 -40.5 9.5
s-21.334 18.666 -29.001 36.999s-13.334 44.166 -17.001 77.499s-5.5 77 -5.5 131c0.000976562 50.667 1.33398 93.5 4 128.5c2.66699 35 7.33398 63.333 14 84.999c6.66699 21.668 15.834 37.335 27.5 47.001c11.667 9.67188 26.5 14.5049 44.5 14.5
c32.667 0 55.167 -11.833 67.5 -35.5c12.334 -23.667 18.501 -61.5 18.5 -113.5zM196.999 922.004l-76 -144h98l48 85l46 -85h105l-77 144h-144z" />
    <glyph glyph-name="ccircumflex" unicode="&#x109;" horiz-adv-x="463" 
d="M305 344l131.997 -0.00195312c0 64 -16.167 114.667 -48.5 152s-80.5 56 -144.5 56c-32 0 -61.333 -4.33301 -88 -13s-49.667 -23.834 -69 -45.501s-34.333 -50.667 -45 -87s-16 -82.166 -16 -137.499c0 -54 4.33301 -99.167 13 -135.5s21.5 -65.333 38.5 -87
s38.333 -36.667 64 -45s55.834 -12.5 90.501 -12.5c73.333 0 125.833 18.5 157.5 55.5s47.5 90.833 47.5 161.5h-132c-0.000976562 -44 -5.33398 -76 -16 -96c-10.667 -20 -27.667 -30 -51 -30c-15.333 0 -27.833 3.5 -37.5 10.5s-17.167 18.167 -22.5 33.5
c-5.33398 15.333 -9.00098 34.833 -11.001 58.5s-3 52.167 -3 85.5c0 31.334 1 58.501 3 81.501s5.66699 42 11 57s13.333 26.333 24 34s24.334 11.5 41.001 11.5c13.334 0 24.001 -3.16699 32.001 -9.5c8.00098 -6.33301 14.168 -14.666 18.501 -24.999
s7.33301 -21.833 9 -34.5s2.5 -25.667 2.5 -39zM157.997 745.998l-76 -144h98l48 85l46 -85h105l-77 144h-144z" />
    <glyph glyph-name="Cdotaccent" unicode="&#x10a;" horiz-adv-x="537" 
d="M355 473l143.999 0.00390625c-0.00390625 26 -1.83691 53.833 -5.5 83.499c-3.66797 29.667 -12.835 57.334 -27.501 83c-14.667 25.667 -36.834 46.834 -66.5 63.5c-29.667 16.6699 -70.167 25.0029 -121.5 25c-54 -0.00292969 -97 -9.16992 -129 -27.5
c-32 -18.333 -56.5 -43.833 -73.5 -76.5s-28 -71.834 -33 -117.501s-7.5 -95.5 -7.5 -149.5c0 -54.667 2.5 -104.667 7.5 -150s16 -84.333 33 -117s41.5 -57.667 73.5 -75s75 -26 129 -26c47.333 0 85.833 7.33301 115.5 22s52.667 35 69 61
c16.334 26 27.501 56.333 33.501 91s9 71.334 9 110.001h-144c-0.00390625 -38.667 -2.33691 -69.834 -6.99902 -93.501c-4.66699 -23.667 -11 -42 -18.999 -55c-8 -13 -17.5 -21.667 -28.5 -26s-22.833 -6.5 -35.499 -6.5c-15.333 0 -28.833 3.16699 -40.5 9.5
s-21.334 18.666 -29.001 36.999s-13.334 44.166 -17.001 77.499s-5.5 77 -5.5 131c0.000976562 50.667 1.33398 93.5 4 128.5c2.66699 35 7.33398 63.333 14 84.999c6.66699 21.668 15.834 37.335 27.5 47.001c11.667 9.67188 26.5 14.5049 44.5 14.5
c32.667 0 55.167 -11.833 67.5 -35.5c12.334 -23.667 18.501 -61.5 18.5 -113.5zM325.999 896.004h-112v-118h112v118z" />
    <glyph glyph-name="cdotaccent" unicode="&#x10b;" horiz-adv-x="463" 
d="M305 344l131.997 -0.00195312c0 64 -16.167 114.667 -48.5 152s-80.5 56 -144.5 56c-32 0 -61.333 -4.33301 -88 -13s-49.667 -23.834 -69 -45.501s-34.333 -50.667 -45 -87s-16 -82.166 -16 -137.499c0 -54 4.33301 -99.167 13 -135.5s21.5 -65.333 38.5 -87
s38.333 -36.667 64 -45s55.834 -12.5 90.501 -12.5c73.333 0 125.833 18.5 157.5 55.5s47.5 90.833 47.5 161.5h-132c-0.000976562 -44 -5.33398 -76 -16 -96c-10.667 -20 -27.667 -30 -51 -30c-15.333 0 -27.833 3.5 -37.5 10.5s-17.167 18.167 -22.5 33.5
c-5.33398 15.333 -9.00098 34.833 -11.001 58.5s-3 52.167 -3 85.5c0 31.334 1 58.501 3 81.501s5.66699 42 11 57s13.333 26.333 24 34s24.334 11.5 41.001 11.5c13.334 0 24.001 -3.16699 32.001 -9.5c8.00098 -6.33301 14.168 -14.666 18.501 -24.999
s7.33301 -21.833 9 -34.5s2.5 -25.667 2.5 -39zM286.997 723.998h-112v-118h112v118z" />
    <glyph glyph-name="Ccaron" unicode="&#x10c;" horiz-adv-x="537" 
d="M355 473l143.999 0.00390625c-0.00390625 26 -1.83691 53.833 -5.5 83.499c-3.66797 29.667 -12.835 57.334 -27.501 83c-14.667 25.667 -36.834 46.834 -66.5 63.5c-29.667 16.6699 -70.167 25.0029 -121.5 25c-54 -0.00292969 -97 -9.16992 -129 -27.5
c-32 -18.333 -56.5 -43.833 -73.5 -76.5s-28 -71.834 -33 -117.501s-7.5 -95.5 -7.5 -149.5c0 -54.667 2.5 -104.667 7.5 -150s16 -84.333 33 -117s41.5 -57.667 73.5 -75s75 -26 129 -26c47.333 0 85.833 7.33301 115.5 22s52.667 35 69 61
c16.334 26 27.501 56.333 33.501 91s9 71.334 9 110.001h-144c-0.00390625 -38.667 -2.33691 -69.834 -6.99902 -93.501c-4.66699 -23.667 -11 -42 -18.999 -55c-8 -13 -17.5 -21.667 -28.5 -26s-22.833 -6.5 -35.499 -6.5c-15.333 0 -28.833 3.16699 -40.5 9.5
s-21.334 18.666 -29.001 36.999s-13.334 44.166 -17.001 77.499s-5.5 77 -5.5 131c0.000976562 50.667 1.33398 93.5 4 128.5c2.66699 35 7.33398 63.333 14 84.999c6.66699 21.668 15.834 37.335 27.5 47.001c11.667 9.67188 26.5 14.5049 44.5 14.5
c32.667 0 55.167 -11.833 67.5 -35.5c12.334 -23.667 18.501 -61.5 18.5 -113.5zM120.999 922.004l76 -144h144l77 144h-99l-48 -85l-46 85h-104z" />
    <glyph glyph-name="ccaron" unicode="&#x10d;" horiz-adv-x="463" 
d="M305 344l131.997 -0.00195312c0 64 -16.167 114.667 -48.5 152s-80.5 56 -144.5 56c-32 0 -61.333 -4.33301 -88 -13s-49.667 -23.834 -69 -45.501s-34.333 -50.667 -45 -87s-16 -82.166 -16 -137.499c0 -54 4.33301 -99.167 13 -135.5s21.5 -65.333 38.5 -87
s38.333 -36.667 64 -45s55.834 -12.5 90.501 -12.5c73.333 0 125.833 18.5 157.5 55.5s47.5 90.833 47.5 161.5h-132c-0.000976562 -44 -5.33398 -76 -16 -96c-10.667 -20 -27.667 -30 -51 -30c-15.333 0 -27.833 3.5 -37.5 10.5s-17.167 18.167 -22.5 33.5
c-5.33398 15.333 -9.00098 34.833 -11.001 58.5s-3 52.167 -3 85.5c0 31.334 1 58.501 3 81.501s5.66699 42 11 57s13.333 26.333 24 34s24.334 11.5 41.001 11.5c13.334 0 24.001 -3.16699 32.001 -9.5c8.00098 -6.33301 14.168 -14.666 18.501 -24.999
s7.33301 -21.833 9 -34.5s2.5 -25.667 2.5 -39zM81.9971 745.998l76 -144h144l77 144h-99l-48 -85l-46 85h-104z" />
    <glyph glyph-name="Dcaron" unicode="&#x10e;" horiz-adv-x="574" 
d="M201 106v502.001h61c27.333 -0.00488281 49.166 -5.17188 65.499 -15.501c16.334 -10.334 28.667 -25.667 37 -46c8.33301 -20.335 13.833 -45.835 16.5 -76.5c2.66699 -30.667 4 -66.334 4 -107c0 -48.667 -1.5 -89.334 -4.5 -122c-3 -32.667 -9 -59 -18 -79
s-21.167 -34.333 -36.5 -43s-35.666 -13 -60.999 -13h-64zM57 714.001l-0.00195312 -714h227c48 0 87.667 7.33301 119 22s56.333 37 75 67s31.834 68.167 39.501 114.5c7.67285 46.333 11.5059 100.833 11.5 163.5c0 52.667 -3 100.334 -9 143.001
s-17.5 79.167 -34.5 109.5s-40.833 53.666 -71.499 69.999c-30.667 16.333 -71 24.5 -121 24.5h-236zM143.998 908.001l76 -144h144l77 144h-99l-48 -85l-46 85h-104z" />
    <glyph glyph-name="dcaron" unicode="&#x10f;" horiz-adv-x="760" 
d="M322 57v-56.999h132v714h-138v-226h-2c-14.667 21.334 -31.167 37.334 -49.5 48c-18.333 10.6689 -40.5 16.002 -66.5 16c-56.667 -0.000976562 -98.334 -22.168 -125.001 -66.501s-40 -116.5 -40 -216.5s13.333 -171.667 40 -215s68.334 -65 125.001 -65
c28 0 51.5 5 70.5 15s36.167 27.667 51.5 53h2zM171 269.001c0 58.667 4.49902 102.833 13.499 132.5s28.5 44.5 58.5 44.5c30.667 0 50.5 -14.833 59.5 -44.499c9 -29.667 13.5 -73.834 13.5 -132.501s-4.5 -102.834 -13.5 -132.501s-28.833 -44.5 -59.499 -44.5
c-30 0 -49.5 14.833 -58.5 44.5s-13.5 73.834 -13.5 132.501zM695.999 584l0.000976562 130h-132v-156h52v-16c0 -18.667 -4.33301 -35.667 -13 -51s-21.667 -24.666 -39 -27.999v-70c26.667 2.66699 48.5 9.16699 65.499 19.5c17 10.334 30.5 23.667 40.5 40
c10.0029 16.334 16.8359 35.667 20.5 57.999c3.68262 22.333 5.51562 46.833 5.5 73.5z" />
    <glyph glyph-name="Dcroat" unicode="&#x110;" horiz-adv-x="574" 
d="M201 421v187.001h61c27.333 -0.00488281 49.166 -5.17188 65.499 -15.501c16.334 -10.334 28.667 -25.667 37 -46c8.33301 -20.335 13.833 -45.835 16.5 -76.5c2.66699 -30.667 4 -66.334 4 -107c0 -48.667 -1.5 -89.334 -4.5 -122c-3 -32.667 -9 -59 -18 -79
s-21.167 -34.333 -36.5 -43s-35.666 -13 -60.999 -13h-64v209h93v106h-93zM57 315.001l-0.00195312 -315h227c48 0 87.667 7.33301 119 22s56.333 37 75 67s31.834 68.167 39.501 114.5c7.67285 46.333 11.5059 100.833 11.5 163.5c0 52.667 -3 100.334 -9 143.001
s-17.5 79.167 -34.5 109.5s-40.833 53.666 -71.499 69.999c-30.667 16.333 -71 24.5 -121 24.5h-236v-293h-57v-106h57z" />
    <glyph glyph-name="dcroat" unicode="&#x111;" horiz-adv-x="500" 
d="M316 668v46h138v-46h72v-94h-72v-574h-132v57h-2c-15.333 -25.333 -32.5 -43 -51.5 -53s-42.5 -15 -70.5 -15c-56.667 0 -98.334 21.667 -125.001 65s-40 115 -40 215s13.333 172.167 40 216.5s68.334 66.5 125.001 66.5c26 0 48.167 -5.33301 66.5 -16
s34.833 -26.667 49.5 -48h2v86h-78v94h78zM171 269c0 -58.667 4.49902 -102.835 13.499 -132.502s28.5 -44.5 58.5 -44.5c30.667 0 50.5 14.833 59.5 44.5s13.5 73.834 13.5 132.501s-4.5 102.834 -13.5 132.501s-28.833 44.5 -59.499 44.5
c-30 0 -49.5 -14.833 -58.5 -44.499c-9 -29.667 -13.5 -73.834 -13.5 -132.501z" />
    <glyph glyph-name="Emacron" unicode="&#x112;" horiz-adv-x="481" 
d="M449 714h-399v-714h409v118h-265v192h240v118h-240v168h255v118zM399 840h-291v-76h291v76z" />
    <glyph glyph-name="emacron" unicode="&#x113;" horiz-adv-x="463" 
d="M305 330l-140.999 -0.00195312v21c0 12.667 1.16699 25.334 3.5 38.001s6.16602 24.167 11.499 34.5c5.33301 10.334 12.5 18.667 21.5 25c9 6.33496 20.5 9.50195 34.5 9.5s25.5 -2.83496 34.5 -8.5c9 -5.66797 16 -14.001 21 -25c5 -11 8.5 -24.333 10.5 -39.999
c2 -15.667 3.33301 -33.834 4 -54.5zM164.001 247.998l273.001 -0.000976562v31c0 41.333 -2.66699 78.833 -8 112.5s-15.333 62.334 -30 86.001s-34.834 42 -60.5 55c-25.667 13 -58.5 19.5 -98.5 19.5c-46.667 -0.00292969 -84 -7.66992 -112 -23
c-28 -15.334 -49.5 -36.001 -64.5 -62.001s-25 -55.667 -30 -89s-7.5 -68 -7.5 -104c0 -34 1.5 -68 4.5 -102s11.167 -64.667 24.5 -92s34 -49.333 62 -66s67 -25 117 -25c66 0 114.333 16.333 145 49s47.334 80.334 50.001 143.001h-124
c-4.00098 -34 -11.334 -59.333 -22 -76c-10.667 -16.667 -27.667 -25 -51 -25c-12.667 0 -23.334 3.5 -32.001 10.5s-15.667 16.333 -21 28c-5.33398 11.667 -9.16699 25 -11.5 40c-2.33496 15 -3.50195 30.5 -3.50098 46.5v43zM376.002 681.997h-291v-76h291v76z" />
    <glyph glyph-name="Ebreve" unicode="&#x114;" horiz-adv-x="481" 
d="M449 714h-399v-714h409v118h-265v192h240v118h-240v168h255v118zM179 905l-63 0.000976562c0 -13.335 2.16699 -28.168 6.5 -44.5c4.33301 -16.334 11.5 -31.667 21.5 -45.999c10 -14.333 24 -26.333 42 -36s40.333 -14.5 67 -14.5c26.667 0.00878906 49 4.8418 67 14.5
c18 9.66699 32.167 21.667 42.5 36c10.334 14.333 17.667 29.666 22 45.999c4.33594 16.333 6.50293 31.166 6.5 44.499h-64c-2 -19.335 -10 -35.002 -24 -47c-14 -12 -30.667 -18 -50 -18s-36 6 -50 18s-22 27.667 -24 47z" />
    <glyph glyph-name="ebreve" unicode="&#x115;" horiz-adv-x="463" 
d="M305 330l-140.999 -0.00195312v21c0 12.667 1.16699 25.334 3.5 38.001s6.16602 24.167 11.499 34.5c5.33301 10.334 12.5 18.667 21.5 25c9 6.33496 20.5 9.50195 34.5 9.5s25.5 -2.83496 34.5 -8.5c9 -5.66797 16 -14.001 21 -25c5 -11 8.5 -24.333 10.5 -39.999
c2 -15.667 3.33301 -33.834 4 -54.5zM164.001 247.998l273.001 -0.000976562v31c0 41.333 -2.66699 78.833 -8 112.5s-15.333 62.334 -30 86.001s-34.834 42 -60.5 55c-25.667 13 -58.5 19.5 -98.5 19.5c-46.667 -0.00292969 -84 -7.66992 -112 -23
c-28 -15.334 -49.5 -36.001 -64.5 -62.001s-25 -55.667 -30 -89s-7.5 -68 -7.5 -104c0 -34 1.5 -68 4.5 -102s11.167 -64.667 24.5 -92s34 -49.333 62 -66s67 -25 117 -25c66 0 114.333 16.333 145 49s47.334 80.334 50.001 143.001h-124
c-4.00098 -34 -11.334 -59.333 -22 -76c-10.667 -16.667 -27.667 -25 -51 -25c-12.667 0 -23.334 3.5 -32.001 10.5s-15.667 16.333 -21 28c-5.33398 11.667 -9.16699 25 -11.5 40c-2.33496 15 -3.50195 30.5 -3.50098 46.5v43zM156.002 744.997l-63 0.00292969
c0 -13.335 2.16699 -28.168 6.5 -44.5c4.33301 -16.334 11.5 -31.667 21.5 -46s24 -26.333 42 -36s40.333 -14.5 67 -14.5c26.667 0.00683594 49 4.83984 67 14.5c18 9.66699 32.167 21.667 42.5 36c10.334 14.333 17.667 29.666 22 45.999
c4.33594 16.333 6.50293 31.166 6.5 44.499h-64c-2 -19.335 -10 -35.002 -24 -47.001c-14 -12 -30.667 -18 -50 -18s-36 6 -50 18s-22 27.667 -24 47z" />
    <glyph glyph-name="Edotaccent" unicode="&#x116;" horiz-adv-x="481" 
d="M449 714h-399v-714h409v118h-265v192h240v118h-240v168h255v118zM310 882h-112v-118h112v118z" />
    <glyph glyph-name="edotaccent" unicode="&#x117;" horiz-adv-x="463" 
d="M305 330l-140.999 -0.00195312v21c0 12.667 1.16699 25.334 3.5 38.001s6.16602 24.167 11.499 34.5c5.33301 10.334 12.5 18.667 21.5 25c9 6.33496 20.5 9.50195 34.5 9.5s25.5 -2.83496 34.5 -8.5c9 -5.66797 16 -14.001 21 -25c5 -11 8.5 -24.333 10.5 -39.999
c2 -15.667 3.33301 -33.834 4 -54.5zM164.001 247.998l273.001 -0.000976562v31c0 41.333 -2.66699 78.833 -8 112.5s-15.333 62.334 -30 86.001s-34.834 42 -60.5 55c-25.667 13 -58.5 19.5 -98.5 19.5c-46.667 -0.00292969 -84 -7.66992 -112 -23
c-28 -15.334 -49.5 -36.001 -64.5 -62.001s-25 -55.667 -30 -89s-7.5 -68 -7.5 -104c0 -34 1.5 -68 4.5 -102s11.167 -64.667 24.5 -92s34 -49.333 62 -66s67 -25 117 -25c66 0 114.333 16.333 145 49s47.334 80.334 50.001 143.001h-124
c-4.00098 -34 -11.334 -59.333 -22 -76c-10.667 -16.667 -27.667 -25 -51 -25c-12.667 0 -23.334 3.5 -32.001 10.5s-15.667 16.333 -21 28c-5.33398 11.667 -9.16699 25 -11.5 40c-2.33496 15 -3.50195 30.5 -3.50098 46.5v43zM287.002 723.997h-112v-118h112v118z" />
    <glyph glyph-name="Eogonek" unicode="&#x118;" horiz-adv-x="481" 
d="M350 -221c-18 0 -33.1729 2.5 -45.5059 7.5s-22.333 11.5 -30 19.5s-13 17.167 -16 27.5s-4.5 20.833 -4.5 31.5c0 30 10.333 56.667 31 80s51.334 41.666 92.001 54.999h-327v714h399v-118h-255v-168h240v-118h-240v-192h265v-118h-15
c-21.333 -13.333 -38.666 -25.666 -51.999 -36.999s-23.666 -21.666 -30.999 -30.999s-12.333 -17.833 -15 -25.5c-2.66895 -7.66699 -4.00195 -15.5 -3.99902 -23.5c0 -11.333 3.33301 -20.833 10 -28.5s16.334 -11.5 29.001 -11.5
c12 -0.000976562 22.333 1.33203 31 3.99902s18 6.66699 28 12l19 -57c-14 -7.33301 -31.5 -13 -52.5 -17s-39.833 -6 -56.499 -6z" />
    <glyph glyph-name="eogonek" unicode="&#x119;" horiz-adv-x="463" 
d="M232 80c23.333 0 40.3359 8.33398 51.0029 25.001s18 42 22 76h124c-2.66699 -62.667 -19.334 -110.334 -50 -143.001c-16.667 -18 -38.667 -31 -66 -39c-20.667 -12.667 -37.334 -24.667 -50.001 -36c-13.334 -11.333 -23.667 -21.666 -31 -30.999
s-12.333 -17.833 -15 -25.5s-4 -15.5 -4 -23.5c0 -11.333 3.33301 -20.833 9.99902 -28.5c6.66699 -7.66699 16.334 -11.5 29 -11.5c12 -0.000976562 22.333 1.33203 31 3.99902s18 6.66699 28 12l19 -57c-14 -7.33301 -31.5 -13 -52.5 -17s-39.833 -6 -56.5 -6
c-18 0 -33.167 2.5 -45.5 7.5s-22.333 11.5 -30 19.5s-13 17.167 -16 27.5s-4.5 20.833 -4.5 31.5c0 30 10.333 56.667 30.999 80c15.333 17.333 36.333 32 63 44c-43.333 2 -77.333 10.333 -102 25c-28 16.667 -48.667 38.667 -62 66s-21.5 58 -24.5 92s-4.5 68 -4.5 102
c0 36 2.5 70.667 7.5 104c5 33.334 15 63.001 30 89.001s36.5 46.667 64.5 62s65.333 23 112 23c40 0 72.833 -6.5 98.5 -19.5c25.667 -13.001 45.834 -31.334 60.501 -55c14.667 -23.667 24.667 -52.334 30 -86.001c5.33496 -33.667 8.00195 -71.167 8 -112.5v-31h-273v-43
c0 -16 1.16699 -31.5 3.5 -46.5s6.16602 -28.333 11.499 -40s12.333 -21 21 -28s19.334 -10.5 32 -10.5zM305.003 330.001c-0.668945 20.667 -2.00098 38.832 -3.99902 54.499c-2 15.667 -5.5 29 -10.5 40s-12 19.333 -21 25s-20.5 8.5 -34.5 8.5s-25.5 -3.16699 -34.5 -9.5
s-16.167 -14.666 -21.5 -24.999c-5.33398 -10.333 -9.16699 -21.833 -11.5 -34.5c-2.33496 -12.667 -3.50195 -25.334 -3.50098 -38v-21h141z" />
    <glyph glyph-name="Ecaron" unicode="&#x11a;" horiz-adv-x="481" 
d="M449 714h-399v-714h409v118h-265v192h240v118h-240v168h255v118zM105 908l76 -144h144l77 144h-99l-48 -85l-46 85h-104z" />
    <glyph glyph-name="ecaron" unicode="&#x11b;" horiz-adv-x="463" 
d="M305 330l-140.999 -0.00195312v21c0 12.667 1.16699 25.334 3.5 38.001s6.16602 24.167 11.499 34.5c5.33301 10.334 12.5 18.667 21.5 25c9 6.33496 20.5 9.50195 34.5 9.5s25.5 -2.83496 34.5 -8.5c9 -5.66797 16 -14.001 21 -25c5 -11 8.5 -24.333 10.5 -39.999
c2 -15.667 3.33301 -33.834 4 -54.5zM164.001 247.998l273.001 -0.000976562v31c0 41.333 -2.66699 78.833 -8 112.5s-15.333 62.334 -30 86.001s-34.834 42 -60.5 55c-25.667 13 -58.5 19.5 -98.5 19.5c-46.667 -0.00292969 -84 -7.66992 -112 -23
c-28 -15.334 -49.5 -36.001 -64.5 -62.001s-25 -55.667 -30 -89s-7.5 -68 -7.5 -104c0 -34 1.5 -68 4.5 -102s11.167 -64.667 24.5 -92s34 -49.333 62 -66s67 -25 117 -25c66 0 114.333 16.333 145 49s47.334 80.334 50.001 143.001h-124
c-4.00098 -34 -11.334 -59.333 -22 -76c-10.667 -16.667 -27.667 -25 -51 -25c-12.667 0 -23.334 3.5 -32.001 10.5s-15.667 16.333 -21 28c-5.33398 11.667 -9.16699 25 -11.5 40c-2.33496 15 -3.50195 30.5 -3.50098 46.5v43zM82.002 745.997l76 -144h144l77 144h-99
l-48 -85l-46 85h-104z" />
    <glyph glyph-name="Gcircumflex" unicode="&#x11c;" 
d="M367 502h138.002c-0.000976562 72.667 -17.334 128.5 -52 167.5c-34.667 39 -91.334 58.5 -170.001 58.5c-46 -0.00292969 -84.333 -7.66992 -115 -23.001c-30.667 -15.334 -55.334 -38.167 -74.001 -68.5c-18.667 -30.334 -31.834 -68.167 -39.501 -113.5
s-11.5 -98 -11.5 -158c0 -62 2.66699 -116.5 8 -163.5s15.833 -86.5 31.5 -118.5s37.334 -55.667 65.001 -71s63.5 -23 107.5 -23c34 0 63.167 5.83301 87.5 17.5c24.334 11.667 45.167 31.5 62.5 59.5h2v-66h106v385h-233v-106h95v-73c0 -19.333 -3 -36.166 -9 -50.499
s-13.5 -26.166 -22.5 -35.499s-18.667 -16.333 -29 -21s-19.833 -7 -28.5 -7c-20.667 0 -37.5 6.5 -50.5 19.5s-23 31.667 -30 56s-11.833 53.833 -14.5 88.5s-4 73.334 -4 116.001c0 89.334 7.66699 153.334 23 192c15.333 38.668 40.333 58.001 75 57.999
c14.667 0 27.167 -3.83301 37.5 -11.5s18.833 -17.334 25.5 -29.001s11.5 -24.5 14.5 -38.5c3 -14.001 4.5 -27.668 4.5 -41zM205.002 922l-76 -144h98l48 85l46 -85h105l-77 144h-144z" />
    <glyph glyph-name="gcircumflex" unicode="&#x11d;" horiz-adv-x="500" 
d="M173 252c0.000976562 36 0.836914 66.499 2.50195 91.499c1.66699 25 5.16699 45 10.5 60s12.666 25.833 21.999 32.5s21.666 10 36.999 10c27.333 0 46.166 -13.667 56.499 -41c10.335 -27.333 15.502 -73.666 15.501 -138.999c0 -22.667 -1.16699 -43.5 -3.5 -62.5
s-6.33301 -35.167 -12 -48.5s-13.334 -23.833 -23 -31.5c-9.66699 -7.66699 -21.834 -11.5 -36.5 -11.5c-14.667 0 -26.5 3.83301 -35.5 11.5s-16 18 -21 31s-8.33301 27.833 -10 44.5s-2.5 34.334 -2.5 53zM449.003 537.999l-132.002 -0.000976562v-60h-2
c-13.333 28.002 -30.333 47.335 -51 58c-20.667 10.6689 -40.667 16.002 -60 16c-37.333 0 -67.166 -8.33301 -89.499 -25s-39.333 -38.167 -51 -64.5s-19.334 -55.833 -23.001 -88.5s-5.5 -64.667 -5.5 -96c0 -98 13.833 -167.833 41.5 -209.5s68.834 -62.5 123.501 -62.5
c22 0 43.167 6 63.5 18c20.334 12 37.501 28 51.501 48h2v-71c0 -26.667 -5.66699 -49 -17 -67s-31 -27 -59 -27c-8.66699 0 -16.834 1.33301 -24.501 4s-14.834 6.33398 -21.501 11.001c-14 10 -21 23.667 -21 41h-132c0 -46 15.833 -81.5 47.5 -106.5
s76.834 -37.5 135.501 -37.5c80.667 0 138.167 17.333 172.5 52c34.334 34.667 51.501 86.667 51.501 156v511zM169.001 745.998l-76 -144h98l48 85l46 -85h105l-77 144h-144z" />
    <glyph glyph-name="Gbreve" unicode="&#x11e;" 
d="M367 502h138.002c-0.000976562 72.667 -17.334 128.5 -52 167.5c-34.667 39 -91.334 58.5 -170.001 58.5c-46 -0.00292969 -84.333 -7.66992 -115 -23.001c-30.667 -15.334 -55.334 -38.167 -74.001 -68.5c-18.667 -30.334 -31.834 -68.167 -39.501 -113.5
s-11.5 -98 -11.5 -158c0 -62 2.66699 -116.5 8 -163.5s15.833 -86.5 31.5 -118.5s37.334 -55.667 65.001 -71s63.5 -23 107.5 -23c34 0 63.167 5.83301 87.5 17.5c24.334 11.667 45.167 31.5 62.5 59.5h2v-66h106v385h-233v-106h95v-73c0 -19.333 -3 -36.166 -9 -50.499
s-13.5 -26.166 -22.5 -35.499s-18.667 -16.333 -29 -21s-19.833 -7 -28.5 -7c-20.667 0 -37.5 6.5 -50.5 19.5s-23 31.667 -30 56s-11.833 53.833 -14.5 88.5s-4 73.334 -4 116.001c0 89.334 7.66699 153.334 23 192c15.333 38.668 40.333 58.001 75 57.999
c14.667 0 27.167 -3.83301 37.5 -11.5s18.833 -17.334 25.5 -29.001s11.5 -24.5 14.5 -38.5c3 -14.001 4.5 -27.668 4.5 -41zM203.002 919l-63.001 0.000976562c0 -13.334 2.16699 -28.167 6.5 -44.499c4.33301 -16.335 11.5 -31.668 21.5 -46c10 -14.333 24 -26.333 42 -36
s40.333 -14.5 67 -14.5c26.667 0.00585938 49 4.83887 67 14.5c18 9.66699 32.167 21.667 42.5 36c10.334 14.333 17.667 29.666 22 45.999c4.33691 16.333 6.50391 31.166 6.50098 44.499h-64c-2 -19.3359 -10 -35.0029 -24 -47c-14 -12 -30.667 -18 -50 -18s-36 6 -50 18
s-22 27.667 -24 47z" />
    <glyph glyph-name="gbreve" unicode="&#x11f;" horiz-adv-x="500" 
d="M173 252c0.000976562 36 0.836914 66.499 2.50195 91.499c1.66699 25 5.16699 45 10.5 60s12.666 25.833 21.999 32.5s21.666 10 36.999 10c27.333 0 46.166 -13.667 56.499 -41c10.335 -27.333 15.502 -73.666 15.501 -138.999c0 -22.667 -1.16699 -43.5 -3.5 -62.5
s-6.33301 -35.167 -12 -48.5s-13.334 -23.833 -23 -31.5c-9.66699 -7.66699 -21.834 -11.5 -36.5 -11.5c-14.667 0 -26.5 3.83301 -35.5 11.5s-16 18 -21 31s-8.33301 27.833 -10 44.5s-2.5 34.334 -2.5 53zM449.003 537.999l-132.002 -0.000976562v-60h-2
c-13.333 28.002 -30.333 47.335 -51 58c-20.667 10.6689 -40.667 16.002 -60 16c-37.333 0 -67.166 -8.33301 -89.499 -25s-39.333 -38.167 -51 -64.5s-19.334 -55.833 -23.001 -88.5s-5.5 -64.667 -5.5 -96c0 -98 13.833 -167.833 41.5 -209.5s68.834 -62.5 123.501 -62.5
c22 0 43.167 6 63.5 18c20.334 12 37.501 28 51.501 48h2v-71c0 -26.667 -5.66699 -49 -17 -67s-31 -27 -59 -27c-8.66699 0 -16.834 1.33301 -24.501 4s-14.834 6.33398 -21.501 11.001c-14 10 -21 23.667 -21 41h-132c0 -46 15.833 -81.5 47.5 -106.5
s76.834 -37.5 135.501 -37.5c80.667 0 138.167 17.333 172.5 52c34.334 34.667 51.501 86.667 51.501 156v511zM167.001 744.998l-63 0.00292969c0 -13.335 2.16699 -28.168 6.5 -44.5c4.33301 -16.334 11.5 -31.667 21.5 -46s24 -26.333 42 -36s40.333 -14.5 67 -14.5
c26.667 0.00683594 49 4.83984 67 14.5c18 9.66699 32.167 21.667 42.5 36c10.334 14.333 17.667 29.666 22 45.999c4.33594 16.333 6.50293 31.166 6.5 44.499h-64c-2 -19.335 -10 -35.002 -24 -47.001c-14 -12 -30.667 -18 -50 -18s-36 6 -50 18s-22 27.667 -24 47z" />
    <glyph glyph-name="Gdotaccent" unicode="&#x120;" 
d="M367 502h138.002c-0.000976562 72.667 -17.334 128.5 -52 167.5c-34.667 39 -91.334 58.5 -170.001 58.5c-46 -0.00292969 -84.333 -7.66992 -115 -23.001c-30.667 -15.334 -55.334 -38.167 -74.001 -68.5c-18.667 -30.334 -31.834 -68.167 -39.501 -113.5
s-11.5 -98 -11.5 -158c0 -62 2.66699 -116.5 8 -163.5s15.833 -86.5 31.5 -118.5s37.334 -55.667 65.001 -71s63.5 -23 107.5 -23c34 0 63.167 5.83301 87.5 17.5c24.334 11.667 45.167 31.5 62.5 59.5h2v-66h106v385h-233v-106h95v-73c0 -19.333 -3 -36.166 -9 -50.499
s-13.5 -26.166 -22.5 -35.499s-18.667 -16.333 -29 -21s-19.833 -7 -28.5 -7c-20.667 0 -37.5 6.5 -50.5 19.5s-23 31.667 -30 56s-11.833 53.833 -14.5 88.5s-4 73.334 -4 116.001c0 89.334 7.66699 153.334 23 192c15.333 38.668 40.333 58.001 75 57.999
c14.667 0 27.167 -3.83301 37.5 -11.5s18.833 -17.334 25.5 -29.001s11.5 -24.5 14.5 -38.5c3 -14.001 4.5 -27.668 4.5 -41zM334.002 896h-112v-118h112v118z" />
    <glyph glyph-name="gdotaccent" unicode="&#x121;" horiz-adv-x="500" 
d="M173 252c0.000976562 36 0.836914 66.499 2.50195 91.499c1.66699 25 5.16699 45 10.5 60s12.666 25.833 21.999 32.5s21.666 10 36.999 10c27.333 0 46.166 -13.667 56.499 -41c10.335 -27.333 15.502 -73.666 15.501 -138.999c0 -22.667 -1.16699 -43.5 -3.5 -62.5
s-6.33301 -35.167 -12 -48.5s-13.334 -23.833 -23 -31.5c-9.66699 -7.66699 -21.834 -11.5 -36.5 -11.5c-14.667 0 -26.5 3.83301 -35.5 11.5s-16 18 -21 31s-8.33301 27.833 -10 44.5s-2.5 34.334 -2.5 53zM449.003 537.999l-132.002 -0.000976562v-60h-2
c-13.333 28.002 -30.333 47.335 -51 58c-20.667 10.6689 -40.667 16.002 -60 16c-37.333 0 -67.166 -8.33301 -89.499 -25s-39.333 -38.167 -51 -64.5s-19.334 -55.833 -23.001 -88.5s-5.5 -64.667 -5.5 -96c0 -98 13.833 -167.833 41.5 -209.5s68.834 -62.5 123.501 -62.5
c22 0 43.167 6 63.5 18c20.334 12 37.501 28 51.501 48h2v-71c0 -26.667 -5.66699 -49 -17 -67s-31 -27 -59 -27c-8.66699 0 -16.834 1.33301 -24.501 4s-14.834 6.33398 -21.501 11.001c-14 10 -21 23.667 -21 41h-132c0 -46 15.833 -81.5 47.5 -106.5
s76.834 -37.5 135.501 -37.5c80.667 0 138.167 17.333 172.5 52c34.334 34.667 51.501 86.667 51.501 156v511zM298.001 723.998h-112v-118h112v118z" />
    <glyph glyph-name="Gcommaaccent" unicode="&#x122;" 
d="M367 502h138.002c-0.000976562 72.667 -17.334 128.5 -52 167.5c-34.667 39 -91.334 58.5 -170.001 58.5c-46 -0.00292969 -84.333 -7.66992 -115 -23.001c-30.667 -15.334 -55.334 -38.167 -74.001 -68.5c-18.667 -30.334 -31.834 -68.167 -39.501 -113.5
s-11.5 -98 -11.5 -158c0 -62 2.66699 -116.5 8 -163.5s15.833 -86.5 31.5 -118.5s37.334 -55.667 65.001 -71s63.5 -23 107.5 -23c34 0 63.167 5.83301 87.5 17.5c24.334 11.667 45.167 31.5 62.5 59.5h2v-66h106v385h-233v-106h95v-73c0 -19.333 -3 -36.166 -9 -50.499
s-13.5 -26.166 -22.5 -35.499s-18.667 -16.333 -29 -21s-19.833 -7 -28.5 -7c-20.667 0 -37.5 6.5 -50.5 19.5s-23 31.667 -30 56s-11.833 53.833 -14.5 88.5s-4 73.334 -4 116.001c0 89.334 7.66699 153.334 23 192c15.333 38.668 40.333 58.001 75 57.999
c14.667 0 27.167 -3.83301 37.5 -11.5s18.833 -17.334 25.5 -29.001s11.5 -24.5 14.5 -38.5c3 -14.001 4.5 -27.668 4.5 -41zM331.002 -112c0 -21.333 -1.50098 -40.833 -4.50098 -58.5s-8.5 -33.167 -16.5 -46.5s-18.833 -24 -32.499 -32
c-13.667 -7.99902 -31.167 -13.332 -52.5 -15.999v56c14 2.66699 24.5 10.167 31.5 22.5s10.5 26.166 10.5 41.499v12h-42v125h106v-104v0z" />
    <glyph glyph-name="gcommaaccent" unicode="&#x123;" horiz-adv-x="500" 
d="M173 252c0.000976562 36 0.836914 66.499 2.50195 91.499c1.66699 25 5.16699 45 10.5 60s12.666 25.833 21.999 32.5s21.666 10 36.999 10c27.333 0 46.166 -13.667 56.499 -41c10.335 -27.333 15.502 -73.666 15.501 -138.999c0 -22.667 -1.16699 -43.5 -3.5 -62.5
s-6.33301 -35.167 -12 -48.5s-13.334 -23.833 -23 -31.5c-9.66699 -7.66699 -21.834 -11.5 -36.5 -11.5c-14.667 0 -26.5 3.83301 -35.5 11.5s-16 18 -21 31s-8.33301 27.833 -10 44.5s-2.5 34.334 -2.5 53zM449.003 537.999l-132.002 -0.000976562v-60h-2
c-13.333 28.002 -30.333 47.335 -51 58c-20.667 10.6689 -40.667 16.002 -60 16c-37.333 0 -67.166 -8.33301 -89.499 -25s-39.333 -38.167 -51 -64.5s-19.334 -55.833 -23.001 -88.5s-5.5 -64.667 -5.5 -96c0 -98 13.833 -167.833 41.5 -209.5s68.834 -62.5 123.501 -62.5
c22 0 43.167 6 63.5 18c20.334 12 37.501 28 51.501 48h2v-71c0 -26.667 -5.66699 -49 -17 -67s-31 -27 -59 -27c-8.66699 0 -16.834 1.33301 -24.501 4s-14.834 6.33398 -21.501 11.001c-14 10 -21 23.667 -21 41h-132c0 -46 15.833 -81.5 47.5 -106.5
s76.834 -37.5 135.501 -37.5c80.667 0 138.167 17.333 172.5 52c34.334 34.667 51.501 86.667 51.501 156v511zM189.001 705.998c0 21.333 1.5 41 4.5 59s8.5 33.5 16.5 46.5s18.833 23.667 32.5 32s31.167 13.5 52.5 15.5v-56c-14 -2.66699 -24.5 -10.167 -31.5 -22.5
s-10.5 -25.833 -10.5 -40.5v-13h42v-125h-106v104v0z" />
    <glyph glyph-name="Hcircumflex" unicode="&#x124;" 
d="M50 714v-714h144v317h168v-317h144v714h-144v-273h-168v273h-144zM205 908l-76 -144h98l48 85l46 -85h105l-77 144h-144z" />
    <glyph glyph-name="hcircumflex" unicode="&#x125;" horiz-adv-x="500" 
d="M46 714l-0.000976562 -714.001h138v357c0 59.334 24.333 89.001 73 89.001c20.667 0 35.667 -5.5 45 -16.5c9.33496 -11 14.002 -30.5 14.001 -58.5v-371h138v399c0 54 -11.833 93 -35.499 117c-23.667 24 -57.5 36 -101.5 36c-60.667 0 -104.334 -23 -131.001 -69h-2
v231h-138zM176.999 907.999l-76 -144h98l48 85l46 -85h105l-77 144h-144z" />
    <glyph glyph-name="Hbar" unicode="&#x126;" 
d="M50 616v98h144v-98h168v98h144v-98h75v-94h-75v-522h-144v317h-168v-317h-144v522h-77v94h77zM362 441v81h-168v-81h168z" />
    <glyph glyph-name="hbar" unicode="&#x127;" horiz-adv-x="500" 
d="M46 676l-0.000976562 38h138v-38h70v-94h-70v-99h2c26.667 46 70.334 69 131.001 69c44 0 77.833 -12 101.5 -36s35.5 -63 35.5 -117v-399h-138v371c0 28 -4.66699 47.5 -14 58.5s-24.333 16.5 -45 16.5c-48.667 0 -73 -29.667 -73 -89v-357h-138v582h-80v94h80z" />
    <glyph glyph-name="Itilde" unicode="&#x128;" horiz-adv-x="258" 
d="M57 0h144v714h-144v-714zM-27 764l68.002 0.00292969c5.33301 24 16 36 32 36c8 0 16.667 -1.83301 26 -5.5s19.166 -7.5 29.499 -11.5s20.833 -7.83301 31.5 -11.5s21.334 -5.5 32 -5.5c25.333 0 46.166 11.667 62.499 35c16.334 23.333 26.167 53 29.5 89h-71
c0 -6.66699 -2.33301 -14.334 -7 -23.001s-11.667 -13 -21 -13c-10 0 -20 2 -30 6l-48 21c-10 4.68066 -24.333 7.01367 -43 7c-25.333 -0.00195312 -45.5 -10.6689 -60.5 -32.001c-15 -21.335 -25.167 -52.002 -30.5 -92.001z" />
    <glyph glyph-name="itilde" unicode="&#x129;" horiz-adv-x="240" 
d="M51 538v-538h138v538h-138zM-36 592l68.002 0.000976562c5.33301 24 16 36 32 36c8 0 16.667 -1.83301 26 -5.5s19.166 -7.5 29.499 -11.5s20.833 -7.83301 31.5 -11.5s21.334 -5.5 32 -5.5c25.333 0 46.166 11.667 62.499 35c16.334 23.333 26.167 53 29.5 89h-71
c0 -6.66699 -2.33301 -14.334 -7 -23.001s-11.667 -13 -21 -13c-10 0 -20 2 -30 6l-48 21c-10 4.67773 -24.333 7.01074 -43 7c-25.333 -0.000976562 -45.5 -10.668 -60.5 -32c-15 -21.334 -25.167 -52.001 -30.5 -92z" />
    <glyph glyph-name="Imacron" unicode="&#x12a;" horiz-adv-x="258" 
d="M57 0h144v714h-144v-714zM274 840h-291v-76h291v76z" />
    <glyph glyph-name="imacron" unicode="&#x12b;" horiz-adv-x="240" 
d="M51 538v-538h138v538h-138zM265 668h-291v-76h291v76z" />
    <glyph glyph-name="Ibreve" unicode="&#x12c;" horiz-adv-x="258" 
d="M57 0h144v714h-144v-714zM54 905l-62 0.000976562c0 -13.335 2.16699 -28.168 6.5 -44.5c4.33301 -16.334 11.333 -31.667 21 -45.999c9.66699 -14.333 23.5 -26.333 41.5 -36s40.333 -14.5 67 -14.5c26.667 0.00878906 49 4.8418 67 14.5
c18 9.66699 32.333 21.667 43 36s18.167 29.666 22.5 45.999c4.33496 16.333 6.50195 31.166 6.5 44.499h-65c-2 -19.335 -10 -35.002 -24 -47c-14 -12 -30.667 -18 -50 -18s-36 6 -50 18s-22 27.667 -24 47z" />
    <glyph glyph-name="ibreve" unicode="&#x12d;" horiz-adv-x="240" 
d="M51 538v-538h138v538h-138zM45 734l-62 0.00195312c0 -13.335 2.16699 -28.168 6.5 -44.5c4.33301 -16.334 11.333 -31.667 21 -46s23.5 -26.333 41.5 -36s40.333 -14.5 67 -14.5c26.667 0.00488281 49 4.83789 67 14.5c18 9.66699 32.333 21.667 43 36
s18.167 29.666 22.5 45.999s6.5 31.166 6.5 44.499h-65c-2 -19.335 -10 -35.002 -24 -47c-14 -12 -30.667 -18 -50 -18s-36 6 -50 18s-22 27.667 -24 47z" />
    <glyph glyph-name="Iogonek" unicode="&#x12e;" horiz-adv-x="258" 
d="M57 0h144v714h-144v-714zM231 -198l-17.9961 57.001c-10 -5.33301 -19.333 -9.33301 -28 -12s-19 -4 -31 -4c-12.667 0 -22.334 3.83301 -29.001 11.5s-10 17.167 -10 28.5c0 8 1.33301 15.833 4 23.5s7.66699 16.167 15 25.5s17.666 19.666 30.999 30.999
s30.666 23.666 51.999 36.999h-67c-40.667 -13.333 -71.334 -31.666 -92.001 -54.999s-31 -50 -31 -80c0 -10.667 1.5 -21.167 4.5 -31.5s8.33301 -19.5 16 -27.5s17.667 -14.5 30 -19.5s27.5 -7.5 45.5 -7.5c16.667 0 35.5 2 56.5 6s38.167 9.66699 51.5 17z" />
    <glyph glyph-name="iogonek" unicode="&#x12f;" horiz-adv-x="240" 
d="M51 722v-118h138v118h-138zM51 538v-538h138v538h-138zM222 -198l-17.9961 57.001c-10 -5.33301 -19.333 -9.33301 -28 -12s-19 -4 -31 -4c-12.667 0 -22.334 3.83301 -29.001 11.5s-10 17.167 -10 28.5c0 8 1.33301 15.833 4 23.5s7.66699 16.167 15 25.5
s17.666 19.666 30.999 30.999s30.666 23.666 51.999 36.999h-67c-40.667 -13.333 -71.334 -31.666 -92.001 -54.999s-31 -50 -31 -80c0 -10.667 1.5 -21.167 4.5 -31.5s8.33301 -19.5 16 -27.5s17.667 -14.5 30 -19.5s27.5 -7.5 45.5 -7.5c16.667 0 35.5 2 56.5 6
s38.167 9.66699 51.5 17z" />
    <glyph glyph-name="Idotaccent" unicode="&#x130;" horiz-adv-x="258" 
d="M57 0h144v714h-144v-714zM185 882h-112v-118h112v118z" />
    <glyph glyph-name="dotlessi" unicode="&#x131;" horiz-adv-x="240" 
d="M51 538v-538h138v538h-138z" />
    <glyph glyph-name="IJ" unicode="&#x132;" horiz-adv-x="721" 
d="M57 0h144v714h-144v-714zM677 714h-144.001v-510c-0.00390625 -38 -4.1709 -66.167 -12.5 -84.5c-8.33398 -18.333 -25.501 -27.5 -51.5 -27.5c-26 0 -43.167 9.16699 -51.5 27.5s-12.5 46.5 -12.5 84.5v22h-132v-31c0.000976562 -28 2.66797 -54.667 8 -80
c5.33398 -25.333 15.167 -47.5 29.5 -66.5c14.334 -19 33.667 -33.667 58 -44c24.334 -10.333 55.501 -15.5 93.501 -15.5c72.667 0 126.667 16.167 162 48.5s53 86.5 53 162.5v514z" />
    <glyph glyph-name="ij" unicode="&#x133;" horiz-adv-x="480" 
d="M51 722v-118h138v118h-138zM51 538v-538h138v538h-138zM291 722v-118h138v118h-138zM291 538v-528.001c-0.000976562 -28 -2.83398 -48.833 -8.5 -62.5c-5.66699 -13.667 -19.834 -20.5 -42.5 -20.5h-11c-3.33398 0 -7.00098 0.666992 -11 2.00098v-100
c10 -0.666992 19.333 -1.16699 27.999 -1.5c8.66699 -0.328125 17 -0.495117 25 -0.5c30.667 0 56.167 3 76.5 9c20.334 6 36.501 14.833 48.501 26.5s20.5 26.167 25.5 43.5s7.5 37.333 7.5 60v572h-138z" />
    <glyph glyph-name="Jcircumflex" unicode="&#x134;" horiz-adv-x="463" 
d="M419 714h-143.997v-510c0 -38 -4.16699 -66.167 -12.5 -84.5s-25.5 -27.5 -51.5 -27.5s-43.167 9.16699 -51.5 27.5c-8.33398 18.333 -12.501 46.5 -12.501 84.5v22h-132v-31c0 -28 2.66699 -54.667 8 -80s15.166 -47.5 29.499 -66.5s33.666 -33.667 57.999 -44
s55.5 -15.5 93.5 -15.5c72.667 0 126.667 16.167 162 48.5c35.334 32.333 53.001 86.5 53 162.5v514zM278.003 902l-75 -144h97l48 85l46 -85h106l-78 144h-144z" />
    <glyph glyph-name="jcircumflex" unicode="&#x135;" horiz-adv-x="240" 
d="M189 538l-0.000976562 -572c0 -22.667 -2.5 -42.667 -7.5 -60s-13.5 -31.833 -25.5 -43.5s-28.167 -20.5 -48.5 -26.5s-45.833 -9 -76.5 -9c-8 0 -16.333 0.166992 -25 0.5s-18 0.833008 -28 1.5v100c4 -1.33301 7.66699 -2 11 -2h11
c22.667 0 36.834 6.83301 42.501 20.5s8.5 34.5 8.5 62.5v528h138zM40.999 735l-75 -144h97l48 85l46 -85h106l-78 144h-144z" />
    <glyph glyph-name="Kcommaaccent" unicode="&#x136;" horiz-adv-x="537" 
d="M194 714h-144v-714h144v212l53 81l147 -293h162l-216 408l194 306h-156l-182 -286h-2v286zM356 -101c0 -21.333 -1.50098 -40.832 -4.50098 -58.499s-8.5 -33.167 -16.5 -46.5s-18.833 -24 -32.499 -32c-13.667 -8 -31.167 -13.333 -52.5 -16v56
c14 2.66699 24.5 10.167 31.5 22.5s10.5 26.166 10.5 41.499v12h-42v125h106v-104v0z" />
    <glyph glyph-name="kcommaaccent" unicode="&#x137;" horiz-adv-x="500" 
d="M189 714h-138v-714h138v157l49 64l115 -221h152l-178 326l155 212h-152l-139 -201h-2v377zM331 -101c0 -21.333 -1.50098 -40.832 -4.50098 -58.499s-8.5 -33.167 -16.5 -46.5s-18.833 -24 -32.499 -32c-13.667 -8 -31.167 -13.333 -52.5 -16v56
c14 2.66699 24.5 10.167 31.5 22.5s10.5 26.166 10.5 41.499v12h-42v125h106v-104v0z" />
    <glyph glyph-name="kgreenlandic" unicode="&#x138;" horiz-adv-x="500" 
d="M189 337h2l139 201h152l-155 -212l178 -326h-152l-115 221l-49 -64v-157h-138v538h138v-201z" />
    <glyph glyph-name="Lacute" unicode="&#x139;" horiz-adv-x="463" 
d="M50 0h399v118h-255v596h-144v-714zM207 908l-54 -144h94l97 144h-137z" />
    <glyph glyph-name="lacute" unicode="&#x13a;" horiz-adv-x="240" 
d="M51 714v-714h138v714h-138zM78 908l-54 -144h94l97 144h-137z" />
    <glyph glyph-name="Lcommaaccent" unicode="&#x13b;" horiz-adv-x="463" 
d="M50 0h399v118h-255v596h-144v-714zM302 -101c0 -21.333 -1.50098 -40.832 -4.50098 -58.499s-8.5 -33.167 -16.5 -46.5s-18.833 -24 -32.499 -32c-13.667 -8 -31.167 -13.333 -52.5 -16v56c14 2.66699 24.5 10.167 31.5 22.5s10.5 26.166 10.5 41.499v12h-42v125h106
v-104v0z" />
    <glyph glyph-name="lcommaaccent" unicode="&#x13c;" horiz-adv-x="240" 
d="M51 714v-714h138v714h-138zM173 -101c0 -21.333 -1.5 -40.832 -4.5 -58.499s-8.5 -33.167 -16.5 -46.5s-18.833 -24 -32.5 -32s-31.167 -13.333 -52.5 -16v56c14 2.66699 24.5 10.167 31.5 22.5s10.5 26.166 10.5 41.499v12h-42v125h106v-104v0z" />
    <glyph glyph-name="Lcaron" unicode="&#x13d;" horiz-adv-x="463" 
d="M50 0h399v118h-255v596h-144v-714zM100 908l76 -144h144l77 144h-99l-48 -85l-46 85h-104z" />
    <glyph glyph-name="lcaron" unicode="&#x13e;" horiz-adv-x="335" 
d="M241 713h90v-279h-90v279zM189 714v-714h-138v714h138z" />
    <glyph glyph-name="Ldot" unicode="&#x13f;" horiz-adv-x="463" 
d="M50 714h144v-596h255v-118h-399v714zM406 521v-156h-132v156h132z" />
    <glyph glyph-name="ldot" unicode="&#x140;" horiz-adv-x="428" 
d="M189 714v-714h-138v714h138zM406 521v-156h-132v156h132z" />
    <glyph glyph-name="Lslash" unicode="&#x141;" horiz-adv-x="463" 
d="M50 256v-256h399v118h-255v228l126 79v106l-126 -79v262h-144v-352l-50 -31v-106z" />
    <glyph glyph-name="lslash" unicode="&#x142;" horiz-adv-x="240" 
d="M51 282v-282h138v373l63 41v88l-63 -41v253h-138v-344l-60 -42v-88z" />
    <glyph glyph-name="Nacute" unicode="&#x143;" horiz-adv-x="574" 
d="M390 225h2v489h132v-714h-164l-176 500h-2v-500h-132v714h166zM423 900l-98 -144h-94l54 144h138z" />
    <glyph glyph-name="nacute" unicode="&#x144;" horiz-adv-x="500" 
d="M178 538v-63h2c14.667 26.667 33.667 46.167 57 58.5s50 18.5 80 18.5c44 0 77.833 -12 101.5 -36s35.5 -63 35.5 -117v-399h-138v371c0 28 -4.66699 47.5 -14 58.5s-24.333 16.5 -45 16.5c-48.667 0 -73 -29.667 -73 -89v-357h-138v538h132zM386 745l-98 -144h-94
l54 144h138z" />
    <glyph glyph-name="Ncommaaccent" unicode="&#x145;" horiz-adv-x="574" 
d="M216 714h-166v-714h132v500h2l176 -500h164v714h-132v-489h-2zM340 -101c0 -21.333 -1.50098 -40.832 -4.50098 -58.499s-8.5 -33.167 -16.5 -46.5s-18.833 -24 -32.499 -32c-13.667 -8 -31.167 -13.333 -52.5 -16v56c14 2.66699 24.5 10.167 31.5 22.5
s10.5 26.166 10.5 41.499v12h-42v125h106v-104v0z" />
    <glyph glyph-name="ncedilla" unicode="&#x146;" horiz-adv-x="500" 
d="M46 538l-0.00195312 -538.001h138v357c0 59.334 24.333 89.001 73 89.001c20.667 0 35.667 -5.5 45 -16.5c9.33496 -11 14.002 -30.5 14.001 -58.5v-371h138v399c0 54 -11.833 93 -35.499 117c-23.667 24 -57.5 36 -101.5 36c-30 -0.00195312 -56.667 -6.16895 -80 -18.5
c-23.333 -12.335 -42.333 -31.835 -57 -58.5h-2v63h-132zM302.998 -101.001c0 -21.333 -1.50098 -40.832 -4.50098 -58.499s-8.5 -33.167 -16.5 -46.5s-18.833 -24 -32.499 -32c-13.667 -8 -31.167 -13.333 -52.5 -16v56c14 2.66699 24.5 10.167 31.5 22.5
s10.5 26.166 10.5 41.499v12h-42v125h106v-104v0z" />
    <glyph glyph-name="Ncaron" unicode="&#x147;" horiz-adv-x="574" 
d="M216 714h-166v-714h132v500h2l176 -500h164v714h-132v-489h-2zM138 908l76 -144h144l77 144h-99l-48 -85l-46 85h-104z" />
    <glyph glyph-name="ncaron" unicode="&#x148;" horiz-adv-x="500" 
d="M46 538l-0.00195312 -538.001h138v357c0 59.334 24.333 89.001 73 89.001c20.667 0 35.667 -5.5 45 -16.5c9.33496 -11 14.002 -30.5 14.001 -58.5v-371h138v399c0 54 -11.833 93 -35.499 117c-23.667 24 -57.5 36 -101.5 36c-30 -0.00195312 -56.667 -6.16895 -80 -18.5
c-23.333 -12.335 -42.333 -31.835 -57 -58.5h-2v63h-132zM100.998 745.999l76 -144h144l77 144h-99l-48 -85l-46 85h-104z" />
    <glyph glyph-name="napostrophe" unicode="&#x149;" horiz-adv-x="700" 
d="M192 587l0.000976562 130h-132v-156h52v-16c0 -18.667 -4.33301 -35.667 -13 -51s-21.667 -24.666 -39 -27.999v-70c26.667 2.66699 48.5 9.16699 65.5 19.5c17 10.334 30.5 23.667 40.5 40c10 16.334 16.833 35.667 20.499 57.999
c3.66797 22.333 5.50098 46.833 5.5 73.5zM246.001 538v-538.001h138v357c0 59.334 24.333 89.001 73 89.001c20.667 0 35.667 -5.5 45 -16.5c9.33594 -11 14.0029 -30.5 14 -58.5v-371h138v399c0 54 -11.833 93 -35.5 117s-57.5 36 -101.5 36
c-30 -0.00195312 -56.667 -6.16895 -80 -18.5c-23.333 -12.335 -42.333 -31.835 -57 -58.5h-2v63h-132z" />
    <glyph glyph-name="Eng" unicode="&#x14a;" horiz-adv-x="574" 
d="M392 714h131.999v-176h1v-572c0 -22.667 -2.5 -42.667 -7.5 -60s-13.5 -31.833 -25.5 -43.5s-28.167 -20.5 -48.5 -26.5s-45.833 -9 -76.5 -9c-8.00098 0 -16.334 0.166992 -25 0.5c-8.66699 0.333008 -18 0.833008 -27.999 1.5v100c4.00195 -1.33301 7.66895 -2 11 -2
h11c22.667 0 36.667 7 42 21c5.33301 12 8.33301 29.333 9 52l-203 500h-2v-500h-132v714h166l176 -481v481z" />
    <glyph glyph-name="eng" unicode="&#x14b;" horiz-adv-x="500" 
d="M316 371c0 28 -4.66797 47.5 -14.001 58.5s-24.333 16.5 -45 16.5c-48.667 0 -73 -29.667 -73 -89v-357h-138v538h132v-63h2c14.667 26.667 33.667 46.167 57 58.5s50 18.5 80 18.5c44 0 77.833 -12 101.5 -36s35.5 -63 35.5 -117v-433c0 -22.667 -2.5 -42.667 -7.5 -60
s-13.5 -31.833 -25.5 -43.5s-28.167 -20.5 -48.5 -26.5s-45.833 -9 -76.5 -9c-8.00098 0 -16.334 0.166992 -25 0.5c-8.66699 0.333008 -18 0.833008 -27.999 1.5v100c4 -1.33301 7.66699 -2 11 -2h11c22.667 0 36.667 7 42 21c5.33301 12 8.33301 29.333 9 52v371v0z" />
    <glyph glyph-name="Omacron" unicode="&#x14c;" 
d="M179 357c0 48 1.16602 88.668 3.49902 122.001s7 60.666 14 81.999s17 36.833 30 46.5c13 9.67188 30.167 14.5049 51.5 14.5c21.334 0 38.501 -4.83301 51.501 -14.5s23 -25.167 30 -46.5c7.00195 -21.334 11.6689 -48.667 14 -82c2.3418 -33.333 3.50879 -74 3.5 -122
c0 -48 -1.16699 -88.833 -3.5 -122.5s-7 -61 -14 -82s-17 -36.333 -30 -46s-30.167 -14.5 -51.5 -14.5s-38.5 4.83301 -51.5 14.5s-23 25 -30 46s-11.667 48.333 -14 82c-2.33496 33.667 -3.50195 74.5 -3.5 122.5zM34.999 357.001c0 -54.667 2.5 -104.666 7.5 -149.999
s16 -84.333 33 -117s41.5 -57.667 73.5 -75s75 -26 129 -26s97 8.66699 129 26s56.5 42.333 73.5 75s28 71.667 33 117s7.5 95.333 7.5 150c0 54 -2.5 103.833 -7.5 149.5s-16 84.834 -33 117.5c-17 32.667 -41.5 58.167 -73.5 76.5s-75 27.5 -129 27.5
c-54 -0.00292969 -97 -9.16992 -129 -27.5c-32 -18.333 -56.5 -43.833 -73.5 -76.5s-28 -71.834 -33 -117.501s-7.5 -95.5 -7.5 -149.5zM422.999 854.002h-291v-76h291v76z" />
    <glyph glyph-name="omacron" unicode="&#x14d;" horiz-adv-x="480" 
d="M166 269c0 27.333 0.667969 52.666 2.00098 75.999s4.5 43.333 9.5 60s12.5 29.667 22.5 39c10 9.33594 23.333 14.0029 40 14c28 0 47.333 -14.667 58 -44s16 -77.666 16 -144.999c-0.000976562 -67.333 -5.33398 -115.666 -16 -144.999
c-10.667 -29.333 -30 -44 -58 -44c-16.667 0 -30 4.66699 -40 14s-17.5 22.333 -22.5 39s-8.16699 36.667 -9.5 60c-1.33496 23.333 -2.00195 48.666 -2.00098 75.999zM28.001 269c0 -46.667 3.33301 -87.832 10 -123.499s18 -65.334 34 -89.001s37.667 -41 65 -52
s61.666 -16.167 102.999 -15.5c39.333 0 72.5 5.66699 99.5 17s48.833 28.833 65.5 52.5s28.667 53.167 36 88.5c7.33594 35.333 11.0029 76 11 122c-0.00195312 47.333 -3.33496 88.666 -10 123.999c-6.66699 35.334 -18 65.001 -34 89.001
c-16 24.002 -37.667 41.835 -65 53.5c-27.333 11.667 -61.666 17.167 -102.999 16.5c-39.333 -0.00195312 -72.5 -6.16895 -99.5 -18.5c-27 -12.334 -48.833 -30.334 -65.5 -54c-16.667 -23.667 -28.667 -53.167 -36 -88.5s-11 -76 -11 -122zM385.001 683.002h-291v-76h291
v76z" />
    <glyph glyph-name="Obreve" unicode="&#x14e;" 
d="M179 357c0 48 1.16602 88.668 3.49902 122.001s7 60.666 14 81.999s17 36.833 30 46.5c13 9.67188 30.167 14.5049 51.5 14.5c21.334 0 38.501 -4.83301 51.501 -14.5s23 -25.167 30 -46.5c7.00195 -21.334 11.6689 -48.667 14 -82c2.3418 -33.333 3.50879 -74 3.5 -122
c0 -48 -1.16699 -88.833 -3.5 -122.5s-7 -61 -14 -82s-17 -36.333 -30 -46s-30.167 -14.5 -51.5 -14.5s-38.5 4.83301 -51.5 14.5s-23 25 -30 46s-11.667 48.333 -14 82c-2.33496 33.667 -3.50195 74.5 -3.5 122.5zM34.999 357.001c0 -54.667 2.5 -104.666 7.5 -149.999
s16 -84.333 33 -117s41.5 -57.667 73.5 -75s75 -26 129 -26s97 8.66699 129 26s56.5 42.333 73.5 75s28 71.667 33 117s7.5 95.333 7.5 150c0 54 -2.5 103.833 -7.5 149.5s-16 84.834 -33 117.5c-17 32.667 -41.5 58.167 -73.5 76.5s-75 27.5 -129 27.5
c-54 -0.00292969 -97 -9.16992 -129 -27.5c-32 -18.333 -56.5 -43.833 -73.5 -76.5s-28 -71.834 -33 -117.501s-7.5 -95.5 -7.5 -149.5zM202.999 919.002l-63.001 0.000976562c0 -13.334 2.16699 -28.167 6.5 -44.499c4.33301 -16.335 11.5 -31.668 21.5 -46
c10 -14.333 24 -26.333 42 -36s40.333 -14.5 67 -14.5c26.667 0.00585938 49 4.83887 67 14.5c18 9.66699 32.167 21.667 42.5 36c10.334 14.333 17.667 29.666 22 45.999c4.33691 16.333 6.50391 31.166 6.50098 44.499h-64c-2 -19.3359 -10 -35.0029 -24 -47
c-14 -12 -30.667 -18 -50 -18s-36 6 -50 18s-22 27.667 -24 47z" />
    <glyph glyph-name="obreve" unicode="&#x14f;" horiz-adv-x="480" 
d="M166 269c0 27.333 0.667969 52.666 2.00098 75.999s4.5 43.333 9.5 60s12.5 29.667 22.5 39c10 9.33594 23.333 14.0029 40 14c28 0 47.333 -14.667 58 -44s16 -77.666 16 -144.999c-0.000976562 -67.333 -5.33398 -115.666 -16 -144.999
c-10.667 -29.333 -30 -44 -58 -44c-16.667 0 -30 4.66699 -40 14s-17.5 22.333 -22.5 39s-8.16699 36.667 -9.5 60c-1.33496 23.333 -2.00195 48.666 -2.00098 75.999zM28.001 269c0 -46.667 3.33301 -87.832 10 -123.499s18 -65.334 34 -89.001s37.667 -41 65 -52
s61.666 -16.167 102.999 -15.5c39.333 0 72.5 5.66699 99.5 17s48.833 28.833 65.5 52.5s28.667 53.167 36 88.5c7.33594 35.333 11.0029 76 11 122c-0.00195312 47.333 -3.33496 88.666 -10 123.999c-6.66699 35.334 -18 65.001 -34 89.001
c-16 24.002 -37.667 41.835 -65 53.5c-27.333 11.667 -61.666 17.167 -102.999 16.5c-39.333 -0.00195312 -72.5 -6.16895 -99.5 -18.5c-27 -12.334 -48.833 -30.334 -65.5 -54c-16.667 -23.667 -28.667 -53.167 -36 -88.5s-11 -76 -11 -122zM165.001 745.002
l-63.001 0.00292969c0 -13.335 2.16699 -28.168 6.5 -44.5c4.33301 -16.334 11.5 -31.667 21.5 -46s24 -26.333 42 -36s40.333 -14.5 67 -14.5c26.667 0.00683594 49 4.83984 67 14.5c18 9.66699 32.167 21.667 42.5 36c10.334 14.333 17.667 29.666 22 45.999
c4.33789 16.333 6.50488 31.166 6.50098 44.499h-64c-2 -19.335 -10 -35.002 -24 -47.001c-14 -12 -30.667 -18 -50 -18s-36 6 -50 18s-22 27.667 -24 47z" />
    <glyph glyph-name="Ohungarumlaut" unicode="&#x150;" 
d="M179 357c0 48 1.16602 88.668 3.49902 122.001s7 60.666 14 81.999s17 36.833 30 46.5c13 9.67188 30.167 14.5049 51.5 14.5c21.334 0 38.501 -4.83301 51.501 -14.5s23 -25.167 30 -46.5c7.00195 -21.334 11.6689 -48.667 14 -82c2.3418 -33.333 3.50879 -74 3.5 -122
c0 -48 -1.16699 -88.833 -3.5 -122.5s-7 -61 -14 -82s-17 -36.333 -30 -46s-30.167 -14.5 -51.5 -14.5s-38.5 4.83301 -51.5 14.5s-23 25 -30 46s-11.667 48.333 -14 82c-2.33496 33.667 -3.50195 74.5 -3.5 122.5zM34.999 357.001c0 -54.667 2.5 -104.666 7.5 -149.999
s16 -84.333 33 -117s41.5 -57.667 73.5 -75s75 -26 129 -26s97 8.66699 129 26s56.5 42.333 73.5 75s28 71.667 33 117s7.5 95.333 7.5 150c0 54 -2.5 103.833 -7.5 149.5s-16 84.834 -33 117.5c-17 32.667 -41.5 58.167 -73.5 76.5s-75 27.5 -129 27.5
c-54 -0.00292969 -97 -9.16992 -129 -27.5c-32 -18.333 -56.5 -43.833 -73.5 -76.5s-28 -71.834 -33 -117.501s-7.5 -95.5 -7.5 -149.5zM317.999 922.002l-54 -144h93l98 144h-137zM151.999 922.002l-52 -144h92l98 144h-138z" />
    <glyph glyph-name="ohungarumlaut" unicode="&#x151;" horiz-adv-x="480" 
d="M166 269c0 27.333 0.667969 52.666 2.00098 75.999s4.5 43.333 9.5 60s12.5 29.667 22.5 39c10 9.33594 23.333 14.0029 40 14c28 0 47.333 -14.667 58 -44s16 -77.666 16 -144.999c-0.000976562 -67.333 -5.33398 -115.666 -16 -144.999
c-10.667 -29.333 -30 -44 -58 -44c-16.667 0 -30 4.66699 -40 14s-17.5 22.333 -22.5 39s-8.16699 36.667 -9.5 60c-1.33496 23.333 -2.00195 48.666 -2.00098 75.999zM28.001 269c0 -46.667 3.33301 -87.832 10 -123.499s18 -65.334 34 -89.001s37.667 -41 65 -52
s61.666 -16.167 102.999 -15.5c39.333 0 72.5 5.66699 99.5 17s48.833 28.833 65.5 52.5s28.667 53.167 36 88.5c7.33594 35.333 11.0029 76 11 122c-0.00195312 47.333 -3.33496 88.666 -10 123.999c-6.66699 35.334 -18 65.001 -34 89.001
c-16 24.002 -37.667 41.835 -65 53.5c-27.333 11.667 -61.666 17.167 -102.999 16.5c-39.333 -0.00195312 -72.5 -6.16895 -99.5 -18.5c-27 -12.334 -48.833 -30.334 -65.5 -54c-16.667 -23.667 -28.667 -53.167 -36 -88.5s-11 -76 -11 -122zM280.001 747.002l-54 -144h93
l98 144h-137zM114.001 747.002l-52 -144h92l98 144h-138z" />
    <glyph glyph-name="OE" unicode="&#x152;" horiz-adv-x="778" 
d="M179 357c0 47.333 0.999023 87.835 2.99902 121.502s6.5 61.167 13.5 82.5s17 36.833 30 46.5c13 9.67188 30.5 14.5049 52.5 14.5c21.334 0 38.001 -4.33301 50.001 -13s21 -23.334 27 -44.001c6.00098 -20.667 9.66797 -48 11 -82c1.33887 -34 2.00586 -76 2 -126
c0 -50 -0.666992 -92 -2 -126s-5 -61.333 -11 -82s-15 -35.334 -27 -44.001s-28.667 -13 -50 -13c-22 0 -39.5 4.83301 -52.5 14.5s-23 25.167 -30 46.5s-11.5 48.833 -13.5 82.5s-3 74.167 -3 121.5zM747.999 596.002l-0.00488281 117.999h-365v-38h-2
c-12 20 -30.333 33.667 -54.999 41c-24.667 7.33301 -49.667 11 -75 11c-46.667 -0.00292969 -84.167 -10.1699 -112.5 -30.5c-28.333 -20.334 -50.166 -47.501 -65.499 -81.5c-15.333 -34 -25.5 -72.833 -30.5 -116.5s-7.5 -88.5 -7.5 -134.5
c0 -48 1.83301 -94.667 5.5 -140s12.834 -85.666 27.501 -120.999s37 -63.333 67 -84s71 -31 123 -31c12 0 24.333 1.16699 37 3.5s24.834 5.33301 36.501 9s21.834 9 30.501 16s15 14.833 19 23.5h2v-41h373v118h-250v192h227v118h-227v168h242z" />
    <glyph glyph-name="oe" unicode="&#x153;" horiz-adv-x="741" 
d="M580 330l-141 -0.00195312v21c0.00976562 12.667 1.17676 25.334 3.5 38.001c2.33398 12.667 6.16699 24.167 11.499 34.5c5.33496 10.334 12.502 18.667 21.501 25c9 6.33496 20.5 9.50195 34.5 9.5s25.5 -2.83496 34.5 -8.5c9 -5.66797 16 -14.001 21 -25
c5 -11 8.5 -24.333 10.5 -39.999c2.00879 -15.667 3.3418 -33.834 4 -54.5zM243 79.998c-17.333 0 -31.166 4.66699 -41.499 14c-10.334 9.33301 -18.001 22.333 -23.001 39s-8.16699 36.667 -9.5 60c-1.33496 23.333 -2.00195 48.666 -2.00098 75.999
c0 27.333 0.666992 52.666 2 75.999s4.5 43.333 9.5 60s12.5 29.667 22.5 39c10 9.33594 23.333 14.0029 40 14c28 0 47.333 -14.667 58 -44s16 -77.666 16 -144.999s-5.16699 -115.666 -15.5 -144.999s-29.166 -44 -56.499 -44zM439 247.998h273.004v31
c-0.00585938 41.333 -2.67285 78.833 -8.00098 112.5c-5.33301 33.667 -15.333 62.334 -30 86.001s-34.834 42 -60.501 55s-58.5 19.5 -98.5 19.5c-26.667 0 -51.834 -6.33301 -75.5 -19c-23.667 -12.667 -42.167 -31.334 -55.5 -56.001
c-13.333 25.333 -31 44.166 -53 56.499s-52 18.5 -90 18.5c-39.333 -0.00195312 -72.5 -6.16895 -99.5 -18.5c-27 -12.334 -48.833 -30.334 -65.5 -54c-16.667 -23.667 -28.667 -53.167 -36 -88.5s-11 -76 -11 -122c0 -46.667 3.16699 -87.667 9.5 -123
s17.166 -64.833 32.499 -88.5s35.833 -41 61.5 -52s57.834 -16.5 96.501 -16.5c34.667 0 65.667 6.33301 93 19s45.666 31.667 54.999 57c7.33398 -20 22.001 -37.667 44 -53c22 -15.333 54 -23 96 -23c62 0 108 16.333 138 49c30.001 32.667 46.334 80.334 48.999 143.001
h-124c-4 -34 -11.333 -59.333 -22 -76s-27.667 -25 -51 -25c-12.668 0 -23.335 3.5 -32.001 10.5c-8.66699 7 -15.667 16.333 -21 28s-9.16602 25 -11.499 40s-3.5 30.5 -3.5 46.5v43z" />
    <glyph glyph-name="Racute" unicode="&#x154;" 
d="M50 714v-714.001h144v302h77c30 0 51.333 -8 64 -24s19.667 -38 21 -66l4 -137c0.666992 -14 2 -27.5 4 -40.5c2.00195 -13 6.66895 -24.5 14 -34.5h156v6c-13.335 7.33301 -22.002 21 -26 41c-2.66699 20 -4.66699 49 -6 87c-0.681641 19.333 -1.34863 36.833 -2 52.5
c-0.666992 15.667 -1.66699 30.167 -3 43.5c-4.00098 40 -14.334 69 -31 87c-16.667 18 -43 29.667 -79 35v2c40.667 8.66699 70.667 28.167 90 58.5c19.334 30.334 29.001 69.501 29 117.501c0 62 -16.667 108.167 -50 138.5s-80 45.5 -140 45.5h-266zM194 401.999
l0.000976562 206h68c66.667 0 100 -33 100 -99c-0.000976562 -38.667 -9.33398 -66.167 -28 -82.5c-18.667 -16.333 -45.334 -24.5 -80.001 -24.5h-60zM250.001 907.999l-54 -144h94l97 144h-137z" />
    <glyph glyph-name="racute" unicode="&#x155;" horiz-adv-x="333" 
d="M46 538v-538.002h138v323c0 18.001 3 33.168 9 45.501s14 22.333 24 30s21 13.167 33 16.5c12 3.33691 24 5.00391 36 5.00098c7.33398 0 14.501 -0.166992 21.5 -0.5c7.00098 -0.333008 14.168 -0.833008 21.5 -1.5v132c-4 0.666992 -8.16699 1.16699 -12.5 1.5
s-8.5 0.5 -12.5 0.5c-28.667 0 -53 -7.83301 -73 -23.5s-37 -36.5 -51 -62.5h-2v72h-132zM145 745.998l-54 -144h94l97 144h-137z" />
    <glyph glyph-name="Rcommaaccent" unicode="&#x156;" 
d="M50 714v-714.001h144v302h77c30 0 51.333 -8 64 -24s19.667 -38 21 -66l4 -137c0.666992 -14 2 -27.5 4 -40.5c2.00195 -13 6.66895 -24.5 14 -34.5h156v6c-13.335 7.33301 -22.002 21 -26 41c-2.66699 20 -4.66699 49 -6 87c-0.681641 19.333 -1.34863 36.833 -2 52.5
c-0.666992 15.667 -1.66699 30.167 -3 43.5c-4.00098 40 -14.334 69 -31 87c-16.667 18 -43 29.667 -79 35v2c40.667 8.66699 70.667 28.167 90 58.5c19.334 30.334 29.001 69.501 29 117.501c0 62 -16.667 108.167 -50 138.5s-80 45.5 -140 45.5h-266zM194 401.999
l0.000976562 206h68c66.667 0 100 -33 100 -99c-0.000976562 -38.667 -9.33398 -66.167 -28 -82.5c-18.667 -16.333 -45.334 -24.5 -80.001 -24.5h-60zM345.001 -101.001c0 -21.333 -1.50098 -40.832 -4.50098 -58.499s-8.5 -33.167 -16.5 -46.5s-18.833 -24 -32.499 -32
c-13.667 -8 -31.167 -13.333 -52.5 -16v56c14 2.66699 24.5 10.167 31.5 22.5s10.5 26.166 10.5 41.499v12h-42v125h106v-104v0z" />
    <glyph glyph-name="rcommaaccent" unicode="&#x157;" horiz-adv-x="333" 
d="M46 538v-538.002h138v323c0 18.001 3 33.168 9 45.501s14 22.333 24 30s21 13.167 33 16.5c12 3.33691 24 5.00391 36 5.00098c7.33398 0 14.501 -0.166992 21.5 -0.5c7.00098 -0.333008 14.168 -0.833008 21.5 -1.5v132c-4 0.666992 -8.16699 1.16699 -12.5 1.5
s-8.5 0.5 -12.5 0.5c-28.667 0 -53 -7.83301 -73 -23.5s-37 -36.5 -51 -62.5h-2v72h-132zM240 -101.002c0 -21.333 -1.5 -40.832 -4.5 -58.499s-8.5 -33.167 -16.5 -46.5s-18.833 -24 -32.5 -32s-31.167 -13.333 -52.5 -16v56c14 2.66699 24.5 10.167 31.5 22.5
s10.5 26.166 10.5 41.499v12h-42v125h106v-104v0z" />
    <glyph glyph-name="Rcaron" unicode="&#x158;" 
d="M50 714v-714.001h144v302h77c30 0 51.333 -8 64 -24s19.667 -38 21 -66l4 -137c0.666992 -14 2 -27.5 4 -40.5c2.00195 -13 6.66895 -24.5 14 -34.5h156v6c-13.335 7.33301 -22.002 21 -26 41c-2.66699 20 -4.66699 49 -6 87c-0.681641 19.333 -1.34863 36.833 -2 52.5
c-0.666992 15.667 -1.66699 30.167 -3 43.5c-4.00098 40 -14.334 69 -31 87c-16.667 18 -43 29.667 -79 35v2c40.667 8.66699 70.667 28.167 90 58.5c19.334 30.334 29.001 69.501 29 117.501c0 62 -16.667 108.167 -50 138.5s-80 45.5 -140 45.5h-266zM194 401.999
l0.000976562 206h68c66.667 0 100 -33 100 -99c-0.000976562 -38.667 -9.33398 -66.167 -28 -82.5c-18.667 -16.333 -45.334 -24.5 -80.001 -24.5h-60zM143.001 907.999l76 -144h144l77 144h-99l-48 -85l-46 85h-104z" />
    <glyph glyph-name="rcaron" unicode="&#x159;" horiz-adv-x="333" 
d="M46 538v-538.002h138v323c0 18.001 3 33.168 9 45.501s14 22.333 24 30s21 13.167 33 16.5c12 3.33691 24 5.00391 36 5.00098c7.33398 0 14.501 -0.166992 21.5 -0.5c7.00098 -0.333008 14.168 -0.833008 21.5 -1.5v132c-4 0.666992 -8.16699 1.16699 -12.5 1.5
s-8.5 0.5 -12.5 0.5c-28.667 0 -53 -7.83301 -73 -23.5s-37 -36.5 -51 -62.5h-2v72h-132zM38 745.998l76 -144h144l77 144h-99l-48 -85l-46 85h-104z" />
    <glyph glyph-name="Sacute" unicode="&#x15a;" horiz-adv-x="519" 
d="M166 202c0.000976562 -16.667 1.33496 -31.8359 4.00098 -45.5029c2.66699 -13.667 7.66699 -25.167 15 -34.5s17.166 -16.666 29.499 -21.999s27.833 -8 46.5 -8c22 0 41.833 7.16699 59.5 21.5s26.5 36.5 26.5 66.5c0 16 -2.16699 29.833 -6.5 41.5
s-11.5 22.167 -21.5 31.5s-23.167 17.833 -39.5 25.5s-36.5 15.5 -60.5 23.5c-32 10.667 -59.667 22.334 -83 35.001s-42.833 27.5 -58.5 44.5s-27.167 36.667 -34.5 59c-7.33301 22.334 -11 48.167 -11 77.5c0 70.667 19.667 123.334 59 158
c39.333 34.668 93.333 52.001 162 52c32 0 61.5 -3.5 88.5 -10.5s50.333 -18.333 70 -34s35 -35.667 46 -60c11 -24.334 16.5 -53.501 16.5 -87.5v-20h-138c0 34 -6 60.167 -18 78.5s-32 27.5 -60 27.5c-16 0 -29.333 -2.33301 -40 -7s-19.167 -10.834 -25.5 -18.501
c-6.33398 -7.66699 -10.667 -16.5 -13 -26.5c-2.33496 -10 -3.50195 -20.333 -3.50098 -31c0 -22 4.66699 -40.5 14 -55.5s29.333 -28.833 60 -41.499l111 -48c27.334 -12 49.667 -24.5 67 -37.5c17.334 -13 31.167 -27 41.5 -42c10.334 -15 17.501 -31.5 21.5 -49.5
c4 -18 6 -38 6 -60c0 -75.333 -21.833 -130.166 -65.499 -164.499c-43.667 -34.333 -104.5 -51.5 -182.5 -51.5c-81.333 0 -139.5 17.667 -174.5 53s-52.5 86 -52.5 152v29h144v-21zM395.001 899.998l-98 -144h-94l54 144h138z" />
    <glyph glyph-name="sacute" unicode="&#x15b;" horiz-adv-x="444" 
d="M147 158c0 -23.333 6.16699 -42.167 18.5 -56.5s30.166 -21.5 53.499 -21.5c21.333 0 38.333 5.33301 51 16s19 26.667 19 48c0 17.333 -5 30.5 -15 39.5s-21.667 16.167 -35 21.5l-97 35c-38 13.334 -66.667 32.167 -86 56.5s-29 55.5 -29 93.5
c0 22 3.66699 42.833 11 62.5s19 36.834 35 51.501c16 14.668 36.5 26.335 61.5 35.001c25 8.6709 55.167 13.0039 90.5 13c62.667 0 109 -13.333 139 -40s45 -64.334 45 -113v-22h-124c0 28 -4.5 48.5 -13.5 61.5s-24.833 19.5 -47.5 19.5
c-17.333 -0.00292969 -32.5 -4.83594 -45.5 -14.5c-13 -9.66699 -19.5 -24.167 -19.5 -43.5c0 -13.333 4.16699 -25.333 12.5 -36s24.166 -19.667 47.499 -27l83 -28c43.334 -14.667 74.001 -33.834 92.001 -57.501s27 -55.834 27 -96.501c0 -28.667 -5 -53.5 -15 -74.5
s-23.833 -38.5 -41.499 -52.5c-17.667 -14 -38.667 -24 -63 -30s-51.166 -9 -80.499 -9c-38.667 0 -70.834 3.66699 -96.501 11s-46 18.333 -61 33s-25.5 32.5 -31.5 53.5s-9 44.5 -9 70.5v19h124v-18zM358 744.999l-98 -144h-94l54 144h138z" />
    <glyph glyph-name="Scircumflex" unicode="&#x15c;" horiz-adv-x="519" 
d="M166 223l-144.003 0.00292969v-29c0 -66 17.5 -116.667 52.5 -152s93.167 -53 174.5 -53c78 0 138.833 17.167 182.5 51.5s65.5 89.166 65.5 164.499c0 22 -2 42 -6 60s-11.167 34.5 -21.5 49.5s-24.166 29 -41.499 42s-39.666 25.5 -66.999 37.5l-111 48
c-30.667 12.667 -50.667 26.5 -60 41.5c-9.33398 15 -14.001 33.5 -14.001 55.5c0 10.6689 1.16699 21.002 3.5 31c2.33301 10.002 6.66602 18.835 12.999 26.499c6.33301 7.6709 14.833 13.8379 25.5 18.5c10.667 4.67578 24 7.00879 40 6.99902
c28 -0.00195312 48 -9.16895 60 -27.5c12 -18.334 18 -44.501 18 -78.5h138v20c0 34 -5.5 63.167 -16.5 87.5s-26.333 44.333 -45.999 60c-19.667 15.668 -43 27.001 -70 34c-27 7 -56.5 10.5 -88.5 10.5c-68.667 0 -122.667 -17.333 -162 -52s-59 -87.334 -59 -158.001
c0 -29.333 3.66699 -55.166 11 -77.499s18.833 -42 34.5 -59c15.667 -17.001 35.167 -31.834 58.5 -44.5c23.333 -12.667 51 -24.334 83 -35c24 -8.00098 44.167 -15.834 60.5 -23.5c16.334 -7.66699 29.501 -16.167 39.501 -25.5
c10.001 -9.33301 17.168 -19.833 21.501 -31.5c4.33594 -11.667 6.50293 -25.5 6.5 -41.5c-0.000976562 -30 -8.83398 -52.167 -26.5 -66.5c-17.667 -14.333 -37.5 -21.5 -59.5 -21.5c-18.667 0 -34.167 2.66699 -46.5 8c-12.334 5.33301 -22.167 12.666 -29.5 21.999
s-12.333 20.833 -15 34.5s-4 28.834 -4 45.501v21zM185.997 922.003l-76 -144h98l48 85l46 -85h105l-77 144h-144z" />
    <glyph glyph-name="scircumflex" unicode="&#x15d;" horiz-adv-x="444" 
d="M147 176l-124.001 -0.000976562v-19c0 -26 3 -49.5 9 -70.5s16.5 -38.833 31.5 -53.5s35.333 -25.667 61 -33s57.834 -11 96.501 -11c29.333 0 56.166 3 80.499 9s45.333 16 63 30s31.5 31.5 41.5 52.5s15 45.833 15 74.5c0 40.667 -9 72.834 -27 96.501
s-48.667 42.834 -92 57.501l-83 28c-23.333 7.33301 -39.166 16.333 -47.499 27c-8.33398 10.667 -12.501 22.667 -12.501 36c0 19.333 6.5 33.833 19.5 43.5s28.167 14.5 45.5 14.5c22.667 0 38.5 -6.5 47.5 -19.5s13.5 -33.5 13.5 -61.5h124v22
c0 48.667 -15 86.334 -45 113.001c-30 26.668 -76.333 40.001 -139 40c-35.333 0 -65.5 -4.33301 -90.5 -13s-45.5 -20.334 -61.5 -35.001s-27.667 -31.834 -35 -51.5c-7.33301 -19.667 -11 -40.5 -11 -62.5c0 -38 9.66699 -69.167 29 -93.5s48 -43.166 86 -56.499l97 -35
c13.333 -5.33398 25 -12.501 35 -21.501s15 -22.167 15 -39.5c-0.000976562 -21.333 -6.33398 -37.333 -19 -48c-12.667 -10.667 -29.667 -16 -51 -16c-23.333 0 -41.166 7.16699 -53.499 21.5s-18.5 33.166 -18.5 56.499v18zM148.999 745.999l-76 -144h98l48 85l46 -85h105
l-77 144h-144z" />
    <glyph glyph-name="Scedilla" unicode="&#x15e;" horiz-adv-x="519" 
d="M166 223l-144.003 0.00292969v-29c0 -66 17.5 -116.667 52.5 -152s93.167 -53 174.5 -53c78 0 138.833 17.167 182.5 51.5s65.5 89.166 65.5 164.499c0 22 -2 42 -6 60s-11.167 34.5 -21.5 49.5s-24.166 29 -41.499 42s-39.666 25.5 -66.999 37.5l-111 48
c-30.667 12.667 -50.667 26.5 -60 41.5c-9.33398 15 -14.001 33.5 -14.001 55.5c0 10.6689 1.16699 21.002 3.5 31c2.33301 10.002 6.66602 18.835 12.999 26.499c6.33301 7.6709 14.833 13.8379 25.5 18.5c10.667 4.67578 24 7.00879 40 6.99902
c28 -0.00195312 48 -9.16895 60 -27.5c12 -18.334 18 -44.501 18 -78.5h138v20c0 34 -5.5 63.167 -16.5 87.5s-26.333 44.333 -45.999 60c-19.667 15.668 -43 27.001 -70 34c-27 7 -56.5 10.5 -88.5 10.5c-68.667 0 -122.667 -17.333 -162 -52s-59 -87.334 -59 -158.001
c0 -29.333 3.66699 -55.166 11 -77.499s18.833 -42 34.5 -59c15.667 -17.001 35.167 -31.834 58.5 -44.5c23.333 -12.667 51 -24.334 83 -35c24 -8.00098 44.167 -15.834 60.5 -23.5c16.334 -7.66699 29.501 -16.167 39.501 -25.5
c10.001 -9.33301 17.168 -19.833 21.501 -31.5c4.33594 -11.667 6.50293 -25.5 6.5 -41.5c-0.000976562 -30 -8.83398 -52.167 -26.5 -66.5c-17.667 -14.333 -37.5 -21.5 -59.5 -21.5c-18.667 0 -34.167 2.66699 -46.5 8c-12.334 5.33301 -22.167 12.666 -29.5 21.999
s-12.333 20.833 -15 34.5s-4 28.834 -4 45.501v21zM292.997 -6.99707l-54.002 0.000976562l-55 -89l22 -20c5.33301 2 10.5 3.5 15.5 4.5s11.167 1.5 18.5 1.5c13.333 0 24 -3.16699 32 -9.5s12 -14.5 12 -24.5c-0.000976562 -9.33301 -4.83398 -17.333 -14.5 -24
c-9.66699 -6.66699 -21.5 -10 -35.5 -10c-12.667 0 -25.5 1.5 -38.5 4.5s-23.167 6.5 -30.5 10.5l-19 -46c8 -4.66699 21.167 -9 39.5 -13s38.5 -6 60.5 -6c40.667 0 71.667 8.16699 93 24.5c21.334 16.333 32.001 39.5 32.001 69.5c-0.00292969 12 -2.33594 22.5 -7 31.5
c-4.66699 9 -11 16.667 -18.999 23c-8 6.33301 -17 11.166 -27 14.499s-20 5 -30 5c-6 0 -11.5 -0.5 -16.5 -1.5s-10.5 -2.16699 -16.5 -3.5z" />
    <glyph glyph-name="scedilla" unicode="&#x15f;" horiz-adv-x="444" 
d="M147 176l-124.001 -0.000976562v-19c0 -26 3 -49.5 9 -70.5s16.5 -38.833 31.5 -53.5s35.333 -25.667 61 -33s57.834 -11 96.501 -11c29.333 0 56.166 3 80.499 9s45.333 16 63 30s31.5 31.5 41.5 52.5s15 45.833 15 74.5c0 40.667 -9 72.834 -27 96.501
s-48.667 42.834 -92 57.501l-83 28c-23.333 7.33301 -39.166 16.333 -47.499 27c-8.33398 10.667 -12.501 22.667 -12.501 36c0 19.333 6.5 33.833 19.5 43.5s28.167 14.5 45.5 14.5c22.667 0 38.5 -6.5 47.5 -19.5s13.5 -33.5 13.5 -61.5h124v22
c0 48.667 -15 86.334 -45 113.001c-30 26.668 -76.333 40.001 -139 40c-35.333 0 -65.5 -4.33301 -90.5 -13s-45.5 -20.334 -61.5 -35.001s-27.667 -31.834 -35 -51.5c-7.33301 -19.667 -11 -40.5 -11 -62.5c0 -38 9.66699 -69.167 29 -93.5s48 -43.166 86 -56.499l97 -35
c13.333 -5.33398 25 -12.501 35 -21.501s15 -22.167 15 -39.5c-0.000976562 -21.333 -6.33398 -37.333 -19 -48c-12.667 -10.667 -29.667 -16 -51 -16c-23.333 0 -41.166 7.16699 -53.499 21.5s-18.5 33.166 -18.5 56.499v18zM255.999 -7.00098l-54.002 0.000976562l-55 -89
l22 -20c5.33301 2 10.5 3.5 15.5 4.5s11.167 1.5 18.5 1.5c13.333 0 24 -3.16699 32 -9.5s12 -14.5 12 -24.5c0 -9.33301 -4.83301 -17.333 -14.5 -24s-21.5 -10 -35.5 -10c-12.667 0 -25.5 1.5 -38.5 4.5s-23.167 6.5 -30.5 10.5l-19 -46c8 -4.66699 21.167 -9 39.5 -13
s38.5 -6 60.5 -6c40.667 0 71.667 8.16699 93 24.5c21.334 16.333 32.001 39.5 32.001 69.5c-0.00292969 12 -2.33594 22.5 -7 31.5c-4.66699 9 -11 16.667 -18.999 23c-8 6.33301 -17 11.166 -27 14.499s-20 5 -30 5c-6 0 -11.5 -0.5 -16.5 -1.5s-10.5 -2.16699 -16.5 -3.5
z" />
    <glyph glyph-name="Scaron" unicode="&#x160;" horiz-adv-x="519" 
d="M110 900l78 -144h144l78 144h-100l-48 -85l-46 85h-106zM166 223l-144.003 0.00292969v-29c0 -66 17.5 -116.667 52.5 -152s93.167 -53 174.5 -53c78 0 138.833 17.167 182.5 51.5s65.5 89.166 65.5 164.499c0 22 -2 42 -6 60s-11.167 34.5 -21.5 49.5
s-24.166 29 -41.499 42s-39.666 25.5 -66.999 37.5l-111 48c-30.667 12.667 -50.667 26.5 -60 41.5c-9.33398 15 -14.001 33.5 -14.001 55.5c0 10.6689 1.16699 21.002 3.5 31c2.33301 10.002 6.66602 18.835 12.999 26.499c6.33301 7.6709 14.833 13.8379 25.5 18.5
c10.667 4.67578 24 7.00879 40 6.99902c28 -0.00195312 48 -9.16895 60 -27.5c12 -18.334 18 -44.501 18 -78.5h138v20c0 34 -5.5 63.167 -16.5 87.5s-26.333 44.333 -45.999 60c-19.667 15.668 -43 27.001 -70 34c-27 7 -56.5 10.5 -88.5 10.5
c-68.667 0 -122.667 -17.333 -162 -52s-59 -87.334 -59 -158.001c0 -29.333 3.66699 -55.166 11 -77.499s18.833 -42 34.5 -59c15.667 -17.001 35.167 -31.834 58.5 -44.5c23.333 -12.667 51 -24.334 83 -35c24 -8.00098 44.167 -15.834 60.5 -23.5
c16.334 -7.66699 29.501 -16.167 39.501 -25.5c10.001 -9.33301 17.168 -19.833 21.501 -31.5c4.33594 -11.667 6.50293 -25.5 6.5 -41.5c-0.000976562 -30 -8.83398 -52.167 -26.5 -66.5c-17.667 -14.333 -37.5 -21.5 -59.5 -21.5c-18.667 0 -34.167 2.66699 -46.5 8
c-12.334 5.33301 -22.167 12.666 -29.5 21.999s-12.333 20.833 -15 34.5s-4 28.834 -4 45.501v21z" />
    <glyph glyph-name="scaron" unicode="&#x161;" horiz-adv-x="444" 
d="M72 745l78 -144h144l78 144h-100l-48 -85l-46 85h-106zM147 176l-124.001 -0.000976562v-19c0 -26 3 -49.5 9 -70.5s16.5 -38.833 31.5 -53.5s35.333 -25.667 61 -33s57.834 -11 96.501 -11c29.333 0 56.166 3 80.499 9s45.333 16 63 30s31.5 31.5 41.5 52.5
s15 45.833 15 74.5c0 40.667 -9 72.834 -27 96.501s-48.667 42.834 -92 57.501l-83 28c-23.333 7.33301 -39.166 16.333 -47.499 27c-8.33398 10.667 -12.501 22.667 -12.501 36c0 19.333 6.5 33.833 19.5 43.5s28.167 14.5 45.5 14.5c22.667 0 38.5 -6.5 47.5 -19.5
s13.5 -33.5 13.5 -61.5h124v22c0 48.667 -15 86.334 -45 113.001c-30 26.668 -76.333 40.001 -139 40c-35.333 0 -65.5 -4.33301 -90.5 -13s-45.5 -20.334 -61.5 -35.001s-27.667 -31.834 -35 -51.5c-7.33301 -19.667 -11 -40.5 -11 -62.5c0 -38 9.66699 -69.167 29 -93.5
s48 -43.166 86 -56.499l97 -35c13.333 -5.33398 25 -12.501 35 -21.501s15 -22.167 15 -39.5c-0.000976562 -21.333 -6.33398 -37.333 -19 -48c-12.667 -10.667 -29.667 -16 -51 -16c-23.333 0 -41.166 7.16699 -53.499 21.5s-18.5 33.166 -18.5 56.499v18z" />
    <glyph glyph-name="Tcedilla" unicode="&#x162;" horiz-adv-x="480" 
d="M468 714h-456v-118h156v-596h144v596h156v118zM274 0l-54.002 0.00195312l-55 -89l22 -20c5.33301 2 10.5 3.5 15.5 4.5s11.167 1.5 18.5 1.5c13.333 0 24 -3.16699 32 -9.5s12 -14.5 12 -24.5c-0.00195312 -9.33301 -4.83496 -17.333 -14.5 -24
c-9.66699 -6.66699 -21.5 -10 -35.5 -10c-12.667 0 -25.5 1.5 -38.5 4.5s-23.167 6.5 -30.5 10.5l-19 -46c8 -4.66699 21.167 -9 39.5 -13s38.5 -6 60.5 -6c40.667 0 71.667 8.16699 93 24.5c21.334 16.333 32.001 39.5 32.001 69.5c-0.00292969 12 -2.33594 22.5 -7 31.5
c-4.66699 9 -11 16.667 -18.999 23c-8 6.33301 -17 11.166 -27 14.499s-20 5 -30 5c-6 0 -11.5 -0.5 -16.5 -1.5s-10.5 -2.16699 -16.5 -3.50098z" />
    <glyph glyph-name="tcedilla" unicode="&#x163;" horiz-adv-x="296" 
d="M76 692v-154h-70v-94h70v-308c0 -27.333 1.66699 -50 5 -68s9.5 -32.5 18.5 -43.5s22 -18.333 39 -22s38.833 -5.5 65.5 -5.5c16 0 31.167 0.5 45.5 1.5c14.334 1 29.167 1.5 44.5 1.5v96c-4.66699 -0.666992 -9.66699 -1.16699 -15 -1.5s-10.666 -0.5 -15.999 -0.5
c-20 0 -33.167 4.5 -39.5 13.5c-6.33398 9 -9.50098 24.167 -9.50098 45.5v291h80v94h-80v154h-138zM184 0l-54 0.00195312l-55 -89l22 -20c5.33301 2 10.5 3.5 15.5 4.5s11.167 1.5 18.5 1.5c13.333 0 24 -3.16699 32 -9.5s12 -14.5 12 -24.5
c0 -9.33301 -4.83301 -17.333 -14.5 -24s-21.5 -10 -35.5 -10c-12.667 0 -25.5 1.5 -38.5 4.5s-23.167 6.5 -30.5 10.5l-19 -46c8 -4.66699 21.167 -9 39.5 -13s38.5 -6 60.5 -6c40.667 0 71.667 8.16699 93 24.5s32 39.5 32 69.5c-0.00195312 12 -2.33496 22.5 -7 31.5
c-4.66699 9 -11 16.667 -19 23s-17 11.166 -27 14.499s-20 5 -30 5c-6 0 -11.5 -0.5 -16.5 -1.5s-10.5 -2.16699 -16.5 -3.50098z" />
    <glyph glyph-name="Tcaron" unicode="&#x164;" horiz-adv-x="480" 
d="M468 714h-456v-118h156v-596h144v596h156v118zM91 908l76 -144h144l77 144h-99l-48 -85l-46 85h-104z" />
    <glyph glyph-name="tcaron" unicode="&#x165;" 
d="M76 692v-154h-70v-94h70v-308c0 -27.333 1.66699 -50 5 -68s9.5 -32.5 18.5 -43.5s22 -18.333 39 -22s38.833 -5.5 65.5 -5.5c16 0 31.167 0.5 45.5 1.5c14.334 1 29.167 1.5 44.5 1.5v96c-4.66699 -0.666992 -9.66699 -1.16699 -15 -1.5s-10.666 -0.5 -15.999 -0.5
c-20 0 -33.167 4.5 -39.5 13.5c-6.33398 9 -9.50098 24.167 -9.50098 45.5v291h80v94h-80v154h-138zM492 584v130h-132v-156h52v-16c-0.00195312 -18.667 -4.33496 -35.667 -13 -51c-8.66699 -15.333 -21.667 -24.666 -39 -27.999v-70
c26.667 2.66699 48.5 9.16699 65.5 19.5c17 10.334 30.5 23.667 40.5 40c10 16.334 16.833 35.667 20.5 57.999c3.66699 22.333 5.5 46.833 5.5 73.5z" />
    <glyph glyph-name="Tbar" unicode="&#x166;" horiz-adv-x="480" 
d="M168 444v152h-156v118h456v-118h-156v-152h95v-94h-95v-350h-144v350h-89v94h89z" />
    <glyph glyph-name="tbar" unicode="&#x167;" horiz-adv-x="296" 
d="M76 335l-0.000976562 109h-70v94h70v154h138v-154h80v-94h-80v-109h80v-94h-80v-88c0 -21.333 3.16699 -36.5 9.5 -45.5s19.5 -13.5 39.5 -13.5c5.33398 0.000976562 10.667 0.167969 16 0.5c5.33301 0.333008 10.333 0.833008 15 1.5v-96
c-15.333 0 -30.166 -0.5 -44.499 -1.5s-29.5 -1.5 -45.5 -1.5c-26.667 0 -48.5 1.83301 -65.5 5.5s-30 11 -39 22s-15.167 25.5 -18.5 43.5s-5 40.667 -5 68v105h-70v94h70z" />
    <glyph glyph-name="Utilde" unicode="&#x168;" horiz-adv-x="538" 
d="M185 714l-143.997 -0.000976562v-498c0 -48 6.33301 -87 19 -117s29.667 -53.167 51 -69.5s45.666 -27.166 72.999 -32.499s55.666 -8 84.999 -8s57.666 3 84.999 9c27.334 6 51.667 17.667 73 35s38.333 40.833 51 70.5s19 67.167 19 112.5v498h-144v-498
c0 -18 -1.16699 -34.5 -3.5 -49.5s-6.66602 -28 -12.999 -39s-14.833 -19.667 -25.5 -26s-24.667 -9.5 -42 -9.5c-16.667 0 -30.5 3.16699 -41.5 9.5s-19.667 15 -26 26c-6.33398 11 -10.667 24 -13 39c-2.33496 15 -3.50195 31.5 -3.50098 49.5v498zM113.003 763.999
l67.999 0.00292969c5.33301 24 16 36 32 36c8 0 16.667 -1.83301 26 -5.5c9.33398 -3.66699 19.167 -7.5 29.5 -11.5s20.833 -7.83301 31.5 -11.5s21.334 -5.5 32.001 -5.5c25.334 0 46.167 11.667 62.5 35c16.335 23.333 26.168 53 29.5 89h-71
c-0.00390625 -6.66699 -2.33691 -14.334 -7 -23.001c-4.66699 -8.66699 -11.667 -13 -21 -13c-10 0 -20 2 -30 6l-48 21c-10 4.68066 -24.333 7.01367 -43 7c-25.333 -0.00195312 -45.5 -10.6689 -60.5 -32.001c-15 -21.335 -25.167 -52.002 -30.5 -92.001z" />
    <glyph glyph-name="utilde" unicode="&#x169;" horiz-adv-x="500" 
d="M322 63l0.000976562 -63h132v538h-138v-357c0 -59.333 -24.333 -89 -73 -89c-20.667 0 -35.667 5.5 -45 16.5c-9.33398 11 -14.001 30.5 -14.001 58.5v371h-138v-399c0 -54 11.833 -92.5 35.5 -115.5s57.5 -34.5 101.5 -34.5c30 0 56.667 5.66699 80 17
s42.333 30.333 57 57h2zM94.001 592l68.001 0.000976562c5.33301 24 16 36 32 36c8 0 16.667 -1.83301 26 -5.5s19.166 -7.5 29.499 -11.5s20.833 -7.83301 31.5 -11.5s21.334 -5.5 32.001 -5.5c25.333 0 46.166 11.667 62.499 35c16.334 23.333 26.167 53 29.5 89h-71
c-0.00292969 -6.66699 -2.33594 -14.334 -7 -23.001c-4.66699 -8.66699 -11.667 -13 -21 -13c-10 0 -20 2 -30 6l-48 21c-10 4.67773 -24.333 7.01074 -43 7c-25.333 -0.000976562 -45.5 -10.668 -60.5 -32c-15 -21.334 -25.167 -52.001 -30.5 -92z" />
    <glyph glyph-name="Umacron" unicode="&#x16a;" horiz-adv-x="538" 
d="M185 714l-143.997 -0.000976562v-498c0 -48 6.33301 -87 19 -117s29.667 -53.167 51 -69.5s45.666 -27.166 72.999 -32.499s55.666 -8 84.999 -8s57.666 3 84.999 9c27.334 6 51.667 17.667 73 35s38.333 40.833 51 70.5s19 67.167 19 112.5v498h-144v-498
c0 -18 -1.16699 -34.5 -3.5 -49.5s-6.66602 -28 -12.999 -39s-14.833 -19.667 -25.5 -26s-24.667 -9.5 -42 -9.5c-16.667 0 -30.5 3.16699 -41.5 9.5s-19.667 15 -26 26c-6.33398 11 -10.667 24 -13 39c-2.33496 15 -3.50195 31.5 -3.50098 49.5v498zM414.003 839.999h-291
v-76h291v76z" />
    <glyph glyph-name="umacron" unicode="&#x16b;" horiz-adv-x="500" 
d="M322 63l0.000976562 -63h132v538h-138v-357c0 -59.333 -24.333 -89 -73 -89c-20.667 0 -35.667 5.5 -45 16.5c-9.33398 11 -14.001 30.5 -14.001 58.5v371h-138v-399c0 -54 11.833 -92.5 35.5 -115.5s57.5 -34.5 101.5 -34.5c30 0 56.667 5.66699 80 17
s42.333 30.333 57 57h2zM395.001 668h-291v-76h291v76z" />
    <glyph glyph-name="Ubreve" unicode="&#x16c;" horiz-adv-x="538" 
d="M185 714l-143.997 -0.000976562v-498c0 -48 6.33301 -87 19 -117s29.667 -53.167 51 -69.5s45.666 -27.166 72.999 -32.499s55.666 -8 84.999 -8s57.666 3 84.999 9c27.334 6 51.667 17.667 73 35s38.333 40.833 51 70.5s19 67.167 19 112.5v498h-144v-498
c0 -18 -1.16699 -34.5 -3.5 -49.5s-6.66602 -28 -12.999 -39s-14.833 -19.667 -25.5 -26s-24.667 -9.5 -42 -9.5c-16.667 0 -30.5 3.16699 -41.5 9.5s-19.667 15 -26 26c-6.33398 11 -10.667 24 -13 39c-2.33496 15 -3.50195 31.5 -3.50098 49.5v498zM194.003 904.999
l-63.001 0.00195312c0 -13.335 2.16699 -28.168 6.5 -44.5c4.33301 -16.334 11.5 -31.667 21.5 -46s24 -26.333 42 -36s40.333 -14.5 67 -14.5c26.667 0.00878906 49 4.8418 67 14.5c18 9.66699 32.167 21.667 42.5 36c10.334 14.333 17.667 29.666 22 45.999
c4.33691 16.333 6.50391 31.166 6.50098 44.499h-64c-2 -19.335 -10 -35.002 -24 -47c-14 -12 -30.667 -18 -50 -18s-36 6 -50 18s-22 27.667 -24 47z" />
    <glyph glyph-name="ubreve" unicode="&#x16d;" horiz-adv-x="500" 
d="M322 63l0.000976562 -63h132v538h-138v-357c0 -59.333 -24.333 -89 -73 -89c-20.667 0 -35.667 5.5 -45 16.5c-9.33398 11 -14.001 30.5 -14.001 58.5v371h-138v-399c0 -54 11.833 -92.5 35.5 -115.5s57.5 -34.5 101.5 -34.5c30 0 56.667 5.66699 80 17
s42.333 30.333 57 57h2zM175.001 733l-62.999 0.00195312c0 -13.334 2.16699 -28.167 6.5 -44.5c4.33301 -16.334 11.5 -31.667 21.5 -46s24 -26.333 42 -36s40.333 -14.5 67 -14.5c26.667 0.00488281 49 4.83789 67 14.5c18 9.66699 32.167 21.667 42.5 36
c10.334 14.333 17.667 29.666 22 45.999c4.33594 16.333 6.50293 31.166 6.5 44.499h-64c-2 -19.335 -10 -35.002 -24 -47c-14 -12 -30.667 -18 -50 -18c-19.334 0 -36.001 6 -50.001 18s-22 27.667 -24 47z" />
    <glyph glyph-name="Uring" unicode="&#x16e;" horiz-adv-x="538" 
d="M185 714l-143.997 -0.000976562v-498c0 -48 6.33301 -87 19 -117s29.667 -53.167 51 -69.5s45.666 -27.166 72.999 -32.499s55.666 -8 84.999 -8s57.666 3 84.999 9c27.334 6 51.667 17.667 73 35s38.333 40.833 51 70.5s19 67.167 19 112.5v498h-144v-498
c0 -18 -1.16699 -34.5 -3.5 -49.5s-6.66602 -28 -12.999 -39s-14.833 -19.667 -25.5 -26s-24.667 -9.5 -42 -9.5c-16.667 0 -30.5 3.16699 -41.5 9.5s-19.667 15 -26 26c-6.33398 11 -10.667 24 -13 39c-2.33496 15 -3.50195 31.5 -3.50098 49.5v498zM210.003 877.999
c0 16 5.66797 29.6699 17.001 41.0029s25 17 41 17c16 -0.00390625 29.667 -5.6709 41 -17.001c11.334 -11.335 17.001 -25.002 17 -41c0 -16.002 -5.66699 -29.6689 -17 -41.001c-11.333 -11.3369 -25 -17.0039 -41 -17.001c-16 0 -29.667 5.66699 -41 17
c-11.334 11.333 -17.001 25 -17.001 41zM156.004 878.002c0 -16 2.66797 -30.8311 8.00098 -44.498s13.166 -25.667 23.499 -36c10.333 -10.3379 22.333 -18.5049 36 -24.5c13.667 -6 28.5 -9 44.5 -9s30.833 3 44.5 9s25.667 14.167 36 24.5s18.333 22.333 24 36
c5.66699 13.668 8.5 28.501 8.5 44.499c-0.00195312 16.0029 -2.83496 30.8359 -8.5 44.5c-5.66699 13.667 -13.667 25.667 -24 36s-22.333 18.5 -36 24.5s-28.5 9 -44.5 9s-30.833 -3 -44.5 -9c-13.667 -6.00586 -25.667 -14.1729 -36 -24.501
c-10.333 -10.333 -18.166 -22.333 -23.499 -36c-5.33398 -13.667 -8.00098 -28.5 -8.00098 -44.5z" />
    <glyph glyph-name="uring" unicode="&#x16f;" horiz-adv-x="500" 
d="M322 63l0.000976562 -63h132v538h-138v-357c0 -59.333 -24.333 -89 -73 -89c-20.667 0 -35.667 5.5 -45 16.5c-9.33398 11 -14.001 30.5 -14.001 58.5v371h-138v-399c0 -54 11.833 -92.5 35.5 -115.5s57.5 -34.5 101.5 -34.5c30 0 56.667 5.66699 80 17
s42.333 30.333 57 57h2zM191.001 702c0 16 5.66797 29.6689 17.001 41.002s25 17 41 17c16 -0.00292969 29.667 -5.66992 41 -17c11.334 -11.335 17.001 -25.002 17 -41.001c0 -16.001 -5.66699 -29.668 -17 -41c-11.333 -11.3359 -25 -17.0029 -41 -17.001
c-16 0 -29.667 5.66699 -41 17c-11.334 11.333 -17.001 25 -17.001 41zM137.002 702.002c0 -16 2.66699 -30.8311 8 -44.498s13.166 -25.667 23.499 -36c10.333 -10.3369 22.333 -18.5039 36 -24.5c13.667 -6 28.5 -9 44.5 -9s30.833 3 44.5 9s25.667 14.167 36 24.5
s18.333 22.333 24 36c5.66699 13.6689 8.5 28.502 8.5 44.5c-0.000976562 16.001 -2.83398 30.834 -8.49902 44.499c-5.66699 13.667 -13.667 25.667 -24 36s-22.333 18.5 -36 24.5s-28.5 9 -44.5 9s-30.833 -3 -44.5 -9c-13.667 -6.00488 -25.667 -14.1719 -36 -24.501
c-10.333 -10.333 -18.166 -22.333 -23.499 -36c-5.33398 -13.667 -8.00098 -28.5 -8.00098 -44.5z" />
    <glyph glyph-name="Uhungarumlaut" unicode="&#x170;" horiz-adv-x="538" 
d="M185 714l-143.997 -0.000976562v-498c0 -48 6.33301 -87 19 -117s29.667 -53.167 51 -69.5s45.666 -27.166 72.999 -32.499s55.666 -8 84.999 -8s57.666 3 84.999 9c27.334 6 51.667 17.667 73 35s38.333 40.833 51 70.5s19 67.167 19 112.5v498h-144v-498
c0 -18 -1.16699 -34.5 -3.5 -49.5s-6.66602 -28 -12.999 -39s-14.833 -19.667 -25.5 -26s-24.667 -9.5 -42 -9.5c-16.667 0 -30.5 3.16699 -41.5 9.5s-19.667 15 -26 26c-6.33398 11 -10.667 24 -13 39c-2.33496 15 -3.50195 31.5 -3.50098 49.5v498zM309.003 907.999
l-54 -144h93l98 144h-137zM143.003 907.999l-52 -144h92l98 144h-138z" />
    <glyph glyph-name="uhungarumlaut" unicode="&#x171;" horiz-adv-x="500" 
d="M322 63l0.000976562 -63h132v538h-138v-357c0 -59.333 -24.333 -89 -73 -89c-20.667 0 -35.667 5.5 -45 16.5c-9.33398 11 -14.001 30.5 -14.001 58.5v371h-138v-399c0 -54 11.833 -92.5 35.5 -115.5s57.5 -34.5 101.5 -34.5c30 0 56.667 5.66699 80 17
s42.333 30.333 57 57h2zM290.001 736l-54 -144h93l98 144h-137zM124.001 736l-52 -144h92l98 144h-138z" />
    <glyph glyph-name="Uogonek" unicode="&#x172;" horiz-adv-x="538" 
d="M185 714l-143.997 -0.000976562v-498c0 -48 6.33301 -87 19 -117s29.667 -53.167 51 -69.5s45.666 -27.166 72.999 -32.499s55.666 -8 84.999 -8s57.666 3 84.999 9c27.334 6 51.667 17.667 73 35s38.333 40.833 51 70.5s19 67.167 19 112.5v498h-144v-498
c0 -18 -1.16699 -34.5 -3.5 -49.5s-6.66602 -28 -12.999 -39s-14.833 -19.667 -25.5 -26s-24.667 -9.5 -42 -9.5c-16.667 0 -30.5 3.16699 -41.5 9.5s-19.667 15 -26 26c-6.33398 11 -10.667 24 -13 39c-2.33496 15 -3.50195 31.5 -3.50098 49.5v498zM371.003 -205.001
l-18 57.001c-10.001 -5.33301 -19.334 -9.33301 -28 -12c-8.66699 -2.66699 -19 -4 -30.999 -4c-12.667 0 -22.334 3.83301 -29 11.5c-6.66797 7.66699 -10.001 17.167 -10 28.5c0 8 1.33301 15.833 4 23.5s7.66699 16.167 15 25.5c7.33398 9.33301 17.667 19.666 31 30.999
c13.334 11.333 30.667 23.666 52 36.999h-67c-40.667 -13.333 -71.334 -31.666 -92.001 -54.999s-31 -50 -31 -80c0 -10.667 1.5 -21.167 4.5 -31.5s8.33301 -19.5 15.999 -27.5c7.66699 -8 17.667 -14.5 30 -19.5s27.5 -7.5 45.5 -7.5c16.667 0 35.5 2 56.5 6
c21.001 4 38.168 9.66699 51.501 17z" />
    <glyph glyph-name="uogonek" unicode="&#x173;" horiz-adv-x="500" 
d="M322 63l0.000976562 -63h132v538h-138v-357c0 -59.333 -24.333 -89 -73 -89c-20.667 0 -35.667 5.5 -45 16.5c-9.33398 11 -14.001 30.5 -14.001 58.5v371h-138v-399c0 -54 11.833 -92.5 35.5 -115.5s57.5 -34.5 101.5 -34.5c30 0 56.667 5.66699 80 17
s42.333 30.333 57 57h2zM352.001 -205l-18 57.001c-10.001 -5.33301 -19.334 -9.33301 -28 -12c-8.66699 -2.66699 -19 -4 -30.999 -4c-12.667 0 -22.334 3.83301 -29 11.5c-6.66699 7.66699 -10 17.167 -10 28.5c0.000976562 8 1.33398 15.833 4 23.5
c2.66699 7.66699 7.66699 16.167 15 25.5c7.33398 9.33301 17.667 19.666 31 30.999c13.334 11.333 30.667 23.666 52 36.999h-67c-40.667 -13.333 -71.334 -31.666 -92.001 -54.999s-31 -50 -31 -80c0 -10.667 1.5 -21.167 4.5 -31.5s8.33301 -19.5 16 -27.5
s17.667 -14.5 30 -19.5s27.5 -7.5 45.5 -7.5c16.667 0 35.5 2 56.5 6s38.167 9.66699 51.5 17z" />
    <glyph glyph-name="Wcircumflex" unicode="&#x174;" horiz-adv-x="760" 
d="M8 714l130 -714h161l80 518h2l80 -518h161l130 714h-138l-79 -528h-2l-84 528h-138l-84 -528h-2l-79 528h-138zM307 908l-76 -144h98l48 85l46 -85h105l-77 144h-144z" />
    <glyph glyph-name="wcircumflex" unicode="&#x175;" horiz-adv-x="704" 
d="M7 538l117 -538h160l67 382h2l71 -382h157l116 538h-132l-65 -382h-2l-71 382h-150l-67 -382h-2l-63 382h-138zM279 736l-76 -144h98l48 85l46 -85h105l-77 144h-144z" />
    <glyph glyph-name="Ycircumflex" unicode="&#x176;" horiz-adv-x="520" 
d="M165 714h-162l185 -433v-281h144v281l185 433h-156l-100 -276h-2zM187 908l-76 -144h98l48 85l46 -85h105l-77 144h-144z" />
    <glyph glyph-name="ycircumflex" unicode="&#x177;" horiz-adv-x="444" 
d="M46 -70v-103.001h56c32 -0.000976562 58.5 2.33203 79.5 7c21 4.66699 39 14.5 54 29.5s28 36.333 39 64s22.5 63.834 34.5 108.501l130 502h-138l-70 -372h-2l-80 372h-144l151 -538c-2 -22 -8.5 -39.667 -19.5 -53s-29.167 -20 -54.5 -20c-12 0 -24 1 -36 3z
M149 735.999l-76 -144h98l48 85l46 -85h105l-77 144h-144z" />
    <glyph glyph-name="Ydieresis" unicode="&#x178;" horiz-adv-x="520" 
d="M290 883v-118h112v118h-112zM118 883v-118h112v118h-112zM165 714h-162l185 -433v-281h144v281l185 433h-156l-100 -276h-2z" />
    <glyph glyph-name="Zacute" unicode="&#x179;" horiz-adv-x="481" 
d="M287 596h-245v118h411v-109l-267 -487h271v-118h-433v105zM376 900l-98 -144h-94l54 144h138z" />
    <glyph glyph-name="zacute" unicode="&#x17a;" horiz-adv-x="426" 
d="M239 426h-205v112h368v-106l-215 -320h215v-112h-378v106zM349 745l-98 -144h-94l54 144h138z" />
    <glyph glyph-name="Zdotaccent" unicode="&#x17b;" horiz-adv-x="481" 
d="M287 596h-245v118h411v-109l-267 -487h271v-118h-433v105zM296 765h-112v118h112v-118z" />
    <glyph glyph-name="zdotaccent" unicode="&#x17c;" horiz-adv-x="426" 
d="M239 426h-205v112h368v-106l-215 -320h215v-112h-378v106zM269 610h-112v118h112v-118z" />
    <glyph glyph-name="Zcaron" unicode="&#x17d;" horiz-adv-x="481" 
d="M91 900l78 -144h144l78 144h-100l-48 -85l-46 85h-106zM24 105v-105h433v118h-271l267 487v109h-411v-118h245z" />
    <glyph glyph-name="zcaron" unicode="&#x17e;" horiz-adv-x="426" 
d="M63 745l78 -144h144l78 144h-100l-48 -85l-46 85h-106zM24 106v-106h378v112h-215l215 320v106h-368v-112h205z" />
    <glyph glyph-name="longs" unicode="&#x17f;" horiz-adv-x="296" 
d="M6 444l-0.000976562 94.002h70v61c0 24.001 3.33301 44.334 10 60.999c6.66699 16.668 16.167 30.001 28.5 40c12.333 10 27.5 17.167 45.5 21.5s38 6.5 60 6.5c24.667 0 49.334 -1 74.001 -3v-98c-3.33301 0.685547 -8 1.01855 -14 0.999023h-13
c-19.333 0 -33 -3.33301 -41 -10s-12 -17.667 -12 -33v-585h-138v444h-70z" />
    <glyph glyph-name="uni018E" unicode="&#x18e;" horiz-adv-x="481" 
d="M60 118h255v168h-240v118h240v192h-265v118h409v-714h-399v118z" />
    </font>
</defs>
</svg>
